G04*
G04 #@! TF.GenerationSoftware,Altium Limited,Altium Designer,21.7.2 (23)*
G04*
G04 Layer_Physical_Order=1*
G04 Layer_Color=255*
%FSLAX25Y25*%
%MOIN*%
G70*
G04*
G04 #@! TF.SameCoordinates,B7E76543-6187-4393-8A72-02BF7DF05099*
G04*
G04*
G04 #@! TF.FilePolarity,Positive*
G04*
G01*
G75*
%ADD14C,0.01000*%
%ADD70C,0.35433*%
%ADD77R,0.07874X0.21654*%
%ADD78R,0.07480X0.05118*%
%ADD79R,0.08661X0.04724*%
%ADD80R,0.03937X0.05512*%
%ADD81R,0.05512X0.03937*%
%ADD82R,0.04700X0.10400*%
%ADD83R,0.05906X0.05512*%
%ADD84R,0.05512X0.05906*%
%ADD85R,0.48031X0.17913*%
%ADD86R,0.05787X0.05059*%
%ADD87R,0.09055X0.07480*%
%ADD88R,0.07087X0.07480*%
%ADD89R,0.01575X0.05512*%
%ADD90R,0.04921X0.02362*%
%ADD91R,0.06693X0.01772*%
%ADD92R,0.05512X0.01181*%
%ADD93R,0.26969X0.41339*%
%ADD94R,0.11024X0.04134*%
%ADD95R,0.08504X0.04213*%
%ADD96R,0.07520X0.42520*%
%ADD97R,0.20000X0.32795*%
%ADD98R,0.05118X0.12795*%
%ADD99R,0.05118X0.03740*%
%ADD100R,0.01181X0.05807*%
%ADD101R,0.05807X0.01181*%
%ADD102R,0.11024X0.03543*%
%ADD103R,0.02362X0.02362*%
%ADD104R,0.02953X0.04724*%
%ADD105R,0.05472X0.05512*%
%ADD106R,0.13228X0.19134*%
%ADD107R,0.05512X0.05472*%
%ADD108R,0.19134X0.13228*%
%ADD109R,0.03583X0.05472*%
%ADD110R,0.05472X0.03583*%
%ADD111R,0.16535X0.07087*%
%ADD112R,0.13386X0.14173*%
%ADD113C,0.02000*%
%ADD114C,0.02500*%
%ADD115C,0.03000*%
%ADD116C,0.01500*%
%ADD117C,0.03500*%
%ADD118C,0.08000*%
%ADD119C,0.04882*%
%ADD120C,0.06496*%
%ADD121R,0.07677X0.15748*%
%ADD122R,0.06791X0.06791*%
%ADD123C,0.06791*%
%ADD124R,0.06791X0.06791*%
%ADD125C,0.14055*%
%ADD126C,0.05906*%
%ADD127R,0.06496X0.06496*%
%ADD128R,0.06496X0.06496*%
%ADD129R,0.15748X0.07677*%
%ADD130C,0.10630*%
%ADD131C,0.05953*%
%ADD132C,0.03937*%
%ADD133C,0.02362*%
%ADD134C,0.02756*%
%ADD135C,0.05000*%
G36*
X-16539Y-685D02*
X-14341Y-974D01*
X-12200Y-1548D01*
X-10151Y-2396D01*
X-8231Y-3505D01*
X-6472Y-4855D01*
X-4904Y-6423D01*
X-3555Y-8181D01*
X-2446Y-10102D01*
X-1598Y-12150D01*
X-1024Y-14292D01*
X-734Y-16490D01*
X-734Y-17598D01*
X-734Y-277441D01*
X-734Y-278550D01*
X-1024Y-280748D01*
X-1598Y-282889D01*
X-2446Y-284938D01*
X-3555Y-286858D01*
X-4904Y-288617D01*
X-6472Y-290185D01*
X-8231Y-291534D01*
X-10151Y-292643D01*
X-12200Y-293492D01*
X-14341Y-294065D01*
X-16539Y-294355D01*
X-17648D01*
X-454669Y-294355D01*
X-454937Y-293708D01*
X-454560Y-293331D01*
X-454229Y-292836D01*
X-454113Y-292253D01*
Y-292139D01*
X-449928D01*
Y-274791D01*
X-455688D01*
Y-274676D01*
X-455804Y-274093D01*
X-456135Y-273598D01*
X-460679Y-269053D01*
Y-240424D01*
X-460033Y-240156D01*
X-452653Y-247535D01*
X-452158Y-247866D01*
X-451575Y-247982D01*
X-446400D01*
X-445879Y-248413D01*
X-445879Y-248682D01*
Y-249933D01*
X-452307D01*
X-455029Y-247211D01*
X-455035Y-247182D01*
X-455516Y-246461D01*
X-456237Y-245980D01*
X-457087Y-245811D01*
X-457936Y-245980D01*
X-458657Y-246461D01*
X-459138Y-247182D01*
X-459307Y-248031D01*
X-459138Y-248881D01*
X-458657Y-249602D01*
X-457936Y-250083D01*
X-457907Y-250089D01*
X-454589Y-253408D01*
X-453928Y-253849D01*
X-453150Y-254004D01*
X-445879D01*
Y-255524D01*
X-440342D01*
Y-248682D01*
X-440342Y-248413D01*
X-439820Y-247982D01*
X-438920D01*
X-438398Y-248413D01*
X-438398Y-248682D01*
Y-255524D01*
X-438175D01*
Y-268828D01*
X-438807Y-269460D01*
X-439359Y-270286D01*
X-439553Y-271260D01*
Y-284252D01*
X-439895Y-284514D01*
X-440544Y-285360D01*
X-440952Y-286345D01*
X-441091Y-287402D01*
X-440952Y-288458D01*
X-440544Y-289443D01*
X-439895Y-290289D01*
X-439049Y-290937D01*
X-438065Y-291345D01*
X-437008Y-291484D01*
X-435951Y-291345D01*
X-434966Y-290937D01*
X-434121Y-290289D01*
X-433472Y-289443D01*
X-433064Y-288458D01*
X-432925Y-287402D01*
X-433064Y-286345D01*
X-433472Y-285360D01*
X-434121Y-284514D01*
X-434463Y-284252D01*
Y-272314D01*
X-433830Y-271681D01*
X-433279Y-270856D01*
X-433085Y-269882D01*
X-433085Y-269882D01*
Y-255524D01*
X-432861D01*
Y-248682D01*
X-432861Y-248413D01*
X-432340Y-247982D01*
X-430259D01*
X-429737Y-248413D01*
Y-255524D01*
X-429553D01*
Y-284252D01*
X-429895Y-284514D01*
X-430544Y-285360D01*
X-430952Y-286345D01*
X-431091Y-287402D01*
X-430952Y-288458D01*
X-430544Y-289443D01*
X-429895Y-290289D01*
X-429049Y-290937D01*
X-428065Y-291345D01*
X-427008Y-291484D01*
X-425951Y-291345D01*
X-424966Y-290937D01*
X-424121Y-290289D01*
X-423472Y-289443D01*
X-423064Y-288458D01*
X-422925Y-287402D01*
X-423064Y-286345D01*
X-423472Y-285360D01*
X-424121Y-284514D01*
X-424463Y-284252D01*
Y-255524D01*
X-424200D01*
Y-248581D01*
X-423683Y-247970D01*
X-423622Y-247982D01*
X-422778D01*
X-422257Y-248413D01*
X-422257Y-248682D01*
Y-255524D01*
X-422033D01*
Y-269882D01*
X-421839Y-270856D01*
X-421288Y-271681D01*
X-419553Y-273416D01*
Y-283353D01*
X-421056D01*
Y-291450D01*
X-412960D01*
Y-283353D01*
X-414463D01*
Y-272362D01*
X-414657Y-271388D01*
X-415208Y-270563D01*
X-416943Y-268828D01*
Y-255524D01*
X-416720D01*
Y-254514D01*
X-415564D01*
Y-255524D01*
X-410027D01*
Y-248682D01*
X-410027Y-248413D01*
X-409505Y-247982D01*
X-402207D01*
X-391604Y-258585D01*
Y-283492D01*
X-392195Y-283737D01*
X-393071Y-284409D01*
X-393744Y-285286D01*
X-394166Y-286306D01*
X-394311Y-287402D01*
X-394166Y-288497D01*
X-393744Y-289517D01*
X-393071Y-290394D01*
X-392195Y-291067D01*
X-391174Y-291489D01*
X-390079Y-291633D01*
X-388983Y-291489D01*
X-387963Y-291067D01*
X-387086Y-290394D01*
X-386414Y-289517D01*
X-385991Y-288497D01*
X-385847Y-287402D01*
X-385991Y-286306D01*
X-386414Y-285286D01*
X-387086Y-284409D01*
X-387963Y-283737D01*
X-388553Y-283492D01*
Y-282074D01*
X-387853Y-281784D01*
X-383922Y-285716D01*
X-384166Y-286306D01*
X-384311Y-287402D01*
X-384166Y-288497D01*
X-383744Y-289517D01*
X-383071Y-290394D01*
X-382195Y-291067D01*
X-381174Y-291489D01*
X-380079Y-291633D01*
X-378983Y-291489D01*
X-377963Y-291067D01*
X-377086Y-290394D01*
X-376414Y-289517D01*
X-375991Y-288497D01*
X-375847Y-287402D01*
X-375991Y-286306D01*
X-376414Y-285286D01*
X-377086Y-284409D01*
X-377963Y-283737D01*
X-378983Y-283314D01*
X-380079Y-283170D01*
X-381174Y-283314D01*
X-381765Y-283559D01*
X-385876Y-279447D01*
Y-257480D01*
X-385992Y-256897D01*
X-386323Y-256402D01*
X-399709Y-243016D01*
X-400204Y-242685D01*
X-400787Y-242569D01*
X-422203D01*
X-423590Y-241182D01*
X-423300Y-240482D01*
X-370051D01*
X-369691Y-240951D01*
X-369113Y-241395D01*
X-368439Y-241674D01*
X-367717Y-241769D01*
X-366994Y-241674D01*
X-366320Y-241395D01*
X-365742Y-240951D01*
X-365298Y-240373D01*
X-365019Y-239699D01*
X-364924Y-238976D01*
X-365019Y-238254D01*
X-365298Y-237580D01*
X-365742Y-237002D01*
X-366320Y-236558D01*
X-366994Y-236279D01*
X-367717Y-236184D01*
X-368439Y-236279D01*
X-368763Y-236413D01*
X-368770Y-236412D01*
X-446377D01*
Y-223241D01*
X-446532Y-222462D01*
X-446973Y-221802D01*
X-448831Y-219944D01*
Y-218103D01*
X-448275D01*
Y-211031D01*
X-449341D01*
Y-208674D01*
X-446934D01*
Y-204885D01*
X-444387D01*
X-443926Y-205346D01*
X-443431Y-205677D01*
X-442848Y-205793D01*
X-437527D01*
X-436368Y-206952D01*
Y-212291D01*
X-439284D01*
Y-219009D01*
X-437191D01*
Y-225184D01*
X-438182D01*
Y-230367D01*
X-431110D01*
Y-225184D01*
X-432101D01*
Y-219009D01*
X-430204D01*
Y-212291D01*
X-433317D01*
Y-206320D01*
X-433433Y-205736D01*
X-433764Y-205241D01*
X-434616Y-204390D01*
X-434348Y-203743D01*
X-430030D01*
X-423671Y-210102D01*
Y-212291D01*
X-426686D01*
Y-219009D01*
X-424789D01*
Y-225165D01*
X-425780D01*
Y-230347D01*
X-418708D01*
Y-225165D01*
X-419699D01*
Y-219009D01*
X-417605D01*
Y-212291D01*
X-420620D01*
Y-211031D01*
X-419920Y-210590D01*
X-419615Y-210650D01*
X-408674D01*
Y-225603D01*
X-399200D01*
Y-218214D01*
X-388969D01*
Y-218261D01*
X-381897D01*
Y-213078D01*
X-388969D01*
Y-213124D01*
X-399200D01*
Y-202350D01*
X-408674D01*
Y-207600D01*
X-418983D01*
X-427452Y-199131D01*
X-427498Y-198431D01*
X-426571Y-197504D01*
X-426240Y-197009D01*
X-426124Y-196425D01*
Y-183871D01*
X-423413D01*
Y-176759D01*
X-428950D01*
Y-181036D01*
X-429059Y-181200D01*
X-429175Y-181783D01*
Y-195794D01*
X-430031Y-196649D01*
X-439464D01*
X-439751Y-196362D01*
X-440246Y-196032D01*
X-440830Y-195916D01*
X-446934D01*
Y-194082D01*
X-450026D01*
X-450054Y-194063D01*
X-450638Y-193947D01*
X-454289D01*
X-454801Y-193436D01*
X-454321Y-192926D01*
X-451250D01*
X-451222Y-192945D01*
X-450638Y-193061D01*
X-444461D01*
X-443877Y-192945D01*
X-443382Y-192614D01*
X-432858Y-182090D01*
X-432528Y-181595D01*
X-432412Y-181011D01*
Y-173851D01*
X-430322D01*
Y-173295D01*
X-429284D01*
Y-174481D01*
X-421897D01*
Y-167822D01*
X-429284D01*
Y-169225D01*
X-430322D01*
Y-168668D01*
X-437395D01*
Y-169303D01*
X-438590D01*
Y-168747D01*
X-445662D01*
X-446112Y-168234D01*
Y-164018D01*
X-441788Y-159693D01*
X-441718Y-159740D01*
X-440945Y-159894D01*
X-440172Y-159740D01*
X-439517Y-159302D01*
X-439079Y-158647D01*
X-438925Y-157874D01*
X-439079Y-157101D01*
X-439517Y-156446D01*
X-440172Y-156008D01*
X-440945Y-155854D01*
X-441718Y-156008D01*
X-442373Y-156446D01*
X-442474Y-156597D01*
X-442933Y-156688D01*
X-443428Y-157018D01*
X-448716Y-162307D01*
X-449047Y-162802D01*
X-449163Y-163386D01*
Y-173622D01*
X-449157Y-173653D01*
X-449537Y-174291D01*
X-450310Y-174444D01*
X-450820Y-174785D01*
X-455496D01*
X-455786Y-174085D01*
X-452465Y-170764D01*
X-452134Y-170269D01*
X-452018Y-169685D01*
Y-167425D01*
X-451677Y-166915D01*
X-451523Y-166142D01*
X-451677Y-165369D01*
X-452115Y-164713D01*
X-452770Y-164276D01*
X-453543Y-164122D01*
X-454316Y-164276D01*
X-454972Y-164713D01*
X-455409Y-165369D01*
X-455563Y-166142D01*
X-455528Y-166317D01*
X-456124Y-166913D01*
X-456299Y-166878D01*
X-457072Y-167032D01*
X-457727Y-167469D01*
X-458165Y-168125D01*
X-458285Y-168726D01*
X-459825Y-170266D01*
X-460652Y-170103D01*
X-460897Y-169735D01*
X-461552Y-169298D01*
X-462325Y-169144D01*
X-463098Y-169298D01*
X-463754Y-169735D01*
X-464192Y-170391D01*
X-464345Y-171164D01*
X-464192Y-171937D01*
X-464285Y-172162D01*
X-464975Y-172543D01*
X-465748Y-172389D01*
X-465885Y-172417D01*
X-466585Y-171842D01*
Y-167926D01*
X-462487D01*
Y-162389D01*
X-469599D01*
Y-166443D01*
X-469636Y-166626D01*
Y-169935D01*
X-470232Y-170254D01*
X-470885Y-169956D01*
X-471183Y-169237D01*
X-471162Y-169205D01*
X-471046Y-168622D01*
Y-168441D01*
X-470995Y-168407D01*
X-470557Y-167751D01*
X-470403Y-166978D01*
X-470557Y-166205D01*
X-470995Y-165550D01*
X-471650Y-165112D01*
X-472423Y-164959D01*
X-473196Y-165112D01*
X-473851Y-165550D01*
X-474289Y-166205D01*
X-474443Y-166978D01*
X-474289Y-167751D01*
X-474117Y-168010D01*
X-475291Y-169184D01*
X-475622Y-169679D01*
X-475738Y-170263D01*
Y-179772D01*
X-475622Y-180355D01*
X-475603Y-180383D01*
Y-183475D01*
X-469832D01*
Y-185984D01*
X-469716Y-186568D01*
X-469386Y-187063D01*
X-464489Y-191960D01*
X-464369Y-192561D01*
X-463932Y-193216D01*
X-463276Y-193654D01*
X-462503Y-193808D01*
X-461730Y-193654D01*
X-461075Y-193216D01*
X-460637Y-192561D01*
X-460483Y-191788D01*
X-460637Y-191015D01*
X-461075Y-190360D01*
X-461209Y-190270D01*
Y-189428D01*
X-461149Y-189388D01*
X-460711Y-188732D01*
X-460557Y-187959D01*
X-460711Y-187186D01*
X-461149Y-186531D01*
X-461804Y-186093D01*
X-462228Y-186009D01*
X-464115Y-184122D01*
X-463847Y-183475D01*
X-458088D01*
X-457876Y-184175D01*
X-457931Y-184212D01*
X-458368Y-184867D01*
X-458522Y-185640D01*
X-458368Y-186413D01*
X-458218Y-186638D01*
Y-193701D01*
X-458102Y-194284D01*
X-457771Y-194779D01*
X-456000Y-196551D01*
X-455505Y-196882D01*
X-454921Y-196998D01*
X-454341D01*
Y-200800D01*
Y-204737D01*
Y-208674D01*
X-452391D01*
Y-211031D01*
X-453457D01*
Y-218103D01*
X-453989Y-218511D01*
X-454971D01*
Y-213142D01*
X-455087Y-212558D01*
X-455105Y-212530D01*
Y-209438D01*
X-457887D01*
Y-212530D01*
X-457905Y-212558D01*
X-458021Y-213142D01*
Y-217893D01*
X-458208Y-218033D01*
X-458908Y-217684D01*
Y-213142D01*
X-459024Y-212558D01*
X-459043Y-212530D01*
Y-209438D01*
X-479540D01*
Y-212530D01*
X-479559Y-212558D01*
X-479675Y-213142D01*
Y-231061D01*
X-483309Y-234695D01*
X-499132D01*
X-531385Y-202442D01*
Y-196503D01*
X-539481D01*
Y-204599D01*
X-533542D01*
X-501731Y-236411D01*
X-501999Y-237057D01*
X-510392D01*
X-531296Y-216153D01*
X-531201Y-215433D01*
X-531345Y-214338D01*
X-531768Y-213317D01*
X-532441Y-212441D01*
X-533317Y-211768D01*
X-534338Y-211345D01*
X-535433Y-211201D01*
X-536528Y-211345D01*
X-537549Y-211768D01*
X-538425Y-212441D01*
X-539098Y-213317D01*
X-539521Y-214338D01*
X-539665Y-215433D01*
X-539521Y-216528D01*
X-539098Y-217549D01*
X-538425Y-218425D01*
X-537549Y-219098D01*
X-536528Y-219521D01*
X-535433Y-219665D01*
X-534338Y-219521D01*
X-533317Y-219098D01*
X-532948Y-218815D01*
X-512991Y-238773D01*
X-513259Y-239420D01*
X-519289D01*
X-531590Y-227119D01*
X-531345Y-226528D01*
X-531201Y-225433D01*
X-531345Y-224338D01*
X-531768Y-223317D01*
X-532441Y-222441D01*
X-533317Y-221768D01*
X-534338Y-221345D01*
X-535433Y-221201D01*
X-536528Y-221345D01*
X-537549Y-221768D01*
X-538425Y-222441D01*
X-539098Y-223317D01*
X-539521Y-224338D01*
X-539665Y-225433D01*
X-539521Y-226528D01*
X-539098Y-227549D01*
X-538425Y-228426D01*
X-537549Y-229098D01*
X-536528Y-229521D01*
X-535433Y-229665D01*
X-534338Y-229521D01*
X-533747Y-229276D01*
X-521888Y-241135D01*
X-522156Y-241782D01*
X-526927D01*
X-531590Y-237119D01*
X-531345Y-236528D01*
X-531201Y-235433D01*
X-531345Y-234338D01*
X-531768Y-233317D01*
X-532441Y-232441D01*
X-533317Y-231768D01*
X-534338Y-231345D01*
X-535433Y-231201D01*
X-536528Y-231345D01*
X-537549Y-231768D01*
X-538425Y-232441D01*
X-539098Y-233317D01*
X-539521Y-234338D01*
X-539665Y-235433D01*
X-539521Y-236528D01*
X-539098Y-237549D01*
X-538425Y-238425D01*
X-537549Y-239098D01*
X-536528Y-239521D01*
X-535433Y-239665D01*
X-534338Y-239521D01*
X-533747Y-239276D01*
X-532433Y-240591D01*
X-532700Y-241237D01*
X-539629D01*
Y-249629D01*
X-531237D01*
Y-246958D01*
X-479291D01*
X-478708Y-246842D01*
X-478213Y-246512D01*
X-469197Y-237496D01*
X-469010Y-237477D01*
X-466092Y-240396D01*
Y-274791D01*
X-469206D01*
Y-277608D01*
X-470234D01*
X-477268Y-270575D01*
X-477763Y-270244D01*
X-478346Y-270128D01*
X-490158D01*
X-490741Y-270244D01*
X-491236Y-270575D01*
X-493205Y-272543D01*
X-493535Y-273038D01*
X-493651Y-273622D01*
Y-274791D01*
X-496765D01*
Y-292139D01*
X-487487D01*
Y-274791D01*
X-490206D01*
X-490437Y-274091D01*
X-489526Y-273179D01*
X-478978D01*
X-478067Y-274091D01*
X-478357Y-274791D01*
X-486765D01*
Y-292139D01*
X-477487D01*
Y-291175D01*
X-476841Y-290907D01*
X-474040Y-293708D01*
X-474308Y-294355D01*
X-525522D01*
X-526631Y-294355D01*
X-528829Y-294065D01*
X-530970Y-293492D01*
X-533019Y-292643D01*
X-534939Y-291534D01*
X-536698Y-290185D01*
X-538266Y-288617D01*
X-539615Y-286858D01*
X-540724Y-284938D01*
X-541573Y-282889D01*
X-542146Y-280748D01*
X-542436Y-278550D01*
Y-277441D01*
X-542436Y-128352D01*
X-541789Y-128085D01*
X-538874Y-131000D01*
X-538379Y-131331D01*
X-537795Y-131447D01*
X-533309D01*
X-519242Y-145514D01*
Y-159812D01*
X-519889Y-160080D01*
X-531590Y-148379D01*
X-531345Y-147788D01*
X-531201Y-146693D01*
X-531345Y-145598D01*
X-531768Y-144577D01*
X-532441Y-143701D01*
X-533317Y-143028D01*
X-534338Y-142605D01*
X-535433Y-142461D01*
X-536528Y-142605D01*
X-537549Y-143028D01*
X-538425Y-143701D01*
X-539098Y-144577D01*
X-539521Y-145598D01*
X-539665Y-146693D01*
X-539521Y-147788D01*
X-539098Y-148809D01*
X-538425Y-149685D01*
X-537549Y-150358D01*
X-536528Y-150781D01*
X-535433Y-150925D01*
X-534338Y-150781D01*
X-533747Y-150536D01*
X-521604Y-162679D01*
Y-167450D01*
X-522251Y-167718D01*
X-531590Y-158379D01*
X-531345Y-157788D01*
X-531201Y-156693D01*
X-531345Y-155598D01*
X-531768Y-154577D01*
X-532441Y-153700D01*
X-533317Y-153028D01*
X-534338Y-152605D01*
X-535433Y-152461D01*
X-536528Y-152605D01*
X-537549Y-153028D01*
X-538425Y-153700D01*
X-539098Y-154577D01*
X-539521Y-155598D01*
X-539665Y-156693D01*
X-539521Y-157788D01*
X-539098Y-158809D01*
X-538425Y-159685D01*
X-537549Y-160358D01*
X-536528Y-160781D01*
X-535433Y-160925D01*
X-534338Y-160781D01*
X-533747Y-160536D01*
X-532433Y-161851D01*
X-532700Y-162497D01*
X-539629D01*
Y-170889D01*
X-531237D01*
Y-163960D01*
X-530591Y-163692D01*
X-523966Y-170317D01*
Y-190678D01*
X-524613Y-190946D01*
X-526087Y-189473D01*
X-526582Y-189142D01*
X-527165Y-189026D01*
X-531683D01*
X-531897Y-188510D01*
X-532546Y-187664D01*
X-533392Y-187015D01*
X-534376Y-186607D01*
X-535433Y-186468D01*
X-536490Y-186607D01*
X-537474Y-187015D01*
X-538320Y-187664D01*
X-538969Y-188510D01*
X-539377Y-189494D01*
X-539516Y-190551D01*
X-539377Y-191608D01*
X-538969Y-192593D01*
X-538320Y-193438D01*
X-537474Y-194087D01*
X-536490Y-194495D01*
X-535433Y-194634D01*
X-534376Y-194495D01*
X-533392Y-194087D01*
X-532546Y-193438D01*
X-531897Y-192593D01*
X-531683Y-192077D01*
X-527797D01*
X-515449Y-204425D01*
X-514954Y-204756D01*
X-514370Y-204872D01*
X-484008D01*
X-483424Y-204756D01*
X-483396Y-204737D01*
X-480304D01*
Y-202768D01*
Y-198831D01*
Y-195029D01*
X-479380D01*
X-478761Y-195649D01*
Y-198215D01*
X-478899Y-198307D01*
X-479337Y-198962D01*
X-479490Y-199735D01*
X-479337Y-200508D01*
X-478899Y-201164D01*
X-478243Y-201602D01*
X-477470Y-201755D01*
X-476697Y-201602D01*
X-476042Y-201164D01*
X-475622Y-200535D01*
X-475569Y-200472D01*
X-474816Y-200134D01*
X-474251Y-200246D01*
X-473478Y-200093D01*
X-472823Y-199655D01*
X-472444Y-199088D01*
X-472198Y-198908D01*
X-471738Y-198718D01*
X-470965Y-198872D01*
X-470192Y-198718D01*
X-469537Y-198280D01*
X-469099Y-197625D01*
X-469086Y-197560D01*
X-468502Y-197108D01*
X-468343Y-197140D01*
X-467729Y-197262D01*
X-466956Y-197108D01*
X-466301Y-196670D01*
X-465863Y-196015D01*
X-465709Y-195242D01*
X-465863Y-194469D01*
X-466301Y-193814D01*
X-466542Y-193653D01*
X-466581Y-193457D01*
X-466911Y-192962D01*
X-466973Y-192901D01*
X-466987Y-192880D01*
X-473347Y-186520D01*
X-473842Y-186189D01*
X-474426Y-186073D01*
X-480304D01*
Y-184239D01*
X-485565D01*
X-485833Y-183593D01*
X-482548Y-180308D01*
X-480401D01*
Y-179160D01*
X-479675D01*
Y-179772D01*
X-479559Y-180355D01*
X-479540Y-180383D01*
Y-183475D01*
X-476759D01*
Y-180383D01*
X-476740Y-180355D01*
X-476624Y-179772D01*
Y-177725D01*
X-476740Y-177141D01*
X-476759Y-177113D01*
Y-176068D01*
X-479540D01*
Y-176109D01*
X-480401D01*
Y-173235D01*
X-480957D01*
Y-171646D01*
X-480401D01*
Y-167452D01*
X-476392Y-163444D01*
X-475951Y-162784D01*
X-475796Y-162005D01*
Y-150585D01*
X-465088D01*
X-462414Y-153260D01*
X-461753Y-153701D01*
X-460975Y-153856D01*
X-433865D01*
X-428256Y-159465D01*
X-428546Y-160165D01*
X-429284D01*
Y-166824D01*
X-421897D01*
Y-160165D01*
X-423671D01*
Y-159136D01*
X-423826Y-158357D01*
X-424267Y-157697D01*
X-431583Y-150382D01*
X-432243Y-149941D01*
X-433022Y-149786D01*
X-448853D01*
X-449227Y-149086D01*
X-449073Y-148855D01*
X-448919Y-148082D01*
X-449073Y-147309D01*
X-449159Y-147180D01*
Y-144678D01*
X-448491D01*
Y-137606D01*
X-449302D01*
Y-131312D01*
X-447231D01*
Y-125775D01*
X-454343D01*
Y-131312D01*
X-452863D01*
Y-137606D01*
X-453674D01*
Y-139263D01*
X-455302D01*
Y-137487D01*
X-460839D01*
Y-144599D01*
X-455302D01*
Y-142824D01*
X-453674D01*
Y-144678D01*
X-452719D01*
Y-147180D01*
X-452805Y-147309D01*
X-452959Y-148082D01*
X-452805Y-148855D01*
X-452651Y-149086D01*
X-453025Y-149786D01*
X-460132D01*
X-462806Y-147111D01*
X-463467Y-146670D01*
X-464245Y-146515D01*
X-475796D01*
Y-137434D01*
X-466014Y-127652D01*
X-465367Y-127920D01*
Y-131607D01*
X-463287D01*
X-463020Y-132254D01*
X-466810Y-136044D01*
X-467196Y-136622D01*
X-467332Y-137303D01*
Y-137487D01*
X-468320D01*
Y-144599D01*
X-462783D01*
Y-137487D01*
X-462783D01*
X-462910Y-137180D01*
X-458977Y-133247D01*
X-458592Y-132669D01*
X-458456Y-131988D01*
Y-131607D01*
X-455105D01*
Y-125283D01*
X-462730D01*
X-462998Y-124636D01*
X-453632Y-115270D01*
X-452568Y-116334D01*
Y-118295D01*
X-454343D01*
Y-123831D01*
X-447231D01*
Y-118295D01*
X-449007D01*
Y-115597D01*
X-449143Y-114916D01*
X-449529Y-114338D01*
X-451343Y-112524D01*
X-451053Y-111824D01*
X-450381D01*
Y-104712D01*
X-451114D01*
Y-100013D01*
X-450381D01*
Y-97648D01*
X-448844D01*
X-448066Y-97493D01*
X-447405Y-97052D01*
X-441474Y-91121D01*
X-441033Y-90461D01*
X-440878Y-89682D01*
Y-88217D01*
X-430807D01*
X-430495Y-88155D01*
X-430230Y-87978D01*
X-430103Y-87788D01*
X-429456D01*
Y-80716D01*
X-429991D01*
Y-69221D01*
X-422244D01*
X-421932Y-69159D01*
X-421667Y-68982D01*
X-421490Y-68718D01*
X-421428Y-68405D01*
Y-63189D01*
X-421490Y-62877D01*
X-421667Y-62612D01*
X-421932Y-62435D01*
X-422244Y-62373D01*
X-429991D01*
Y-20079D01*
Y-3543D01*
X-430054Y-3231D01*
X-430230Y-2967D01*
X-430495Y-2790D01*
X-430807Y-2728D01*
X-439272D01*
X-439584Y-2790D01*
X-439848Y-2967D01*
X-440025Y-3231D01*
X-440087Y-3543D01*
Y-20079D01*
Y-30976D01*
X-464272D01*
X-464584Y-31038D01*
X-464848Y-31215D01*
X-465025Y-31479D01*
X-465087Y-31791D01*
Y-38681D01*
X-465025Y-38993D01*
X-464848Y-39258D01*
X-464584Y-39435D01*
X-464272Y-39497D01*
X-459083D01*
Y-42126D01*
X-459021Y-42438D01*
X-458845Y-42703D01*
X-458580Y-42880D01*
X-458268Y-42942D01*
X-439497D01*
Y-48917D01*
Y-58535D01*
X-454528D01*
X-454840Y-58597D01*
X-455000Y-58704D01*
X-455408Y-58586D01*
X-455700Y-58405D01*
Y-55757D01*
X-453859Y-53916D01*
X-453473Y-53339D01*
X-453338Y-52658D01*
Y-50013D01*
X-451562D01*
Y-44476D01*
X-458674D01*
Y-50013D01*
X-456898D01*
Y-51920D01*
X-458739Y-53761D01*
X-459125Y-54338D01*
X-459261Y-55020D01*
Y-67572D01*
X-459327Y-67616D01*
X-460027Y-67242D01*
Y-64358D01*
X-468320D01*
Y-66822D01*
X-468602D01*
X-469284Y-66958D01*
X-469861Y-67343D01*
X-478424Y-75906D01*
X-478810Y-76484D01*
X-478946Y-77165D01*
Y-84925D01*
X-479032Y-85054D01*
X-479185Y-85827D01*
X-479032Y-86600D01*
X-478594Y-87255D01*
X-477938Y-87693D01*
X-477165Y-87847D01*
X-476840Y-88496D01*
X-480952Y-92608D01*
X-480959Y-92609D01*
X-481101Y-92704D01*
X-485839D01*
Y-93912D01*
X-490158D01*
X-491131Y-94105D01*
X-491957Y-94657D01*
X-506960Y-109660D01*
X-522822D01*
Y-107566D01*
X-540170D01*
Y-112381D01*
X-540284D01*
X-540868Y-112497D01*
X-541363Y-112828D01*
X-541789Y-113254D01*
X-542436Y-112986D01*
Y-17598D01*
X-542436Y-16490D01*
X-542146Y-14292D01*
X-541573Y-12150D01*
X-540724Y-10102D01*
X-539615Y-8181D01*
X-538266Y-6423D01*
X-536698Y-4855D01*
X-534939Y-3505D01*
X-533019Y-2396D01*
X-530970Y-1548D01*
X-528829Y-974D01*
X-526631Y-685D01*
X-525522Y-685D01*
X-17648Y-685D01*
X-16539Y-685D01*
D02*
G37*
G36*
X-430807Y-20079D02*
Y-63189D01*
X-422244D01*
Y-68405D01*
X-430807D01*
Y-87402D01*
X-445079D01*
Y-73032D01*
X-454528D01*
Y-59350D01*
X-438681D01*
Y-48917D01*
Y-42126D01*
X-458268D01*
Y-38681D01*
X-464272D01*
Y-31791D01*
X-439272D01*
Y-20079D01*
Y-3543D01*
X-430807D01*
Y-20079D01*
D02*
G37*
G36*
X-455343Y-70102D02*
Y-73032D01*
X-455281Y-73344D01*
X-455104Y-73608D01*
X-454840Y-73785D01*
X-454528Y-73847D01*
X-445894D01*
Y-87402D01*
X-445832Y-87714D01*
X-445655Y-87978D01*
X-445391Y-88155D01*
X-445118Y-88209D01*
X-445062Y-88444D01*
X-445027Y-88917D01*
X-449681Y-93572D01*
X-450381Y-93563D01*
Y-92901D01*
X-455918D01*
Y-100013D01*
X-455185D01*
Y-104712D01*
X-455918D01*
Y-111800D01*
X-479271Y-135152D01*
X-479712Y-135812D01*
X-479867Y-136591D01*
Y-148550D01*
Y-161162D01*
X-483279Y-164574D01*
X-485583D01*
Y-171646D01*
X-485027D01*
Y-173235D01*
X-485583D01*
Y-176664D01*
X-485664Y-176784D01*
X-485819Y-177563D01*
Y-177822D01*
X-493171Y-185175D01*
X-493612Y-185835D01*
X-493767Y-186614D01*
Y-188262D01*
X-494151Y-188761D01*
X-494429Y-189435D01*
X-494525Y-190157D01*
X-494429Y-190880D01*
X-494151Y-191554D01*
X-493707Y-192132D01*
X-493128Y-192576D01*
X-492455Y-192855D01*
X-491732Y-192950D01*
X-491010Y-192855D01*
X-490336Y-192576D01*
X-489758Y-192132D01*
X-489314Y-191554D01*
X-489035Y-190880D01*
X-488940Y-190157D01*
X-489035Y-189435D01*
X-489314Y-188761D01*
X-489697Y-188262D01*
Y-187457D01*
X-488358Y-186118D01*
X-487711Y-186386D01*
Y-188989D01*
Y-193947D01*
X-507833D01*
X-513829Y-187951D01*
Y-143701D01*
X-513945Y-143117D01*
X-514276Y-142622D01*
X-529355Y-127543D01*
X-529065Y-126843D01*
X-522822D01*
Y-124750D01*
X-504095D01*
X-503121Y-124556D01*
X-502295Y-124004D01*
X-489103Y-110813D01*
X-485839D01*
Y-112021D01*
X-478728D01*
Y-107200D01*
X-476072Y-104544D01*
X-475907Y-104298D01*
X-475737Y-104184D01*
X-475299Y-103529D01*
X-475145Y-102756D01*
X-475299Y-101983D01*
X-475737Y-101328D01*
X-476392Y-100890D01*
X-477165Y-100736D01*
X-477938Y-100890D01*
X-478594Y-101328D01*
X-479032Y-101983D01*
X-479152Y-102589D01*
X-481032Y-104469D01*
X-481101Y-104515D01*
X-485839D01*
Y-105723D01*
X-490158D01*
X-491131Y-105917D01*
X-491957Y-106468D01*
X-505149Y-119660D01*
X-522822D01*
Y-117566D01*
X-539313D01*
X-539500Y-117205D01*
X-539313Y-116843D01*
X-522822D01*
Y-114750D01*
X-505905D01*
X-504932Y-114556D01*
X-504106Y-114004D01*
X-489103Y-99002D01*
X-485839D01*
Y-100209D01*
X-478728D01*
Y-95419D01*
X-465368Y-82059D01*
X-464982Y-81481D01*
X-464846Y-80800D01*
Y-80619D01*
X-464173D01*
X-463698Y-80524D01*
X-460027D01*
Y-77965D01*
Y-75406D01*
Y-72942D01*
X-459744D01*
X-459063Y-72806D01*
X-458485Y-72420D01*
X-456221Y-70157D01*
X-456043Y-69890D01*
X-455343Y-70102D01*
D02*
G37*
G36*
X-451188Y-223694D02*
Y-223694D01*
X-450585Y-223947D01*
X-450448Y-224084D01*
Y-236465D01*
X-450831Y-236964D01*
X-451062Y-237523D01*
X-451451Y-237689D01*
X-451830Y-237745D01*
X-458908Y-230667D01*
Y-223821D01*
X-458261Y-223694D01*
Y-223694D01*
X-451188D01*
X-451188Y-223694D01*
D02*
G37*
%LPC*%
G36*
X-338964Y-3137D02*
X-346076D01*
Y-3870D01*
X-362598D01*
X-363377Y-4025D01*
X-364037Y-4466D01*
X-394668Y-35097D01*
X-395109Y-35757D01*
X-395264Y-36536D01*
Y-36668D01*
X-395869Y-36919D01*
X-396653Y-37520D01*
X-397254Y-38304D01*
X-397633Y-39217D01*
X-397762Y-40197D01*
X-397633Y-41177D01*
X-397254Y-42089D01*
X-396653Y-42873D01*
X-395869Y-43475D01*
X-394956Y-43853D01*
X-393976Y-43982D01*
X-392997Y-43853D01*
X-392084Y-43475D01*
X-391300Y-42873D01*
X-390698Y-42089D01*
X-390405Y-41382D01*
X-389673D01*
X-389380Y-42089D01*
X-388779Y-42873D01*
X-387995Y-43475D01*
X-387082Y-43853D01*
X-386102Y-43982D01*
X-385123Y-43853D01*
X-384210Y-43475D01*
X-383426Y-42873D01*
X-382824Y-42089D01*
X-382446Y-41177D01*
X-382317Y-40197D01*
X-382446Y-39217D01*
X-382824Y-38304D01*
X-383426Y-37520D01*
X-383625Y-37367D01*
X-383668Y-36546D01*
X-362543Y-15421D01*
X-346076D01*
Y-16154D01*
X-338964D01*
Y-10617D01*
X-346076D01*
Y-11351D01*
X-363386D01*
X-364165Y-11506D01*
X-364664Y-11839D01*
X-365110Y-11295D01*
X-361755Y-7941D01*
X-346076D01*
Y-8674D01*
X-338964D01*
Y-3137D01*
D02*
G37*
G36*
X-254113D02*
X-263391D01*
Y-10159D01*
X-263619Y-10712D01*
X-263791Y-12016D01*
Y-20764D01*
X-265526Y-22498D01*
X-277713D01*
Y-12016D01*
X-277885Y-10712D01*
X-278113Y-10159D01*
Y-3137D01*
X-287391D01*
Y-10159D01*
X-287619Y-10712D01*
X-287791Y-12016D01*
Y-22498D01*
X-299978D01*
X-301713Y-20764D01*
Y-12016D01*
X-301885Y-10712D01*
X-302113Y-10159D01*
Y-3137D01*
X-311391D01*
Y-10159D01*
X-311619Y-10712D01*
X-311791Y-12016D01*
Y-22851D01*
X-311619Y-24156D01*
X-311116Y-25371D01*
X-310315Y-26414D01*
X-308152Y-28578D01*
X-308156Y-29278D01*
X-314014Y-35011D01*
X-344889D01*
Y-34889D01*
X-351961D01*
Y-34907D01*
X-351969Y-34913D01*
X-352281Y-34975D01*
X-352545Y-35152D01*
X-352545Y-35152D01*
X-358310Y-40917D01*
X-371527D01*
Y-36368D01*
X-371589Y-36056D01*
X-371766Y-35791D01*
X-372030Y-35614D01*
X-372342Y-35552D01*
X-380118D01*
X-380430Y-35614D01*
X-380695Y-35791D01*
X-380872Y-36056D01*
X-380934Y-36368D01*
Y-54533D01*
X-421838D01*
Y-54456D01*
X-428556D01*
Y-59796D01*
X-426039D01*
X-425737Y-59921D01*
X-425020Y-60016D01*
X-424524D01*
X-424090Y-60073D01*
X-424090Y-60073D01*
X-380934D01*
Y-71050D01*
X-383280D01*
Y-79737D01*
X-380934D01*
Y-87333D01*
X-380908Y-87463D01*
X-380890Y-87595D01*
X-380877Y-87619D01*
X-380872Y-87645D01*
X-380798Y-87756D01*
X-380731Y-87871D01*
X-371977Y-97847D01*
Y-103417D01*
X-372899D01*
Y-98972D01*
X-376309D01*
Y-97662D01*
X-376284Y-97623D01*
X-376130Y-96850D01*
X-376284Y-96077D01*
X-376721Y-95422D01*
X-377377Y-94984D01*
X-378150Y-94831D01*
X-378923Y-94984D01*
X-379578Y-95422D01*
X-380016Y-96077D01*
X-380170Y-96850D01*
X-380016Y-97623D01*
X-379870Y-97842D01*
Y-98972D01*
X-385522D01*
Y-103526D01*
X-385715Y-103656D01*
X-385892Y-103920D01*
X-385954Y-104232D01*
Y-108732D01*
X-385892Y-109044D01*
X-385715Y-109309D01*
X-385522Y-109438D01*
Y-114115D01*
X-372899D01*
Y-109548D01*
X-358327D01*
X-358248Y-109532D01*
X-358168D01*
X-358094Y-109501D01*
X-358015Y-109486D01*
X-357948Y-109441D01*
X-357874Y-109410D01*
X-357817Y-109353D01*
X-357751Y-109309D01*
X-357706Y-109242D01*
X-357649Y-109185D01*
X-357602Y-109115D01*
X-357571Y-109041D01*
X-357527Y-108974D01*
X-357511Y-108895D01*
X-357480Y-108821D01*
Y-108741D01*
X-357465Y-108662D01*
Y-108036D01*
X-357287Y-107607D01*
X-356959Y-107280D01*
X-356531Y-107102D01*
X-356067D01*
X-355639Y-107280D01*
X-355269Y-107650D01*
X-355157Y-107817D01*
X-354893Y-107993D01*
X-354581Y-108055D01*
X-354081D01*
X-353769Y-107993D01*
X-353603Y-107883D01*
X-353504Y-107817D01*
X-353393Y-107650D01*
X-353022Y-107280D01*
X-352594Y-107102D01*
X-352130D01*
X-351702Y-107280D01*
X-351332Y-107650D01*
X-351220Y-107817D01*
X-350956Y-107993D01*
X-350644Y-108055D01*
X-350144D01*
X-349832Y-107993D01*
X-349666Y-107883D01*
X-349567Y-107817D01*
X-349456Y-107650D01*
X-349085Y-107280D01*
X-348657Y-107102D01*
X-348193D01*
X-347765Y-107280D01*
X-347394Y-107650D01*
X-347284Y-107817D01*
X-347019Y-107993D01*
X-346707Y-108055D01*
X-346207D01*
X-345895Y-107993D01*
X-345729Y-107883D01*
X-345630Y-107817D01*
X-345519Y-107650D01*
X-345148Y-107280D01*
X-344720Y-107102D01*
X-344256D01*
X-343828Y-107280D01*
X-343458Y-107650D01*
X-343347Y-107817D01*
X-343082Y-107993D01*
X-342770Y-108055D01*
X-342270D01*
X-341958Y-107993D01*
X-341693Y-107817D01*
X-341582Y-107650D01*
X-341211Y-107280D01*
X-340783Y-107102D01*
X-340440D01*
X-340128Y-107040D01*
X-339863Y-106863D01*
X-339863Y-106863D01*
X-338018Y-105018D01*
X-337842Y-104754D01*
X-337780Y-104442D01*
X-337780Y-104442D01*
Y-104099D01*
X-337602Y-103671D01*
X-337274Y-103343D01*
X-336846Y-103165D01*
X-336503D01*
X-336191Y-103103D01*
X-335926Y-102926D01*
X-335926Y-102926D01*
X-334095Y-101095D01*
X-325775D01*
Y-85322D01*
X-333576D01*
X-333597Y-85219D01*
X-333774Y-84955D01*
X-334038Y-84778D01*
X-334350Y-84716D01*
X-341507D01*
Y-69599D01*
X-333747D01*
Y-60913D01*
X-341507D01*
Y-57312D01*
X-303642D01*
X-303642Y-57312D01*
X-303330Y-57250D01*
X-303065Y-57073D01*
X-303065Y-57073D01*
X-295781Y-49789D01*
X-295781Y-49789D01*
X-284660Y-38667D01*
X-284659Y-38667D01*
X-278569Y-32577D01*
X-263438D01*
X-262134Y-32405D01*
X-260919Y-31902D01*
X-259875Y-31101D01*
X-255189Y-26414D01*
X-254388Y-25371D01*
X-253885Y-24156D01*
X-253713Y-22851D01*
Y-12016D01*
X-253885Y-10712D01*
X-254113Y-10159D01*
Y-3137D01*
D02*
G37*
G36*
X-468885Y-14357D02*
X-479737D01*
Y-21469D01*
X-477116D01*
Y-22494D01*
X-477234Y-22612D01*
X-477816Y-22851D01*
X-478104Y-22659D01*
X-478688Y-22543D01*
X-479961D01*
X-480545Y-22659D01*
X-481039Y-22989D01*
X-481888Y-23838D01*
X-482219Y-24333D01*
X-482335Y-24917D01*
Y-26189D01*
X-482219Y-26773D01*
X-481888Y-27268D01*
X-480858Y-28298D01*
Y-28307D01*
X-487693Y-35142D01*
X-488023Y-35637D01*
X-488139Y-36220D01*
Y-43069D01*
X-488730Y-43660D01*
X-491347D01*
X-491930Y-43776D01*
X-492094Y-43885D01*
X-495879D01*
Y-47257D01*
Y-49816D01*
Y-52375D01*
X-492207D01*
X-491732Y-52469D01*
X-483169D01*
X-482488Y-52334D01*
X-481910Y-51948D01*
X-480481Y-50518D01*
X-480329Y-50488D01*
X-479674Y-50050D01*
X-479236Y-49395D01*
X-479082Y-48622D01*
X-479236Y-47849D01*
X-479674Y-47194D01*
X-480329Y-46756D01*
X-481102Y-46602D01*
X-481875Y-46756D01*
X-482531Y-47194D01*
X-482969Y-47849D01*
X-482999Y-48001D01*
X-483907Y-48909D01*
X-484813D01*
X-485081Y-48262D01*
X-483173Y-46354D01*
X-482843Y-45859D01*
X-482727Y-45276D01*
Y-37246D01*
X-475804Y-30323D01*
X-475253Y-30564D01*
X-475147Y-30657D01*
Y-52813D01*
X-479175Y-56841D01*
X-487586D01*
Y-54121D01*
X-495879D01*
Y-56586D01*
X-497251D01*
Y-55775D01*
X-504324D01*
Y-60957D01*
X-504324D01*
Y-61602D01*
X-504324D01*
Y-66784D01*
X-497251D01*
Y-61602D01*
X-497251D01*
Y-60957D01*
X-497251D01*
Y-60146D01*
X-491732D01*
X-491257Y-60052D01*
X-487586D01*
Y-59891D01*
X-478543D01*
X-477960Y-59775D01*
X-477465Y-59445D01*
X-472543Y-54523D01*
X-472213Y-54029D01*
X-472097Y-53445D01*
Y-31242D01*
X-469394Y-28539D01*
X-469063Y-28044D01*
X-468947Y-27461D01*
Y-21469D01*
X-468885D01*
Y-14357D01*
D02*
G37*
G36*
X-175539Y-3137D02*
X-184816D01*
Y-10257D01*
X-185045Y-10810D01*
X-185216Y-12114D01*
Y-21278D01*
X-186951Y-23012D01*
X-197404D01*
X-199138Y-21278D01*
Y-12114D01*
X-199310Y-10810D01*
X-199539Y-10257D01*
Y-3137D01*
X-208816D01*
Y-10257D01*
X-209045Y-10810D01*
X-209216Y-12114D01*
Y-23365D01*
X-209045Y-24669D01*
X-208541Y-25885D01*
X-208074Y-26493D01*
X-208218Y-27178D01*
X-230412Y-39344D01*
X-230500Y-39418D01*
X-230596Y-39482D01*
X-230621Y-39520D01*
X-230656Y-39548D01*
X-230709Y-39651D01*
X-230773Y-39747D01*
X-230782Y-39791D01*
X-230803Y-39830D01*
X-230813Y-39946D01*
X-230835Y-40059D01*
Y-61700D01*
X-239186D01*
Y-70387D01*
X-230835D01*
Y-78922D01*
X-233278Y-84136D01*
X-233967Y-84257D01*
X-240923Y-77301D01*
X-241583Y-76860D01*
X-242362Y-76705D01*
X-262090D01*
X-274828Y-63967D01*
X-274782Y-63622D01*
X-274894Y-62776D01*
X-275220Y-61988D01*
X-275740Y-61311D01*
X-276417Y-60791D01*
X-277205Y-60465D01*
X-278051Y-60353D01*
X-278897Y-60465D01*
X-279686Y-60791D01*
X-280363Y-61311D01*
X-280882Y-61988D01*
X-281209Y-62776D01*
X-281320Y-63622D01*
X-281209Y-64468D01*
X-280882Y-65257D01*
X-280363Y-65934D01*
X-279686Y-66453D01*
X-278897Y-66780D01*
X-278051Y-66891D01*
X-277706Y-66846D01*
X-265048Y-79503D01*
X-265316Y-80150D01*
X-268645D01*
X-274828Y-73967D01*
X-274782Y-73622D01*
X-274894Y-72776D01*
X-275220Y-71988D01*
X-275740Y-71311D01*
X-276417Y-70791D01*
X-277205Y-70464D01*
X-278051Y-70353D01*
X-278897Y-70464D01*
X-279686Y-70791D01*
X-280363Y-71311D01*
X-280882Y-71988D01*
X-281209Y-72776D01*
X-281320Y-73622D01*
X-281209Y-74468D01*
X-280882Y-75257D01*
X-280363Y-75933D01*
X-279686Y-76453D01*
X-278897Y-76780D01*
X-278051Y-76891D01*
X-277706Y-76846D01*
X-270927Y-83624D01*
X-270267Y-84065D01*
X-269488Y-84220D01*
X-253894D01*
X-247749Y-90366D01*
Y-94599D01*
X-242212D01*
Y-93079D01*
X-240052D01*
Y-94579D01*
X-239496D01*
Y-110374D01*
X-239341Y-111153D01*
X-238900Y-111813D01*
X-236380Y-114333D01*
X-235720Y-114774D01*
X-234941Y-114929D01*
X-233796D01*
Y-115800D01*
X-223692D01*
Y-109987D01*
X-233796D01*
Y-110170D01*
X-234496Y-110460D01*
X-235425Y-109531D01*
Y-94579D01*
X-234869D01*
Y-90650D01*
X-234169Y-90287D01*
X-233985Y-90417D01*
Y-94193D01*
X-233923Y-94505D01*
X-233746Y-94770D01*
X-233481Y-94946D01*
X-233169Y-95009D01*
X-222736D01*
X-222714Y-95004D01*
X-222692Y-95007D01*
X-222559Y-94973D01*
X-222424Y-94946D01*
X-222406Y-94934D01*
X-222384Y-94929D01*
X-222274Y-94846D01*
X-222160Y-94770D01*
X-222147Y-94751D01*
X-222129Y-94738D01*
X-202803Y-73206D01*
X-202733Y-73088D01*
X-202657Y-72973D01*
X-202653Y-72951D01*
X-202641Y-72932D01*
X-202622Y-72796D01*
X-202595Y-72661D01*
Y-72362D01*
X-202417Y-71934D01*
X-202090Y-71606D01*
X-201661Y-71429D01*
X-201572D01*
X-201550Y-71424D01*
X-201528Y-71427D01*
X-201395Y-71393D01*
X-201260Y-71367D01*
X-201241Y-71354D01*
X-201220Y-71349D01*
X-201110Y-71266D01*
X-200995Y-71190D01*
X-200983Y-71171D01*
X-200965Y-71158D01*
X-200817Y-70993D01*
X-180610D01*
X-180298Y-70931D01*
X-180034Y-70754D01*
X-179985Y-70682D01*
X-159731D01*
Y-51169D01*
X-160462D01*
Y-46420D01*
X-160556Y-45704D01*
X-160640Y-45501D01*
Y-42884D01*
X-165823D01*
Y-45501D01*
X-165907Y-45704D01*
X-166001Y-46420D01*
Y-51169D01*
X-179795D01*
Y-30109D01*
X-176614Y-26928D01*
X-175813Y-25885D01*
X-175310Y-24669D01*
X-175138Y-23365D01*
Y-12114D01*
X-175310Y-10810D01*
X-175539Y-10257D01*
Y-3137D01*
D02*
G37*
G36*
X-101799D02*
X-111076D01*
Y-10457D01*
X-111305Y-11010D01*
X-111477Y-12314D01*
Y-23643D01*
X-113211Y-25377D01*
X-123664D01*
X-125399Y-23643D01*
Y-12314D01*
X-125570Y-11010D01*
X-125799Y-10457D01*
Y-3137D01*
X-135076D01*
Y-10457D01*
X-135305Y-11010D01*
X-135477Y-12314D01*
Y-25730D01*
X-135305Y-27035D01*
X-134802Y-28250D01*
X-134001Y-29294D01*
X-129315Y-33980D01*
X-128271Y-34781D01*
X-127056Y-35284D01*
X-125751Y-35456D01*
X-120816D01*
X-104908Y-51364D01*
X-104907Y-51364D01*
X-99930Y-56342D01*
Y-85814D01*
X-110938D01*
Y-94501D01*
X-99805D01*
X-99778Y-94540D01*
X-99691Y-94671D01*
X-99689Y-94673D01*
X-99687Y-94675D01*
X-99557Y-94761D01*
X-99426Y-94848D01*
X-99424Y-94849D01*
X-99422Y-94850D01*
X-87807Y-99575D01*
X-87654Y-99604D01*
X-87500Y-99635D01*
X-72047D01*
X-71735Y-99572D01*
X-71470Y-99396D01*
X-71294Y-99131D01*
X-71232Y-98819D01*
Y-78543D01*
X-71232Y-78543D01*
X-71294Y-78231D01*
X-71470Y-77966D01*
X-76350Y-73087D01*
Y-54036D01*
X-76350Y-54035D01*
X-76412Y-53723D01*
X-76589Y-53459D01*
X-76589Y-53459D01*
X-101993Y-28054D01*
X-101570Y-27035D01*
X-101399Y-25730D01*
Y-12314D01*
X-101570Y-11010D01*
X-101799Y-10457D01*
Y-3137D01*
D02*
G37*
G36*
X-531385Y-49968D02*
X-539481D01*
Y-58064D01*
X-531385D01*
Y-49968D01*
D02*
G37*
G36*
X-22822Y-52743D02*
X-28359D01*
Y-59855D01*
X-22822D01*
Y-58844D01*
X-18640D01*
X-18200Y-59182D01*
X-17397Y-59514D01*
X-16535Y-59628D01*
X-15674Y-59514D01*
X-14871Y-59182D01*
X-14182Y-58653D01*
X-13653Y-57964D01*
X-13320Y-57161D01*
X-13207Y-56299D01*
X-13320Y-55438D01*
X-13653Y-54635D01*
X-14182Y-53946D01*
X-14871Y-53417D01*
X-15674Y-53084D01*
X-16535Y-52971D01*
X-17397Y-53084D01*
X-18200Y-53417D01*
X-18640Y-53754D01*
X-22822D01*
Y-52743D01*
D02*
G37*
G36*
X-40818Y-45057D02*
X-41679Y-45171D01*
X-42482Y-45503D01*
X-43171Y-46032D01*
X-43700Y-46722D01*
X-44033Y-47524D01*
X-44146Y-48386D01*
X-44033Y-49247D01*
X-43700Y-50050D01*
X-43171Y-50739D01*
X-42853Y-50984D01*
Y-52743D01*
X-44107D01*
Y-59855D01*
X-38570D01*
Y-58844D01*
X-35839D01*
Y-59855D01*
X-30302D01*
Y-52743D01*
X-35839D01*
Y-53754D01*
X-38570D01*
Y-52743D01*
X-38783D01*
Y-50984D01*
X-38464Y-50739D01*
X-37935Y-50050D01*
X-37603Y-49247D01*
X-37489Y-48386D01*
X-37603Y-47524D01*
X-37935Y-46722D01*
X-38464Y-46032D01*
X-39154Y-45503D01*
X-39956Y-45171D01*
X-40818Y-45057D01*
D02*
G37*
G36*
X-460027Y-43885D02*
X-468320D01*
Y-47257D01*
Y-49816D01*
Y-52375D01*
Y-54934D01*
Y-57493D01*
Y-60052D01*
Y-62611D01*
X-460027D01*
Y-60052D01*
Y-57493D01*
Y-54934D01*
Y-52375D01*
Y-49816D01*
Y-47257D01*
Y-43885D01*
D02*
G37*
G36*
X-535433Y-59933D02*
X-536490Y-60072D01*
X-537474Y-60480D01*
X-538320Y-61129D01*
X-538969Y-61974D01*
X-539377Y-62959D01*
X-539516Y-64016D01*
X-539377Y-65073D01*
X-538969Y-66057D01*
X-538320Y-66903D01*
X-537474Y-67552D01*
X-536490Y-67960D01*
X-535433Y-68099D01*
X-534376Y-67960D01*
X-533392Y-67552D01*
X-532546Y-66903D01*
X-531897Y-66057D01*
X-531489Y-65073D01*
X-531350Y-64016D01*
X-531489Y-62959D01*
X-531897Y-61974D01*
X-532546Y-61129D01*
X-533392Y-60480D01*
X-534376Y-60072D01*
X-535433Y-59933D01*
D02*
G37*
G36*
X-487586Y-61798D02*
X-495879D01*
Y-65170D01*
Y-67729D01*
Y-70288D01*
X-487586D01*
Y-67729D01*
Y-65170D01*
Y-61798D01*
D02*
G37*
G36*
X-535433Y-69933D02*
X-536490Y-70072D01*
X-537474Y-70480D01*
X-538320Y-71129D01*
X-538969Y-71974D01*
X-539377Y-72959D01*
X-539516Y-74016D01*
X-539377Y-75072D01*
X-538969Y-76057D01*
X-538320Y-76903D01*
X-537474Y-77552D01*
X-536490Y-77960D01*
X-535433Y-78099D01*
X-534376Y-77960D01*
X-533392Y-77552D01*
X-532546Y-76903D01*
X-531897Y-76057D01*
X-531489Y-75072D01*
X-531350Y-74016D01*
X-531489Y-72959D01*
X-531897Y-71974D01*
X-532546Y-71129D01*
X-533392Y-70480D01*
X-534376Y-70072D01*
X-535433Y-69933D01*
D02*
G37*
G36*
X-487586Y-74594D02*
X-495879D01*
Y-77965D01*
Y-80524D01*
X-487586D01*
Y-77965D01*
Y-74594D01*
D02*
G37*
G36*
X-37487Y-74594D02*
X-43024D01*
Y-81706D01*
X-37487D01*
Y-80695D01*
X-35741D01*
Y-81784D01*
X-30558D01*
Y-74712D01*
X-35741D01*
Y-75605D01*
X-37487D01*
Y-74594D01*
D02*
G37*
G36*
X-278051Y-80353D02*
X-278897Y-80465D01*
X-279686Y-80791D01*
X-280363Y-81311D01*
X-280882Y-81988D01*
X-281209Y-82776D01*
X-281320Y-83622D01*
X-281209Y-84468D01*
X-280882Y-85256D01*
X-280363Y-85934D01*
X-279686Y-86453D01*
X-278897Y-86780D01*
X-278051Y-86891D01*
X-277205Y-86780D01*
X-276417Y-86453D01*
X-275740Y-85934D01*
X-275220Y-85256D01*
X-274894Y-84468D01*
X-274782Y-83622D01*
X-274894Y-82776D01*
X-275220Y-81988D01*
X-275740Y-81311D01*
X-276417Y-80791D01*
X-277205Y-80465D01*
X-278051Y-80353D01*
D02*
G37*
G36*
X-522822Y-83944D02*
X-540170D01*
Y-93221D01*
X-522822D01*
Y-83944D01*
D02*
G37*
G36*
Y-93944D02*
X-540170D01*
Y-103221D01*
X-522822D01*
Y-93944D01*
D02*
G37*
G36*
X-69279Y-65539D02*
X-74816D01*
Y-72650D01*
X-69279D01*
Y-71917D01*
X-68461D01*
X-66642Y-73736D01*
X-66548Y-74397D01*
X-66548D01*
Y-78631D01*
X-69549Y-81632D01*
X-69990Y-82292D01*
X-70145Y-83071D01*
Y-98891D01*
X-69990Y-99669D01*
X-69549Y-100330D01*
X-68378Y-101501D01*
X-67717Y-101942D01*
X-66939Y-102097D01*
X-66154D01*
Y-103654D01*
X-53531D01*
Y-97921D01*
X-66075D01*
Y-96961D01*
X-53531D01*
Y-94578D01*
X-53479Y-94502D01*
X-53286Y-93528D01*
Y-92367D01*
X-45947Y-85028D01*
X-45395Y-84202D01*
X-45201Y-83228D01*
X-45201Y-83228D01*
Y-81706D01*
X-44968D01*
Y-74594D01*
X-50505D01*
Y-81706D01*
X-50505D01*
X-50517Y-82400D01*
X-57630Y-89513D01*
X-58182Y-90339D01*
X-58359Y-91228D01*
X-66075D01*
Y-83914D01*
X-63670Y-81509D01*
X-61011D01*
Y-74397D01*
X-62096D01*
Y-73368D01*
X-62251Y-72590D01*
X-62692Y-71929D01*
X-66179Y-68443D01*
X-66839Y-68002D01*
X-67618Y-67847D01*
X-69279D01*
Y-65539D01*
D02*
G37*
G36*
X-181460Y-105877D02*
X-208268D01*
X-208347Y-105893D01*
X-208429Y-105893D01*
X-208502Y-105924D01*
X-208580Y-105939D01*
X-208647Y-105984D01*
X-208722Y-106016D01*
X-208779Y-106072D01*
X-208824Y-106103D01*
X-209303Y-106007D01*
X-210076Y-106161D01*
X-210732Y-106599D01*
X-211170Y-107254D01*
X-211323Y-108027D01*
X-211170Y-108800D01*
X-210908Y-109192D01*
X-212035Y-110886D01*
X-212065Y-110960D01*
X-212109Y-111026D01*
X-212125Y-111106D01*
X-212156Y-111181D01*
X-212156Y-111260D01*
X-212171Y-111338D01*
X-212155Y-111418D01*
X-212155Y-111499D01*
X-212124Y-111572D01*
X-212109Y-111650D01*
X-212075Y-111732D01*
Y-112196D01*
X-212252Y-112624D01*
X-212580Y-112952D01*
X-213009Y-113129D01*
X-213089D01*
X-213168Y-113145D01*
X-213250Y-113146D01*
X-213323Y-113176D01*
X-213401Y-113192D01*
X-213468Y-113237D01*
X-213543Y-113268D01*
X-213599Y-113324D01*
X-213665Y-113368D01*
X-213711Y-113436D01*
X-213768Y-113494D01*
X-220024Y-122905D01*
X-233465D01*
X-233777Y-122967D01*
X-234041Y-123144D01*
X-234218Y-123408D01*
X-234280Y-123721D01*
Y-128839D01*
X-234218Y-129151D01*
X-234185Y-129201D01*
X-234097Y-129404D01*
X-234159Y-129800D01*
X-234239Y-130061D01*
X-234365Y-130250D01*
X-234427Y-130562D01*
X-234427Y-136020D01*
X-243210Y-145285D01*
X-243289Y-145410D01*
X-243372Y-145534D01*
X-243374Y-145545D01*
X-243380Y-145554D01*
X-243405Y-145701D01*
X-243434Y-145846D01*
Y-169243D01*
X-243372Y-169555D01*
X-243195Y-169820D01*
X-242930Y-169997D01*
X-242618Y-170059D01*
X-238811Y-170059D01*
X-238316Y-170554D01*
X-238316Y-175267D01*
X-314342D01*
Y-161024D01*
X-314357Y-160945D01*
Y-159928D01*
X-332493D01*
Y-168615D01*
X-332312D01*
Y-169755D01*
X-359406D01*
X-365638Y-163523D01*
X-365348Y-162823D01*
X-345965D01*
X-345652Y-162761D01*
X-345388Y-162585D01*
X-345211Y-162320D01*
X-345149Y-162008D01*
Y-147384D01*
X-343758Y-145993D01*
X-326083D01*
X-325770Y-145931D01*
X-325506Y-145754D01*
X-325329Y-145489D01*
X-325267Y-145177D01*
Y-129724D01*
X-325329Y-129412D01*
X-325506Y-129148D01*
X-325770Y-128971D01*
X-326083Y-128909D01*
X-327840D01*
X-328153Y-128971D01*
X-328508Y-129118D01*
X-328972D01*
X-329328Y-128971D01*
X-329640Y-128909D01*
X-331778D01*
X-332090Y-128971D01*
X-332445Y-129118D01*
X-332909D01*
X-333265Y-128971D01*
X-333577Y-128909D01*
X-335715D01*
X-336027Y-128971D01*
X-336382Y-129118D01*
X-336846D01*
X-337202Y-128971D01*
X-337514Y-128909D01*
X-339651D01*
X-339964Y-128971D01*
X-340319Y-129118D01*
X-340783D01*
X-341139Y-128971D01*
X-341451Y-128909D01*
X-343588D01*
X-343901Y-128971D01*
X-344256Y-129118D01*
X-344720D01*
X-345076Y-128971D01*
X-345388Y-128909D01*
X-347526D01*
X-347838Y-128971D01*
X-348193Y-129118D01*
X-348657D01*
X-349013Y-128971D01*
X-349325Y-128909D01*
X-351463D01*
X-351775Y-128971D01*
X-352130Y-129118D01*
X-352594D01*
X-352950Y-128971D01*
X-353262Y-128909D01*
X-355399D01*
X-355712Y-128971D01*
X-356067Y-129118D01*
X-356531D01*
X-356887Y-128971D01*
X-357199Y-128909D01*
X-372274D01*
X-372413Y-128740D01*
Y-124536D01*
X-371288D01*
Y-127362D01*
X-371226Y-127674D01*
X-371049Y-127939D01*
X-370785Y-128116D01*
X-370472Y-128178D01*
X-364075D01*
X-363763Y-128116D01*
X-363498Y-127939D01*
X-363321Y-127674D01*
X-363259Y-127362D01*
Y-119291D01*
X-363321Y-118979D01*
X-363498Y-118715D01*
X-363763Y-118538D01*
X-364075Y-118476D01*
X-385138D01*
X-385450Y-118538D01*
X-385715Y-118715D01*
X-385891Y-118979D01*
X-385953Y-119291D01*
Y-123495D01*
X-397539D01*
X-397851Y-123557D01*
X-398116Y-123734D01*
X-398293Y-123999D01*
X-398355Y-124311D01*
Y-148137D01*
X-398379D01*
Y-155209D01*
X-398924Y-155584D01*
X-404957D01*
X-407651Y-152890D01*
Y-150984D01*
Y-146491D01*
X-407147D01*
Y-145226D01*
X-405824D01*
Y-146491D01*
X-400287D01*
Y-139380D01*
X-405824D01*
Y-140645D01*
X-407147D01*
Y-139380D01*
X-412683D01*
Y-146491D01*
X-412231D01*
Y-150984D01*
Y-153839D01*
X-412057Y-154715D01*
X-411560Y-155458D01*
X-407525Y-159493D01*
X-406782Y-159990D01*
X-405905Y-160164D01*
X-397799D01*
X-363707Y-194256D01*
Y-248622D01*
X-363533Y-249498D01*
X-363037Y-250241D01*
X-360792Y-252486D01*
X-360792Y-252486D01*
X-352684Y-260594D01*
Y-274791D01*
X-355032D01*
Y-292139D01*
X-345755D01*
Y-274791D01*
X-348104D01*
Y-259646D01*
X-348278Y-258769D01*
X-348774Y-258026D01*
X-357554Y-249247D01*
X-357554Y-249247D01*
X-359127Y-247674D01*
Y-240034D01*
X-358427Y-239895D01*
X-358229Y-240373D01*
X-357786Y-240951D01*
X-357207Y-241395D01*
X-356534Y-241674D01*
X-355811Y-241769D01*
X-355088Y-241674D01*
X-354415Y-241395D01*
X-354248Y-241266D01*
X-343862D01*
X-332211Y-252917D01*
Y-285039D01*
X-332037Y-285916D01*
X-331541Y-286659D01*
X-325635Y-292564D01*
X-324892Y-293061D01*
X-324016Y-293235D01*
X-277953D01*
X-277076Y-293061D01*
X-276333Y-292564D01*
X-271134Y-287365D01*
X-270638Y-286622D01*
X-270463Y-285746D01*
Y-254018D01*
X-270638Y-253142D01*
X-271134Y-252399D01*
X-271134Y-252399D01*
X-275465Y-248068D01*
X-276208Y-247572D01*
X-277084Y-247397D01*
X-278798D01*
Y-246919D01*
X-279148D01*
Y-243713D01*
X-278924D01*
Y-236602D01*
X-279148D01*
Y-232747D01*
X-274595Y-228194D01*
X-274410Y-228218D01*
X-273905Y-228152D01*
X-271304Y-230753D01*
X-271304Y-230753D01*
X-270561Y-231250D01*
X-269685Y-231424D01*
X-198488D01*
X-192631Y-237281D01*
Y-240367D01*
X-185519D01*
Y-239889D01*
X-180721D01*
Y-240367D01*
X-173609D01*
Y-239124D01*
X-164313D01*
X-159509Y-243927D01*
X-159777Y-244574D01*
X-163792D01*
Y-251686D01*
X-164322Y-252095D01*
X-174841D01*
X-174945Y-251969D01*
X-175114Y-251119D01*
X-175595Y-250398D01*
X-175640Y-250368D01*
Y-247847D01*
X-173609D01*
Y-242310D01*
X-180721D01*
Y-247847D01*
X-178691D01*
Y-250368D01*
X-178736Y-250398D01*
X-179217Y-251119D01*
X-179386Y-251969D01*
X-179217Y-252818D01*
X-178736Y-253539D01*
X-178524Y-253680D01*
X-178736Y-254380D01*
X-187113D01*
X-187406Y-253942D01*
X-187549Y-253846D01*
Y-247847D01*
X-185519D01*
Y-242310D01*
X-192631D01*
Y-247847D01*
X-190600D01*
Y-254022D01*
X-191028Y-254662D01*
X-191197Y-255512D01*
X-191028Y-256362D01*
X-190547Y-257082D01*
X-189826Y-257563D01*
X-188976Y-257732D01*
X-188127Y-257563D01*
X-187842Y-257373D01*
X-187803D01*
X-187513Y-257431D01*
X-158071D01*
X-157487Y-257315D01*
X-156992Y-256984D01*
X-152972Y-252964D01*
X-150258D01*
X-149674Y-252848D01*
X-149555Y-252768D01*
X-146641D01*
Y-248832D01*
Y-244082D01*
X-149585D01*
X-149613Y-244063D01*
X-150197Y-243947D01*
X-155175D01*
X-162419Y-236704D01*
X-162159Y-236004D01*
X-116975D01*
X-116715Y-236704D01*
X-121990Y-241979D01*
X-137603D01*
X-138187Y-242095D01*
X-138682Y-242425D01*
X-139268Y-243011D01*
X-139598Y-243506D01*
X-139714Y-244090D01*
Y-246855D01*
X-139598Y-247439D01*
X-139268Y-247934D01*
X-138682Y-248519D01*
X-138187Y-248850D01*
X-137603Y-248966D01*
X-132874D01*
X-132290Y-248850D01*
X-132262Y-248832D01*
X-129318D01*
Y-246998D01*
X-116072D01*
Y-281693D01*
X-116009Y-282005D01*
X-115833Y-282270D01*
X-115568Y-282447D01*
X-115256Y-282509D01*
X-101181D01*
X-100869Y-282447D01*
X-100644Y-282296D01*
X-100637Y-282296D01*
X-100485Y-282297D01*
X-99875Y-282437D01*
X-99789Y-282565D01*
X-99525Y-282742D01*
X-99213Y-282804D01*
X-67323D01*
X-67011Y-282742D01*
X-66746Y-282565D01*
X-66569Y-282300D01*
X-66507Y-281988D01*
Y-263386D01*
X-66569Y-263074D01*
X-66746Y-262809D01*
X-67011Y-262632D01*
X-67323Y-262570D01*
X-99213D01*
X-99525Y-262632D01*
X-99665Y-262726D01*
X-100119Y-262584D01*
X-100365Y-262416D01*
Y-252784D01*
X-78150D01*
X-77838Y-252722D01*
X-77573Y-252545D01*
X-77396Y-252281D01*
X-77334Y-251969D01*
Y-239764D01*
X-76864Y-239158D01*
X-76802Y-239124D01*
X-76124D01*
X-69287Y-245960D01*
X-68792Y-246291D01*
X-68209Y-246407D01*
X-66170D01*
Y-250394D01*
X-66108Y-250706D01*
X-65931Y-250971D01*
X-65667Y-251147D01*
X-65354Y-251209D01*
X-13484D01*
X-13172Y-251147D01*
X-12908Y-250971D01*
X-12731Y-250706D01*
X-12669Y-250394D01*
Y-228740D01*
X-12731Y-228428D01*
X-12908Y-228163D01*
X-13172Y-227987D01*
X-13484Y-227924D01*
X-34224D01*
Y-192154D01*
X-3543D01*
X-3231Y-192092D01*
X-2967Y-191915D01*
X-2790Y-191651D01*
X-2728Y-191339D01*
Y-182677D01*
X-2790Y-182365D01*
X-2967Y-182100D01*
X-3231Y-181924D01*
X-3543Y-181861D01*
X-46216D01*
X-46528Y-181924D01*
X-46793Y-182100D01*
X-46970Y-182365D01*
X-47032Y-182677D01*
Y-205512D01*
Y-208043D01*
X-80020D01*
X-80332Y-208105D01*
X-80597Y-208281D01*
X-80773Y-208546D01*
X-80835Y-208858D01*
Y-222342D01*
X-80773Y-222655D01*
X-80597Y-222919D01*
X-80332Y-223096D01*
X-80020Y-223158D01*
X-66170D01*
Y-243356D01*
X-67577D01*
X-74414Y-236520D01*
X-74908Y-236189D01*
X-75492Y-236073D01*
X-81316D01*
X-81504Y-235838D01*
X-81750Y-235373D01*
X-81713Y-235188D01*
Y-188731D01*
X-81743Y-188582D01*
X-81769Y-188434D01*
X-81774Y-188427D01*
X-81775Y-188419D01*
X-81859Y-188293D01*
X-81941Y-188166D01*
X-81947Y-188161D01*
X-81952Y-188154D01*
X-82078Y-188070D01*
X-82202Y-187984D01*
X-82210Y-187982D01*
X-82216Y-187978D01*
X-82365Y-187948D01*
X-82513Y-187916D01*
X-102825Y-187529D01*
X-102829Y-187530D01*
X-102833Y-187529D01*
X-102986Y-187558D01*
X-103139Y-187585D01*
X-103142Y-187587D01*
X-103146Y-187588D01*
X-103275Y-187673D01*
X-103407Y-187757D01*
X-103409Y-187760D01*
X-103412Y-187762D01*
X-103769Y-188112D01*
X-103771Y-188116D01*
X-103775Y-188118D01*
X-103861Y-188247D01*
X-103948Y-188375D01*
X-103949Y-188379D01*
X-103951Y-188382D01*
X-103982Y-188534D01*
X-104014Y-188687D01*
X-104013Y-188691D01*
X-104014Y-188695D01*
Y-219608D01*
X-150956D01*
Y-204361D01*
X-150968Y-204298D01*
Y-203575D01*
X-150956Y-203513D01*
Y-186251D01*
X-150968Y-186188D01*
Y-185465D01*
X-150956Y-185403D01*
Y-174803D01*
X-151018Y-174491D01*
X-151195Y-174226D01*
X-151460Y-174050D01*
X-151772Y-173987D01*
X-220936D01*
Y-170387D01*
X-214948D01*
Y-161700D01*
X-220936D01*
Y-153395D01*
X-220955Y-153299D01*
X-220960Y-153201D01*
X-220986Y-153144D01*
X-220998Y-153083D01*
X-221053Y-153001D01*
X-221094Y-152912D01*
X-223248Y-149980D01*
Y-144310D01*
X-222556Y-143962D01*
X-222244Y-144024D01*
X-200591D01*
X-200278Y-143962D01*
X-200014Y-143785D01*
X-199837Y-143521D01*
X-199775Y-143209D01*
Y-142045D01*
X-199752Y-141929D01*
X-199775Y-141813D01*
Y-138109D01*
X-199752Y-137992D01*
X-199775Y-137876D01*
X-199775Y-134171D01*
X-199752Y-134055D01*
X-199775Y-133939D01*
Y-130235D01*
X-199752Y-130118D01*
X-199775Y-130002D01*
Y-126814D01*
X-198761Y-125800D01*
X-159731D01*
Y-106287D01*
X-161098D01*
X-161286Y-106161D01*
X-162059Y-106007D01*
X-162832Y-106161D01*
X-163020Y-106287D01*
X-165035D01*
X-165223Y-106161D01*
X-165996Y-106007D01*
X-166769Y-106161D01*
X-166957Y-106287D01*
X-168972D01*
X-169160Y-106161D01*
X-169933Y-106007D01*
X-170706Y-106161D01*
X-170894Y-106287D01*
X-172909D01*
X-173097Y-106161D01*
X-173870Y-106007D01*
X-174643Y-106161D01*
X-174831Y-106287D01*
X-176846D01*
X-177034Y-106161D01*
X-177807Y-106007D01*
X-178580Y-106161D01*
X-178768Y-106287D01*
X-180770D01*
X-180884Y-106116D01*
X-181148Y-105939D01*
X-181357Y-105898D01*
X-181460Y-105877D01*
D02*
G37*
G36*
X-228740Y-98272D02*
X-229590Y-98440D01*
X-230310Y-98922D01*
X-230792Y-99642D01*
X-230961Y-100492D01*
X-230792Y-101342D01*
X-230779Y-101361D01*
Y-103295D01*
X-233796D01*
Y-109107D01*
X-223692D01*
Y-103295D01*
X-226709D01*
Y-101372D01*
X-226689Y-101342D01*
X-226519Y-100492D01*
X-226689Y-99642D01*
X-227170Y-98922D01*
X-227890Y-98440D01*
X-228740Y-98272D01*
D02*
G37*
G36*
X-159220Y-139945D02*
X-159942Y-140041D01*
X-160616Y-140320D01*
X-161115Y-140703D01*
X-173870D01*
X-174369Y-140320D01*
X-175043Y-140041D01*
X-175765Y-139945D01*
X-176488Y-140041D01*
X-177162Y-140320D01*
X-177740Y-140763D01*
X-178184Y-141342D01*
X-178463Y-142015D01*
X-178558Y-142738D01*
X-178463Y-143461D01*
X-178184Y-144134D01*
X-177740Y-144712D01*
X-177162Y-145156D01*
X-176488Y-145435D01*
X-175765Y-145530D01*
X-175043Y-145435D01*
X-174369Y-145156D01*
X-173870Y-144773D01*
X-161115D01*
X-160616Y-145156D01*
X-159942Y-145435D01*
X-159220Y-145530D01*
X-158497Y-145435D01*
X-157823Y-145156D01*
X-157245Y-144712D01*
X-156801Y-144134D01*
X-156522Y-143461D01*
X-156427Y-142738D01*
X-156522Y-142015D01*
X-156801Y-141342D01*
X-157245Y-140763D01*
X-157823Y-140320D01*
X-158497Y-140041D01*
X-159220Y-139945D01*
D02*
G37*
G36*
X-73721Y-100562D02*
X-87205D01*
X-87517Y-100624D01*
X-87782Y-100801D01*
X-87782Y-100801D01*
X-96893Y-109913D01*
X-129592D01*
X-129904Y-109975D01*
X-130169Y-110152D01*
X-130346Y-110416D01*
X-130408Y-110728D01*
Y-129429D01*
X-130346Y-129741D01*
X-130169Y-130006D01*
X-129904Y-130183D01*
X-129592Y-130245D01*
X-128877D01*
X-128877Y-130245D01*
X-128565Y-130183D01*
X-128499Y-130139D01*
X-127958Y-129915D01*
X-127494D01*
X-126953Y-130139D01*
X-126888Y-130183D01*
X-126576Y-130245D01*
X-126576Y-130245D01*
X-81012D01*
X-80887Y-130220D01*
X-80761Y-130205D01*
X-80732Y-130189D01*
X-80699Y-130183D01*
X-80594Y-130112D01*
X-80483Y-130050D01*
X-80231Y-129835D01*
X-77251D01*
Y-127299D01*
X-67188Y-118731D01*
X-67167Y-118705D01*
X-67140Y-118687D01*
X-66854Y-118402D01*
X-66154Y-118692D01*
Y-123733D01*
X-61052D01*
Y-129991D01*
X-73917D01*
X-74230Y-130053D01*
X-74494Y-130230D01*
X-74671Y-130495D01*
X-74733Y-130807D01*
Y-161783D01*
X-78501D01*
X-78813Y-161845D01*
X-79078Y-162022D01*
X-79255Y-162286D01*
X-79317Y-162598D01*
Y-162808D01*
X-79494Y-163236D01*
X-79822Y-163564D01*
X-80250Y-163742D01*
X-80714D01*
X-81142Y-163564D01*
X-81513Y-163194D01*
X-81624Y-163028D01*
X-81888Y-162851D01*
X-82200Y-162789D01*
X-82701D01*
X-83013Y-162851D01*
X-83178Y-162961D01*
X-83277Y-163028D01*
X-83388Y-163194D01*
X-83759Y-163564D01*
X-84187Y-163742D01*
X-84651D01*
X-85079Y-163564D01*
X-85450Y-163194D01*
X-85561Y-163028D01*
X-85825Y-162851D01*
X-86137Y-162789D01*
X-86638D01*
X-86950Y-162851D01*
X-87115Y-162961D01*
X-87214Y-163028D01*
X-87325Y-163194D01*
X-87696Y-163564D01*
X-88124Y-163742D01*
X-88588D01*
X-89016Y-163564D01*
X-89387Y-163194D01*
X-89498Y-163028D01*
X-89762Y-162851D01*
X-90074Y-162789D01*
X-90575D01*
X-90887Y-162851D01*
X-91052Y-162961D01*
X-91151Y-163028D01*
X-91262Y-163194D01*
X-91633Y-163564D01*
X-92061Y-163742D01*
X-92525D01*
X-92953Y-163564D01*
X-93324Y-163194D01*
X-93435Y-163028D01*
X-93699Y-162851D01*
X-94011Y-162789D01*
X-94512D01*
X-94824Y-162851D01*
X-94989Y-162961D01*
X-95088Y-163028D01*
X-95199Y-163194D01*
X-95570Y-163564D01*
X-95998Y-163742D01*
X-96462D01*
X-96890Y-163564D01*
X-97261Y-163194D01*
X-97372Y-163028D01*
X-97636Y-162851D01*
X-97949Y-162789D01*
X-98449D01*
X-98761Y-162851D01*
X-98926Y-162961D01*
X-99025Y-163028D01*
X-99136Y-163194D01*
X-99507Y-163564D01*
X-99935Y-163742D01*
X-100399D01*
X-100827Y-163564D01*
X-101198Y-163194D01*
X-101309Y-163028D01*
X-101574Y-162851D01*
X-101886Y-162789D01*
X-102386D01*
X-102698Y-162851D01*
X-102962Y-163028D01*
X-103073Y-163194D01*
X-103444Y-163564D01*
X-103872Y-163742D01*
X-104336D01*
X-104764Y-163564D01*
X-105135Y-163194D01*
X-105246Y-163028D01*
X-105510Y-162851D01*
X-105823Y-162789D01*
X-106323D01*
X-106635Y-162851D01*
X-106800Y-162961D01*
X-106899Y-163028D01*
X-107010Y-163194D01*
X-107381Y-163564D01*
X-107809Y-163742D01*
X-108273D01*
X-108701Y-163564D01*
X-109072Y-163194D01*
X-109183Y-163028D01*
X-109447Y-162851D01*
X-109760Y-162789D01*
X-110260D01*
X-110572Y-162851D01*
X-110737Y-162961D01*
X-110836Y-163028D01*
X-110948Y-163194D01*
X-111318Y-163564D01*
X-111746Y-163742D01*
X-112210D01*
X-112638Y-163564D01*
X-113009Y-163194D01*
X-113120Y-163028D01*
X-113384Y-162851D01*
X-113697Y-162789D01*
X-114197D01*
X-114509Y-162851D01*
X-114674Y-162961D01*
X-114773Y-163028D01*
X-114884Y-163194D01*
X-115255Y-163564D01*
X-115683Y-163742D01*
X-116147D01*
X-116575Y-163564D01*
X-116946Y-163194D01*
X-117057Y-163028D01*
X-117322Y-162851D01*
X-117634Y-162789D01*
X-118134D01*
X-118446Y-162851D01*
X-118710Y-163028D01*
X-118822Y-163194D01*
X-119192Y-163564D01*
X-119620Y-163742D01*
X-120084D01*
X-120512Y-163564D01*
X-120883Y-163194D01*
X-120994Y-163028D01*
X-121258Y-162851D01*
X-121571Y-162789D01*
X-122071D01*
X-122383Y-162851D01*
X-122548Y-162961D01*
X-122647Y-163028D01*
X-122758Y-163194D01*
X-123129Y-163564D01*
X-123557Y-163742D01*
X-124021D01*
X-124449Y-163564D01*
X-124777Y-163236D01*
X-124954Y-162808D01*
Y-162598D01*
X-125017Y-162286D01*
X-125193Y-162022D01*
X-125458Y-161845D01*
X-125770Y-161783D01*
X-125874D01*
X-126298Y-161148D01*
X-126953Y-160710D01*
X-127726Y-160556D01*
X-128499Y-160710D01*
X-129154Y-161148D01*
X-129578Y-161783D01*
X-144882D01*
X-144961Y-161798D01*
X-157395D01*
Y-170485D01*
X-145698D01*
Y-217323D01*
X-145635Y-217635D01*
X-145459Y-217900D01*
X-145194Y-218076D01*
X-144882Y-218139D01*
X-124213D01*
X-123900Y-218076D01*
X-123636Y-217900D01*
X-123459Y-217635D01*
X-123397Y-217323D01*
Y-201209D01*
X-116555D01*
X-116243Y-201147D01*
X-115978Y-200971D01*
X-115802Y-200706D01*
X-115740Y-200394D01*
Y-184953D01*
X-77251D01*
Y-174536D01*
X-66732D01*
X-66420Y-174474D01*
X-66155Y-174297D01*
X-65979Y-174033D01*
X-65917Y-173721D01*
Y-136938D01*
X-53937D01*
X-53625Y-136876D01*
X-53360Y-136699D01*
X-53183Y-136434D01*
X-53121Y-136122D01*
Y-118110D01*
X-53183Y-117798D01*
X-53360Y-117534D01*
Y-117211D01*
X-53183Y-116946D01*
X-53121Y-116634D01*
Y-111713D01*
X-53183Y-111400D01*
X-53360Y-111136D01*
X-53625Y-110959D01*
X-53937Y-110897D01*
X-69839D01*
X-72905Y-107831D01*
Y-101378D01*
X-72967Y-101066D01*
X-73144Y-100801D01*
X-73408Y-100624D01*
X-73721Y-100562D01*
D02*
G37*
G36*
X-244968Y-162487D02*
X-250505D01*
Y-164518D01*
X-252435D01*
X-252465Y-164473D01*
X-253186Y-163992D01*
X-254035Y-163823D01*
X-254885Y-163992D01*
X-255606Y-164473D01*
X-255636Y-164518D01*
X-257172D01*
Y-162487D01*
X-262709D01*
Y-169599D01*
X-257172D01*
Y-167569D01*
X-255636D01*
X-255606Y-167613D01*
X-254885Y-168095D01*
X-254035Y-168264D01*
X-253186Y-168095D01*
X-252465Y-167613D01*
X-252435Y-167569D01*
X-250505D01*
Y-169599D01*
X-244968D01*
Y-162487D01*
D02*
G37*
G36*
X-399200Y-164948D02*
X-408674D01*
Y-177770D01*
X-415932D01*
Y-176759D01*
X-421469D01*
Y-183871D01*
X-415932D01*
Y-182860D01*
X-408674D01*
Y-188202D01*
X-399200D01*
Y-182781D01*
X-388969D01*
Y-182827D01*
X-381897D01*
Y-177645D01*
X-388969D01*
Y-177691D01*
X-399200D01*
Y-164948D01*
D02*
G37*
G36*
X-3543Y-142590D02*
X-62500D01*
X-62812Y-142652D01*
X-63077Y-142829D01*
X-63254Y-143093D01*
X-63316Y-143405D01*
Y-188259D01*
X-80020D01*
X-80332Y-188321D01*
X-80597Y-188498D01*
X-80773Y-188763D01*
X-80835Y-189075D01*
Y-202658D01*
X-80773Y-202970D01*
X-80597Y-203234D01*
X-80332Y-203411D01*
X-80020Y-203473D01*
X-49114D01*
X-48802Y-203411D01*
X-48537Y-203234D01*
X-48361Y-202970D01*
X-48298Y-202658D01*
Y-177489D01*
X-3543D01*
X-3231Y-177427D01*
X-2967Y-177250D01*
X-2790Y-176985D01*
X-2728Y-176673D01*
Y-168110D01*
X-2790Y-167798D01*
X-2967Y-167534D01*
X-3231Y-167357D01*
X-3543Y-167295D01*
X-48298D01*
Y-152686D01*
X-3543D01*
X-3231Y-152624D01*
X-2967Y-152447D01*
X-2790Y-152182D01*
X-2728Y-151870D01*
Y-143405D01*
X-2790Y-143093D01*
X-2967Y-142829D01*
X-3231Y-142652D01*
X-3543Y-142590D01*
D02*
G37*
G36*
X-484008Y-205758D02*
X-485422D01*
X-486006Y-205874D01*
X-486034Y-205893D01*
X-487711D01*
Y-208674D01*
X-487711Y-208674D01*
X-487711D01*
X-488085Y-209204D01*
X-488356Y-209475D01*
X-491773D01*
Y-216547D01*
X-490902D01*
Y-222139D01*
X-491285Y-222638D01*
X-491564Y-223312D01*
X-491659Y-224035D01*
X-491564Y-224757D01*
X-491285Y-225431D01*
X-490841Y-226009D01*
X-490263Y-226453D01*
X-489589Y-226732D01*
X-488867Y-226827D01*
X-488144Y-226732D01*
X-487470Y-226453D01*
X-486892Y-226009D01*
X-486448Y-225431D01*
X-486169Y-224757D01*
X-486074Y-224035D01*
X-486169Y-223312D01*
X-486448Y-222638D01*
X-486832Y-222139D01*
Y-216547D01*
X-486590D01*
Y-212023D01*
X-484434Y-209867D01*
X-484103Y-209372D01*
X-483991Y-208805D01*
X-483424Y-208693D01*
X-483396Y-208674D01*
X-480304D01*
Y-205893D01*
X-483396D01*
X-483424Y-205874D01*
X-484008Y-205758D01*
D02*
G37*
G36*
X-206496Y-238940D02*
X-207219Y-239035D01*
X-207892Y-239314D01*
X-208471Y-239758D01*
X-208914Y-240336D01*
X-209193Y-241010D01*
X-209289Y-241732D01*
X-209193Y-242455D01*
X-209041Y-242823D01*
Y-246838D01*
X-210052D01*
Y-252375D01*
X-202940D01*
Y-246838D01*
X-203951D01*
Y-242823D01*
X-203799Y-242455D01*
X-203704Y-241732D01*
X-203799Y-241010D01*
X-204078Y-240336D01*
X-204522Y-239758D01*
X-205100Y-239314D01*
X-205773Y-239035D01*
X-206496Y-238940D01*
D02*
G37*
G36*
X-225787Y-238448D02*
X-226510Y-238543D01*
X-227184Y-238822D01*
X-227762Y-239266D01*
X-228206Y-239844D01*
X-228485Y-240517D01*
X-228580Y-241240D01*
X-228485Y-241963D01*
X-228332Y-242331D01*
Y-246838D01*
X-229343D01*
Y-252375D01*
X-222232D01*
Y-246838D01*
X-223242D01*
Y-242331D01*
X-223090Y-241963D01*
X-222995Y-241240D01*
X-223090Y-240517D01*
X-223369Y-239844D01*
X-223813Y-239266D01*
X-224391Y-238822D01*
X-225065Y-238543D01*
X-225787Y-238448D01*
D02*
G37*
G36*
X-244488Y-238448D02*
X-245211Y-238543D01*
X-245884Y-238822D01*
X-246463Y-239266D01*
X-246906Y-239844D01*
X-247185Y-240517D01*
X-247281Y-241240D01*
X-247185Y-241963D01*
X-247033Y-242331D01*
Y-246838D01*
X-248044D01*
Y-252375D01*
X-240932D01*
Y-246838D01*
X-241943D01*
Y-242331D01*
X-241791Y-241963D01*
X-241696Y-241240D01*
X-241791Y-240517D01*
X-242070Y-239844D01*
X-242514Y-239266D01*
X-243092Y-238822D01*
X-243765Y-238543D01*
X-244488Y-238448D01*
D02*
G37*
G36*
X-263093Y-238487D02*
X-263816Y-238582D01*
X-264489Y-238861D01*
X-265068Y-239305D01*
X-265511Y-239883D01*
X-265790Y-240556D01*
X-265885Y-241279D01*
X-265790Y-242002D01*
X-265734Y-242138D01*
Y-246838D01*
X-266745D01*
Y-252375D01*
X-259633D01*
Y-246838D01*
X-260644D01*
Y-242601D01*
X-260396Y-242002D01*
X-260301Y-241279D01*
X-260396Y-240556D01*
X-260675Y-239883D01*
X-261119Y-239305D01*
X-261697Y-238861D01*
X-262370Y-238582D01*
X-263093Y-238487D01*
D02*
G37*
G36*
X-131066Y-249853D02*
X-132874D01*
X-133458Y-249969D01*
X-133486Y-249987D01*
X-136430D01*
Y-252768D01*
X-133486D01*
X-133458Y-252787D01*
X-132874Y-252903D01*
X-132497D01*
X-132385Y-253466D01*
X-132054Y-253961D01*
X-129795Y-256221D01*
Y-258266D01*
X-129679Y-258850D01*
X-129678Y-258851D01*
Y-262985D01*
X-124495D01*
Y-255913D01*
X-126744D01*
Y-255589D01*
X-126860Y-255005D01*
X-127191Y-254510D01*
X-129318Y-252383D01*
Y-249987D01*
X-130454D01*
X-130482Y-249969D01*
X-131066Y-249853D01*
D02*
G37*
G36*
X-189370Y-263601D02*
X-190232Y-263714D01*
X-191034Y-264047D01*
X-191724Y-264576D01*
X-192253Y-265265D01*
X-192585Y-266068D01*
X-192699Y-266929D01*
X-192585Y-267791D01*
X-192253Y-268593D01*
X-191724Y-269283D01*
X-191034Y-269812D01*
X-190232Y-270144D01*
X-189370Y-270258D01*
X-188509Y-270144D01*
X-187841Y-269868D01*
X-147257D01*
Y-270091D01*
X-140145D01*
Y-264554D01*
X-147257D01*
Y-264778D01*
X-186861D01*
X-187016Y-264576D01*
X-187706Y-264047D01*
X-188509Y-263714D01*
X-189370Y-263601D01*
D02*
G37*
G36*
X-202940Y-254318D02*
X-210052D01*
Y-259855D01*
X-209041D01*
Y-269476D01*
X-210249D01*
Y-276587D01*
X-202743D01*
Y-269476D01*
X-203951D01*
Y-259855D01*
X-202940D01*
Y-254318D01*
D02*
G37*
G36*
X-222232Y-254318D02*
X-229343D01*
Y-259855D01*
X-228332D01*
Y-269476D01*
X-229540D01*
Y-276587D01*
X-222035D01*
Y-269476D01*
X-223242D01*
Y-259855D01*
X-222232D01*
Y-254318D01*
D02*
G37*
G36*
X-240932D02*
X-248044D01*
Y-259855D01*
X-247033D01*
Y-269476D01*
X-248241D01*
Y-276587D01*
X-240735D01*
Y-269476D01*
X-241943D01*
Y-259855D01*
X-240932D01*
Y-254318D01*
D02*
G37*
G36*
X-259633D02*
X-266745D01*
Y-259855D01*
X-265734D01*
Y-269476D01*
X-266942D01*
Y-276587D01*
X-259436D01*
Y-269476D01*
X-260644D01*
Y-259855D01*
X-259633D01*
Y-254318D01*
D02*
G37*
G36*
X-140145Y-272035D02*
X-147257D01*
Y-272258D01*
X-162205D01*
X-163179Y-272452D01*
X-164004Y-273004D01*
X-169280Y-278279D01*
X-169832Y-279105D01*
X-170025Y-280079D01*
Y-284252D01*
X-170367Y-284514D01*
X-171016Y-285360D01*
X-171424Y-286345D01*
X-171563Y-287402D01*
X-171424Y-288458D01*
X-171016Y-289443D01*
X-170367Y-290289D01*
X-169522Y-290937D01*
X-168537Y-291345D01*
X-167480Y-291484D01*
X-166424Y-291345D01*
X-165439Y-290937D01*
X-164593Y-290289D01*
X-163944Y-289443D01*
X-163537Y-288458D01*
X-163397Y-287402D01*
X-163537Y-286345D01*
X-163944Y-285360D01*
X-164593Y-284514D01*
X-164935Y-284252D01*
Y-281133D01*
X-161151Y-277348D01*
X-147257D01*
Y-277572D01*
X-140145D01*
Y-272035D01*
D02*
G37*
G36*
X-153432Y-283353D02*
X-161528D01*
Y-291450D01*
X-153432D01*
Y-283353D01*
D02*
G37*
G36*
X-360827Y-264038D02*
X-361549Y-264134D01*
X-362223Y-264412D01*
X-362801Y-264856D01*
X-363245Y-265435D01*
X-363524Y-266108D01*
X-363596Y-266657D01*
X-371698Y-274759D01*
X-372195Y-275502D01*
X-372369Y-276378D01*
Y-283206D01*
X-374274D01*
Y-291597D01*
X-365883D01*
Y-283206D01*
X-367789D01*
Y-277326D01*
X-359910Y-269447D01*
X-359431Y-269249D01*
X-358852Y-268805D01*
X-358408Y-268227D01*
X-358130Y-267553D01*
X-358034Y-266831D01*
X-358130Y-266108D01*
X-358408Y-265435D01*
X-358852Y-264856D01*
X-359431Y-264412D01*
X-360104Y-264134D01*
X-360827Y-264038D01*
D02*
G37*
%LPD*%
G36*
X-274379Y-27234D02*
X-285236Y-38091D01*
X-296358Y-49213D01*
X-303642Y-56496D01*
X-342323D01*
Y-85532D01*
X-334350D01*
Y-100197D01*
X-336503Y-102350D01*
X-337008D01*
X-337736Y-102651D01*
X-338294Y-103208D01*
X-338595Y-103937D01*
Y-104442D01*
X-340440Y-106287D01*
X-340945D01*
X-341673Y-106588D01*
X-342231Y-107146D01*
X-342270Y-107240D01*
X-342770D01*
X-342809Y-107146D01*
X-343366Y-106588D01*
X-344094Y-106287D01*
X-344882D01*
X-345610Y-106588D01*
X-346168Y-107146D01*
X-346207Y-107240D01*
X-346707D01*
X-346746Y-107146D01*
X-347303Y-106588D01*
X-348031Y-106287D01*
X-348819D01*
X-349547Y-106588D01*
X-350105Y-107146D01*
X-350144Y-107240D01*
X-350644D01*
X-350683Y-107146D01*
X-351240Y-106588D01*
X-351968Y-106287D01*
X-352756D01*
X-353484Y-106588D01*
X-354042Y-107146D01*
X-354081Y-107240D01*
X-354581D01*
X-354620Y-107146D01*
X-355177Y-106588D01*
X-355905Y-106287D01*
X-356693D01*
X-357421Y-106588D01*
X-357979Y-107146D01*
X-358280Y-107874D01*
Y-108662D01*
X-358327Y-108732D01*
X-385138D01*
Y-104232D01*
X-371161D01*
Y-98917D01*
Y-97539D01*
X-380118Y-87333D01*
Y-36368D01*
X-372342D01*
Y-41732D01*
X-357972D01*
X-351969Y-35728D01*
X-351870Y-35827D01*
X-313681D01*
X-304429Y-26772D01*
X-274571D01*
X-274379Y-27234D01*
D02*
G37*
G36*
X-180610Y-70177D02*
X-201181D01*
X-201572Y-70613D01*
X-201823D01*
X-202552Y-70915D01*
X-203109Y-71472D01*
X-203411Y-72200D01*
Y-72661D01*
X-222736Y-94193D01*
X-233169D01*
Y-85827D01*
X-230020Y-79104D01*
Y-40059D01*
X-203839Y-25708D01*
X-180610D01*
Y-70177D01*
D02*
G37*
G36*
X-77165Y-54035D02*
Y-73425D01*
X-72047Y-78543D01*
Y-98819D01*
X-87500D01*
X-99114Y-94095D01*
Y-56004D01*
X-104331Y-50787D01*
X-122539Y-32579D01*
X-120669Y-30709D01*
X-117520Y-27559D01*
X-103642D01*
X-77165Y-54035D01*
D02*
G37*
G36*
X-364075Y-127362D02*
X-370472D01*
Y-123721D01*
X-372672D01*
X-372916Y-123557D01*
X-373228Y-123495D01*
X-385138D01*
Y-119291D01*
X-364075D01*
Y-127362D01*
D02*
G37*
G36*
X-326083Y-145177D02*
X-344096D01*
X-346001Y-147082D01*
X-345965Y-147119D01*
Y-162008D01*
X-365945D01*
X-385138Y-142815D01*
Y-129724D01*
X-357199D01*
X-356693Y-129934D01*
X-355905D01*
X-355399Y-129724D01*
X-353262D01*
X-352756Y-129934D01*
X-351968D01*
X-351463Y-129724D01*
X-349325D01*
X-348819Y-129934D01*
X-348031D01*
X-347526Y-129724D01*
X-345388D01*
X-344882Y-129934D01*
X-344094D01*
X-343588Y-129724D01*
X-341451D01*
X-340945Y-129934D01*
X-340157D01*
X-339651Y-129724D01*
X-337514D01*
X-337008Y-129934D01*
X-336220D01*
X-335715Y-129724D01*
X-333577D01*
X-333071Y-129934D01*
X-332283D01*
X-331778Y-129724D01*
X-329640D01*
X-329134Y-129934D01*
X-328346D01*
X-327840Y-129724D01*
X-326083D01*
Y-145177D01*
D02*
G37*
G36*
X-181269Y-107155D02*
X-200591Y-126476D01*
X-200591Y-143209D01*
X-222244D01*
Y-128839D01*
X-233465D01*
Y-123721D01*
X-219587D01*
X-213089Y-113945D01*
X-212846D01*
X-212118Y-113644D01*
X-211561Y-113086D01*
X-211259Y-112358D01*
Y-111570D01*
X-211355Y-111338D01*
X-208268Y-106693D01*
X-181460D01*
X-181269Y-107155D01*
D02*
G37*
G36*
X-168482Y-235188D02*
X-168445Y-235373D01*
X-168691Y-235838D01*
X-168879Y-236073D01*
X-173609D01*
Y-234830D01*
X-180721D01*
Y-235308D01*
X-185519D01*
Y-234830D01*
X-188605D01*
X-195920Y-227515D01*
X-196663Y-227018D01*
X-197539Y-226844D01*
X-204739D01*
X-204934Y-226410D01*
X-204995Y-226144D01*
X-204592Y-225541D01*
X-204438Y-224768D01*
X-204592Y-223995D01*
X-205030Y-223340D01*
X-205685Y-222902D01*
X-206458Y-222748D01*
X-207231Y-222902D01*
X-207360Y-222988D01*
X-223322D01*
X-223697Y-222288D01*
X-223571Y-221654D01*
X-223724Y-220881D01*
X-224162Y-220225D01*
X-224818Y-219787D01*
X-225590Y-219634D01*
X-226363Y-219787D01*
X-226492Y-219873D01*
X-242214D01*
X-242496Y-219345D01*
X-242516Y-219173D01*
X-242374Y-218460D01*
X-242472Y-217970D01*
X-242029Y-217270D01*
X-226536D01*
X-225562Y-217076D01*
X-224736Y-216524D01*
X-219399Y-211187D01*
X-219199Y-210888D01*
X-210292D01*
X-207556Y-213623D01*
X-207487Y-214147D01*
X-207079Y-215132D01*
X-206430Y-215978D01*
X-205585Y-216627D01*
X-204600Y-217034D01*
X-203543Y-217174D01*
X-202487Y-217034D01*
X-201502Y-216627D01*
X-200656Y-215978D01*
X-200394Y-215635D01*
X-191507D01*
X-175656Y-231487D01*
X-175572Y-232122D01*
X-175293Y-232795D01*
X-174850Y-233373D01*
X-174271Y-233817D01*
X-173598Y-234096D01*
X-172875Y-234191D01*
X-172152Y-234096D01*
X-171479Y-233817D01*
X-170901Y-233373D01*
X-170457Y-232795D01*
X-170178Y-232122D01*
X-170083Y-231399D01*
X-170178Y-230676D01*
X-170457Y-230003D01*
X-170658Y-229740D01*
X-170703Y-229515D01*
X-171255Y-228689D01*
X-188653Y-211291D01*
X-189479Y-210739D01*
X-190453Y-210546D01*
X-200394D01*
X-200656Y-210204D01*
X-201502Y-209555D01*
X-202487Y-209147D01*
X-203543Y-209008D01*
X-204600Y-209147D01*
X-204766Y-209215D01*
X-207438Y-206543D01*
X-208263Y-205991D01*
X-209237Y-205798D01*
X-218196D01*
Y-204318D01*
X-222749D01*
Y-206158D01*
X-222998Y-206407D01*
X-223550Y-207233D01*
X-223744Y-208207D01*
Y-208334D01*
X-227590Y-212180D01*
X-253467D01*
X-267957Y-197690D01*
X-267612Y-197045D01*
X-267323Y-197102D01*
X-266473Y-196933D01*
X-266067Y-196662D01*
X-260249D01*
Y-198438D01*
X-254712D01*
Y-191326D01*
X-260249D01*
Y-193102D01*
X-266067D01*
X-266473Y-192830D01*
X-267323Y-192661D01*
X-268173Y-192830D01*
X-268893Y-193312D01*
X-269374Y-194032D01*
X-269543Y-194882D01*
X-269486Y-195171D01*
X-270131Y-195516D01*
X-274776Y-190871D01*
X-275601Y-190320D01*
X-275967Y-190247D01*
X-275898Y-189547D01*
X-168482D01*
Y-235188D01*
D02*
G37*
G36*
X-332312Y-188731D02*
X-332250Y-189043D01*
X-332073Y-189308D01*
X-331808Y-189485D01*
X-331496Y-189547D01*
X-324836D01*
X-324264Y-190247D01*
X-324291Y-190454D01*
X-324196Y-191176D01*
X-323917Y-191850D01*
X-323805Y-191996D01*
Y-193295D01*
X-324028D01*
Y-200406D01*
X-318491D01*
Y-199395D01*
X-310308D01*
X-310040Y-200042D01*
X-316092Y-206094D01*
X-318491D01*
Y-205105D01*
X-324028D01*
Y-212217D01*
X-319268D01*
X-318978Y-212917D01*
X-321443Y-215383D01*
X-321829Y-215960D01*
X-321965Y-216641D01*
Y-216916D01*
X-324028D01*
Y-224028D01*
X-318607D01*
Y-227113D01*
X-320222Y-228728D01*
X-324028D01*
Y-235839D01*
X-318491D01*
Y-232033D01*
X-315568Y-229110D01*
X-315182Y-228532D01*
X-315047Y-227851D01*
Y-217958D01*
X-299775Y-202686D01*
X-297112D01*
X-296699Y-203386D01*
X-296824Y-204015D01*
X-296655Y-204865D01*
X-296384Y-205271D01*
Y-207646D01*
X-303127Y-214389D01*
X-303606Y-214484D01*
X-304326Y-214965D01*
X-304807Y-215686D01*
X-304977Y-216535D01*
X-304807Y-217385D01*
X-304326Y-218106D01*
X-303606Y-218587D01*
X-302756Y-218756D01*
X-301906Y-218587D01*
X-301186Y-218106D01*
X-300704Y-217385D01*
X-300609Y-216906D01*
X-293345Y-209642D01*
X-292959Y-209064D01*
X-292823Y-208383D01*
Y-205271D01*
X-292552Y-204865D01*
X-292383Y-204015D01*
X-292508Y-203386D01*
X-292095Y-202686D01*
X-288921D01*
X-288591Y-203303D01*
X-288652Y-203395D01*
X-288821Y-204245D01*
X-288652Y-205095D01*
X-288381Y-205501D01*
Y-212319D01*
X-292283Y-216222D01*
X-292762Y-216317D01*
X-293483Y-216798D01*
X-293964Y-217519D01*
X-294133Y-218369D01*
X-293964Y-219218D01*
X-293483Y-219939D01*
X-292762Y-220420D01*
X-291913Y-220589D01*
X-291063Y-220420D01*
X-290342Y-219939D01*
X-289861Y-219218D01*
X-289766Y-218740D01*
X-285342Y-214316D01*
X-284956Y-213738D01*
X-284821Y-213057D01*
Y-205501D01*
X-284549Y-205095D01*
X-284380Y-204245D01*
X-284549Y-203395D01*
X-284611Y-203303D01*
X-284281Y-202686D01*
X-282903D01*
X-259562Y-226027D01*
X-259387Y-226144D01*
X-259599Y-226844D01*
X-268737D01*
X-270667Y-224913D01*
X-270601Y-224410D01*
X-270730Y-223424D01*
X-271111Y-222505D01*
X-271716Y-221716D01*
X-272505Y-221111D01*
X-273424Y-220730D01*
X-274410Y-220601D01*
X-275395Y-220730D01*
X-276314Y-221111D01*
X-277103Y-221716D01*
X-277708Y-222505D01*
X-278089Y-223424D01*
X-278218Y-224410D01*
X-278194Y-224595D01*
X-283492Y-229893D01*
X-284044Y-230719D01*
X-284238Y-231693D01*
Y-236602D01*
X-284461D01*
Y-243713D01*
X-284238D01*
Y-246919D01*
X-285910D01*
Y-252456D01*
X-278798D01*
Y-251977D01*
X-278033D01*
X-275044Y-254967D01*
Y-284797D01*
X-278901Y-288655D01*
X-323067D01*
X-327631Y-284091D01*
Y-251969D01*
X-327805Y-251092D01*
X-328302Y-250349D01*
X-341294Y-237357D01*
X-342037Y-236861D01*
X-342913Y-236686D01*
X-354248D01*
X-354415Y-236558D01*
X-355088Y-236279D01*
X-355811Y-236184D01*
X-356534Y-236279D01*
X-357207Y-236558D01*
X-357786Y-237002D01*
X-358229Y-237580D01*
X-358427Y-238058D01*
X-359127Y-237919D01*
Y-193307D01*
X-359127Y-193307D01*
X-359302Y-192431D01*
X-359798Y-191688D01*
X-365226Y-186260D01*
X-364936Y-185560D01*
X-332312D01*
Y-188731D01*
D02*
G37*
G36*
X-373228Y-128740D02*
X-386614D01*
Y-143701D01*
X-359744Y-170571D01*
X-331496D01*
Y-161024D01*
X-315158D01*
Y-176083D01*
X-237500D01*
X-237500Y-169243D01*
X-242618Y-169243D01*
Y-145846D01*
X-233611Y-136346D01*
X-233611Y-130562D01*
X-224279D01*
X-224064Y-131054D01*
Y-150247D01*
X-221752Y-153395D01*
Y-174803D01*
X-151772D01*
Y-185403D01*
X-151784Y-185433D01*
Y-186221D01*
X-151772Y-186251D01*
Y-203513D01*
X-151784Y-203543D01*
Y-204331D01*
X-151772Y-204361D01*
Y-220424D01*
X-103198D01*
Y-188695D01*
X-102841Y-188344D01*
X-82529Y-188731D01*
Y-235188D01*
X-167666D01*
Y-188731D01*
X-319305D01*
X-319798Y-188238D01*
X-320430Y-187874D01*
X-321134Y-187685D01*
X-321863D01*
X-322567Y-187874D01*
X-323198Y-188238D01*
X-323691Y-188731D01*
X-331496D01*
Y-184744D01*
X-365650D01*
X-397539Y-152854D01*
Y-124311D01*
X-373228D01*
Y-128740D01*
D02*
G37*
G36*
X-3543Y-191339D02*
X-35039D01*
Y-228740D01*
X-13484D01*
Y-250394D01*
X-65354D01*
Y-222342D01*
X-80020D01*
Y-208858D01*
X-46216D01*
Y-205512D01*
Y-182677D01*
X-3543D01*
Y-191339D01*
D02*
G37*
G36*
X-78150Y-251969D02*
X-101181D01*
Y-281693D01*
X-115256D01*
Y-239764D01*
X-78150D01*
Y-251969D01*
D02*
G37*
G36*
X-67323Y-281988D02*
X-99213D01*
Y-263386D01*
X-67323D01*
Y-281988D01*
D02*
G37*
%LPC*%
G36*
X-203543Y-190504D02*
X-204600Y-190643D01*
X-205585Y-191051D01*
X-206235Y-191550D01*
X-218196D01*
Y-190932D01*
X-222749D01*
Y-192059D01*
X-223622D01*
X-224401Y-192214D01*
X-225061Y-192655D01*
X-229189Y-196784D01*
X-232087D01*
X-232358Y-196838D01*
X-235347D01*
Y-200800D01*
X-232358D01*
X-232087Y-200854D01*
X-228346D01*
X-227568Y-200699D01*
X-226907Y-200258D01*
X-223449Y-196799D01*
X-222749Y-197089D01*
Y-197257D01*
X-218196D01*
Y-196640D01*
X-207070D01*
X-206430Y-197474D01*
X-205585Y-198123D01*
X-204600Y-198530D01*
X-203543Y-198670D01*
X-202487Y-198530D01*
X-201502Y-198123D01*
X-200656Y-197474D01*
X-200007Y-196628D01*
X-199600Y-195643D01*
X-199460Y-194587D01*
X-199600Y-193530D01*
X-200007Y-192545D01*
X-200656Y-191700D01*
X-201502Y-191051D01*
X-202487Y-190643D01*
X-203543Y-190504D01*
D02*
G37*
G36*
X-247232Y-191326D02*
X-252768D01*
Y-198438D01*
X-252035D01*
Y-200184D01*
X-253556D01*
Y-205721D01*
X-246444D01*
Y-200184D01*
X-247965D01*
Y-198438D01*
X-247232D01*
Y-196917D01*
X-243615D01*
Y-197040D01*
X-240626D01*
X-240354Y-197094D01*
X-240083Y-197040D01*
X-237094D01*
Y-193078D01*
X-239638D01*
X-239753Y-193002D01*
X-240531Y-192847D01*
X-247232D01*
Y-191326D01*
D02*
G37*
G36*
X-325972Y-193295D02*
X-331509D01*
Y-195070D01*
X-334532D01*
X-334660Y-194984D01*
X-335433Y-194831D01*
X-336206Y-194984D01*
X-336335Y-195070D01*
X-339751D01*
Y-193295D01*
X-345288D01*
Y-200406D01*
X-339751D01*
Y-198631D01*
X-336335D01*
X-336206Y-198716D01*
X-335433Y-198870D01*
X-334660Y-198716D01*
X-334532Y-198631D01*
X-331509D01*
Y-200406D01*
X-325972D01*
Y-193295D01*
D02*
G37*
G36*
Y-205105D02*
X-331509D01*
Y-206881D01*
X-334532D01*
X-334660Y-206795D01*
X-335433Y-206642D01*
X-336206Y-206795D01*
X-336335Y-206881D01*
X-339751D01*
Y-205105D01*
X-345288D01*
Y-212217D01*
X-339751D01*
Y-210442D01*
X-336335D01*
X-336206Y-210528D01*
X-335433Y-210681D01*
X-334660Y-210528D01*
X-334532Y-210442D01*
X-331509D01*
Y-212217D01*
X-325972D01*
Y-205105D01*
D02*
G37*
G36*
Y-216916D02*
X-331509D01*
Y-218692D01*
X-334532D01*
X-334660Y-218606D01*
X-335433Y-218453D01*
X-336206Y-218606D01*
X-336335Y-218692D01*
X-339751D01*
Y-216916D01*
X-345288D01*
Y-224028D01*
X-339751D01*
Y-222253D01*
X-336335D01*
X-336206Y-222339D01*
X-335433Y-222492D01*
X-334660Y-222339D01*
X-334532Y-222253D01*
X-331509D01*
Y-224028D01*
X-325972D01*
Y-216916D01*
D02*
G37*
G36*
X-285433Y-220601D02*
X-286419Y-220730D01*
X-287338Y-221111D01*
X-288126Y-221716D01*
X-288732Y-222505D01*
X-289112Y-223424D01*
X-289242Y-224410D01*
X-289134Y-225232D01*
X-290612Y-226711D01*
X-291054Y-227371D01*
X-291208Y-228150D01*
Y-236602D01*
X-291942D01*
Y-243713D01*
X-286405D01*
Y-236602D01*
X-287138D01*
Y-228993D01*
X-286256Y-228110D01*
X-285433Y-228218D01*
X-284447Y-228089D01*
X-283529Y-227708D01*
X-282740Y-227103D01*
X-282134Y-226314D01*
X-281754Y-225395D01*
X-281624Y-224410D01*
X-281754Y-223424D01*
X-282134Y-222505D01*
X-282740Y-221716D01*
X-283529Y-221111D01*
X-284447Y-220730D01*
X-285433Y-220601D01*
D02*
G37*
G36*
X-325972Y-228728D02*
X-331509D01*
Y-230540D01*
X-336590D01*
X-336894Y-230336D01*
X-337667Y-230183D01*
X-338440Y-230336D01*
X-338744Y-230540D01*
X-340145D01*
Y-228728D01*
X-345682D01*
Y-235839D01*
X-340145D01*
Y-234100D01*
X-338282D01*
X-337667Y-234223D01*
X-337052Y-234100D01*
X-331509D01*
Y-235839D01*
X-325972D01*
Y-228728D01*
D02*
G37*
G36*
X-301575Y-238940D02*
X-302297Y-239035D01*
X-302971Y-239314D01*
X-303549Y-239758D01*
X-303993Y-240336D01*
X-304272Y-241010D01*
X-304367Y-241732D01*
X-304272Y-242455D01*
X-304120Y-242823D01*
Y-246838D01*
X-305131D01*
Y-252375D01*
X-298019D01*
Y-246838D01*
X-299030D01*
Y-242823D01*
X-298878Y-242455D01*
X-298782Y-241732D01*
X-298878Y-241010D01*
X-299156Y-240336D01*
X-299600Y-239758D01*
X-300179Y-239314D01*
X-300852Y-239035D01*
X-301575Y-238940D01*
D02*
G37*
G36*
X-320249Y-239047D02*
X-320971Y-239142D01*
X-321645Y-239421D01*
X-322223Y-239865D01*
X-322667Y-240443D01*
X-322946Y-241116D01*
X-323041Y-241839D01*
X-322946Y-242562D01*
X-322794Y-242930D01*
Y-246838D01*
X-323832D01*
Y-252375D01*
X-316720D01*
Y-246838D01*
X-317704D01*
Y-242930D01*
X-317551Y-242562D01*
X-317456Y-241839D01*
X-317551Y-241116D01*
X-317830Y-240443D01*
X-318274Y-239865D01*
X-318852Y-239421D01*
X-319526Y-239142D01*
X-320249Y-239047D01*
D02*
G37*
G36*
X-298019Y-254318D02*
X-305131D01*
Y-259855D01*
X-304120D01*
Y-269476D01*
X-305328D01*
Y-276587D01*
X-297822D01*
Y-269476D01*
X-299030D01*
Y-259855D01*
X-298019D01*
Y-254318D01*
D02*
G37*
G36*
X-316720D02*
X-323832D01*
Y-259855D01*
X-322820D01*
Y-269476D01*
X-324028D01*
Y-276587D01*
X-316523D01*
Y-269476D01*
X-317731D01*
Y-259855D01*
X-316720D01*
Y-254318D01*
D02*
G37*
G36*
X-278798Y-254399D02*
X-285910D01*
Y-259936D01*
X-284899D01*
Y-269557D01*
X-286107D01*
Y-276669D01*
X-278602D01*
Y-269557D01*
X-279809D01*
Y-259936D01*
X-278798D01*
Y-254399D01*
D02*
G37*
%LPD*%
G36*
X-73721Y-108169D02*
X-70177Y-111713D01*
X-53937D01*
Y-116634D01*
X-66240D01*
X-67716Y-118110D01*
X-81012Y-129429D01*
X-126576D01*
X-126604Y-129401D01*
X-127332Y-129099D01*
X-128120D01*
X-128848Y-129401D01*
X-128877Y-129429D01*
X-129592D01*
Y-110728D01*
X-96555D01*
X-87205Y-101378D01*
X-73721D01*
Y-108169D01*
D02*
G37*
G36*
X-53937Y-136122D02*
X-66732D01*
Y-173721D01*
X-121466D01*
X-116555Y-183465D01*
Y-200394D01*
X-124213D01*
Y-217323D01*
X-144882D01*
Y-162598D01*
X-125770D01*
Y-162970D01*
X-125469Y-163698D01*
X-124911Y-164256D01*
X-124183Y-164557D01*
X-123395D01*
X-122667Y-164256D01*
X-122110Y-163698D01*
X-122071Y-163604D01*
X-121571D01*
X-121532Y-163698D01*
X-120974Y-164256D01*
X-120246Y-164557D01*
X-119458D01*
X-118730Y-164256D01*
X-118173Y-163698D01*
X-118134Y-163604D01*
X-117634D01*
X-117595Y-163698D01*
X-117037Y-164256D01*
X-116309Y-164557D01*
X-115521D01*
X-114793Y-164256D01*
X-114236Y-163698D01*
X-114197Y-163604D01*
X-113697D01*
X-113658Y-163698D01*
X-113100Y-164256D01*
X-112372Y-164557D01*
X-111584D01*
X-110856Y-164256D01*
X-110299Y-163698D01*
X-110260Y-163604D01*
X-109760D01*
X-109721Y-163698D01*
X-109163Y-164256D01*
X-108435Y-164557D01*
X-107647D01*
X-106919Y-164256D01*
X-106362Y-163698D01*
X-106323Y-163604D01*
X-105823D01*
X-105784Y-163698D01*
X-105226Y-164256D01*
X-104498Y-164557D01*
X-103710D01*
X-102982Y-164256D01*
X-102425Y-163698D01*
X-102386Y-163604D01*
X-101886D01*
X-101847Y-163698D01*
X-101289Y-164256D01*
X-100561Y-164557D01*
X-99773D01*
X-99045Y-164256D01*
X-98488Y-163698D01*
X-98449Y-163604D01*
X-97949D01*
X-97910Y-163698D01*
X-97352Y-164256D01*
X-96624Y-164557D01*
X-95836D01*
X-95108Y-164256D01*
X-94551Y-163698D01*
X-94512Y-163604D01*
X-94011D01*
X-93972Y-163698D01*
X-93415Y-164256D01*
X-92687Y-164557D01*
X-91899D01*
X-91171Y-164256D01*
X-90614Y-163698D01*
X-90575Y-163604D01*
X-90074D01*
X-90035Y-163698D01*
X-89478Y-164256D01*
X-88750Y-164557D01*
X-87962D01*
X-87234Y-164256D01*
X-86677Y-163698D01*
X-86638Y-163604D01*
X-86137D01*
X-86098Y-163698D01*
X-85541Y-164256D01*
X-84813Y-164557D01*
X-84025D01*
X-83297Y-164256D01*
X-82740Y-163698D01*
X-82701Y-163604D01*
X-82200D01*
X-82161Y-163698D01*
X-81604Y-164256D01*
X-80876Y-164557D01*
X-80088D01*
X-79360Y-164256D01*
X-78803Y-163698D01*
X-78501Y-162970D01*
Y-162598D01*
X-73917D01*
Y-130807D01*
X-60236D01*
Y-118110D01*
X-53937D01*
Y-136122D01*
D02*
G37*
G36*
X-3543Y-151870D02*
X-49114D01*
Y-168110D01*
X-3543D01*
Y-176673D01*
X-49114D01*
Y-202658D01*
X-80020D01*
Y-189075D01*
X-62500D01*
Y-143405D01*
X-3543D01*
Y-151870D01*
D02*
G37*
%LPC*%
G36*
X-466917Y-92704D02*
X-474028D01*
Y-100209D01*
X-466917D01*
Y-98492D01*
X-463398D01*
Y-100013D01*
X-457861D01*
Y-92901D01*
X-463398D01*
Y-94421D01*
X-466917D01*
Y-92704D01*
D02*
G37*
G36*
Y-104515D02*
X-474028D01*
Y-112021D01*
X-466917D01*
Y-110303D01*
X-463398D01*
Y-111824D01*
X-457861D01*
Y-104712D01*
X-463398D01*
Y-106233D01*
X-466917D01*
Y-104515D01*
D02*
G37*
G36*
X-479724Y-126932D02*
X-480447Y-127027D01*
X-481121Y-127306D01*
X-481699Y-127750D01*
X-482143Y-128328D01*
X-482422Y-129002D01*
X-482517Y-129724D01*
X-482490Y-129928D01*
X-502876Y-150313D01*
X-503183Y-150354D01*
X-503857Y-150633D01*
X-504435Y-151077D01*
X-504879Y-151655D01*
X-505158Y-152329D01*
X-505253Y-153051D01*
X-505158Y-153774D01*
X-504879Y-154447D01*
X-504435Y-155026D01*
X-503857Y-155470D01*
X-503183Y-155748D01*
X-502461Y-155844D01*
X-501738Y-155748D01*
X-501064Y-155470D01*
X-500486Y-155026D01*
X-500042Y-154447D01*
X-499763Y-153774D01*
X-499749Y-153664D01*
X-478380Y-132295D01*
X-478380Y-132295D01*
X-478226Y-132064D01*
X-477750Y-131699D01*
X-477306Y-131121D01*
X-477027Y-130447D01*
X-476932Y-129724D01*
X-477027Y-129002D01*
X-477306Y-128328D01*
X-477750Y-127750D01*
X-478328Y-127306D01*
X-479002Y-127027D01*
X-479724Y-126932D01*
D02*
G37*
%LPD*%
D14*
X-478150Y-179772D02*
Y-177725D01*
X-482129Y-177635D02*
X-478240D01*
X-478150Y-177725D01*
X-482992Y-176772D02*
X-482129Y-177635D01*
X-450866Y-214567D02*
Y-207512D01*
X-456496Y-219811D02*
X-455205Y-221102D01*
X-456496Y-219811D02*
Y-213142D01*
X-455205Y-221102D02*
X-454724D01*
X-161024Y-248130D02*
X-160344Y-247451D01*
X-150206D01*
X-485513Y-208788D02*
Y-207374D01*
X-485422Y-207283D02*
X-484008D01*
X-488929Y-212205D02*
X-485513Y-208788D01*
Y-207374D02*
X-485422Y-207283D01*
X-470269Y-179765D02*
Y-175387D01*
X-468110Y-173228D01*
X-442812Y-201382D02*
X-441977Y-202218D01*
X-450633Y-201382D02*
X-442812D01*
X-450625Y-203359D02*
X-443755D01*
X-442848Y-204267D01*
X-472244Y-172987D02*
X-471528Y-172271D01*
X-472244Y-179772D02*
Y-172987D01*
X-471528Y-172271D02*
Y-171902D01*
X-462402Y-171240D02*
X-462325Y-171164D01*
X-462402Y-179772D02*
Y-171240D01*
X-446995Y-187596D02*
X-445710Y-186311D01*
Y-181962D01*
X-450636Y-187596D02*
X-446995D01*
X-436895Y-204267D02*
X-434842Y-206320D01*
X-442848Y-204267D02*
X-436895D01*
X-434842Y-215551D02*
Y-206320D01*
X-441977Y-202218D02*
X-429399D01*
X-422146Y-209471D01*
Y-215650D02*
Y-209471D01*
X-428544Y-200196D02*
X-419615Y-209125D01*
X-441049Y-200196D02*
X-428544D01*
X-441835Y-199409D02*
X-441049Y-200196D01*
X-429399Y-198175D02*
X-427650Y-196425D01*
X-440830Y-197441D02*
X-440096Y-198175D01*
X-429399D01*
X-427650Y-196425D02*
Y-181783D01*
X-450638Y-197441D02*
X-440830D01*
X-427650Y-181783D02*
X-426181Y-180315D01*
X-450638Y-199409D02*
X-441835D01*
X-467990Y-194981D02*
X-467729Y-195242D01*
X-468065Y-193965D02*
X-467990Y-194041D01*
Y-194981D02*
Y-194041D01*
X-468065Y-193965D02*
Y-193959D01*
X-474058Y-198033D02*
Y-197320D01*
X-474251Y-198226D02*
X-474058Y-198033D01*
X-470705Y-196591D02*
Y-195669D01*
X-470620Y-195585D02*
Y-194582D01*
X-470705Y-195669D02*
X-470620Y-195585D01*
X-470965Y-196852D02*
X-470705Y-196591D01*
X-475635Y-189567D02*
X-470620Y-194582D01*
X-473865Y-197127D02*
Y-194304D01*
X-474058Y-197320D02*
X-473865Y-197127D01*
X-477236Y-199500D02*
Y-195017D01*
X-477470Y-199735D02*
X-477236Y-199500D01*
X-474426Y-187598D02*
X-468065Y-193959D01*
X-484008Y-187598D02*
X-474426D01*
X-484008Y-193504D02*
X-478748D01*
X-477236Y-195017D01*
X-476633Y-191535D02*
X-473865Y-194304D01*
X-484008Y-191535D02*
X-476633D01*
X-484008Y-189567D02*
X-475635D01*
X-472571Y-168622D02*
Y-167127D01*
X-472423Y-166978D01*
X-474213Y-170263D02*
X-472571Y-168622D01*
X-474213Y-179772D02*
Y-170263D01*
X-460433Y-231299D02*
X-449677Y-242055D01*
X-424874D02*
X-422835Y-244094D01*
X-449677Y-242055D02*
X-424874D01*
X-425821Y-244257D02*
X-423622Y-246457D01*
X-450625Y-244257D02*
X-425821D01*
X-462402Y-232480D02*
X-450625Y-244257D01*
X-428740Y-246457D02*
X-427008Y-248189D01*
X-464370Y-233661D02*
X-451575Y-246457D01*
X-428740D01*
X-282354Y-249687D02*
X-282161D01*
X-419615Y-209125D02*
X-407374D01*
X-486614Y-36220D02*
X-479686Y-29293D01*
X-475591Y-24093D02*
Y-20446D01*
X-476490Y-24993D02*
X-475591Y-24093D01*
X-477763Y-24993D02*
X-476490D01*
X-478688Y-24068D02*
X-477763Y-24993D01*
X-479961Y-24068D02*
X-478688D01*
X-480809Y-24917D02*
X-479961Y-24068D01*
X-480809Y-26189D02*
Y-24917D01*
Y-26189D02*
X-479333Y-27666D01*
Y-28939D02*
Y-27666D01*
X-479686Y-29293D02*
X-479333Y-28939D01*
X-475591Y-20446D02*
Y-17913D01*
X-486614Y-43701D02*
Y-36220D01*
X-488098Y-45185D02*
X-486614Y-43701D01*
X-491732Y-45571D02*
X-491347Y-45185D01*
X-488098D01*
X-491732Y-48130D02*
X-487106D01*
X-484252Y-45276D02*
Y-36614D01*
X-487106Y-48130D02*
X-484252Y-45276D01*
Y-36614D02*
X-473032Y-25394D01*
Y-17913D01*
X-476181Y-184449D02*
Y-179772D01*
X-491732Y-205906D02*
X-491142Y-205315D01*
X-484008D01*
X-177165Y-251969D02*
Y-244135D01*
Y-252099D02*
Y-251969D01*
X-175644Y-253621D02*
X-159072D01*
X-154861Y-249409D02*
X-150197D01*
X-159072Y-253621D02*
X-154861Y-249409D01*
X-177165Y-252099D02*
X-175644Y-253621D01*
X-188976Y-255512D02*
X-188640Y-255848D01*
X-189075Y-255413D02*
X-188976Y-255512D01*
X-188640Y-255848D02*
X-187570D01*
X-187513Y-255906D01*
X-189075Y-255413D02*
Y-245079D01*
X-187513Y-255906D02*
X-158071D01*
X-455820Y-176311D02*
X-449537D01*
X-456405Y-179681D02*
Y-176896D01*
X-455820Y-176311D01*
X-441168Y-158097D02*
X-440945Y-157874D01*
X-447638Y-163386D02*
X-442349Y-158097D01*
X-447638Y-173622D02*
Y-163386D01*
X-442349Y-158097D02*
X-441168D01*
X-456693Y-193701D02*
Y-185830D01*
X-456502Y-185640D01*
X-462577Y-187959D02*
Y-187817D01*
X-466339Y-184055D02*
X-462577Y-187817D01*
X-468307Y-185984D02*
Y-179772D01*
Y-185984D02*
X-462503Y-191788D01*
X-41339Y-56299D02*
X-40622Y-55583D01*
X-445733Y-181939D02*
X-445710Y-181962D01*
X-450638Y-185630D02*
Y-179606D01*
X-447638Y-173622D02*
X-442828Y-178431D01*
Y-186923D02*
Y-178431D01*
X-445472Y-189567D02*
X-442828Y-186923D01*
X-450638Y-189567D02*
X-445472D01*
X-456496Y-179772D02*
X-456405Y-179681D01*
X-466339Y-184055D02*
Y-179772D01*
X-465748Y-174409D02*
X-464383Y-175775D01*
Y-179759D02*
Y-175775D01*
Y-179759D02*
X-464370Y-179772D01*
X-454921Y-195473D02*
X-450638D01*
X-456693Y-193701D02*
X-454921Y-195473D01*
X-433937Y-181011D02*
Y-171339D01*
X-444461Y-191535D02*
X-433937Y-181011D01*
X-450638Y-191535D02*
X-444461D01*
X-489182Y-213011D02*
X-488867Y-213326D01*
X-460433Y-179772D02*
Y-173031D01*
X-456299Y-168898D01*
X-458465Y-179772D02*
Y-174606D01*
X-453543Y-169685D02*
Y-166142D01*
X-458465Y-174606D02*
X-453543Y-169685D01*
X-468110Y-173228D02*
Y-166626D01*
X-466642Y-165157D02*
X-466043D01*
X-468110Y-166626D02*
X-466642Y-165157D01*
X-320276Y-249606D02*
X-320249Y-249579D01*
X-301575Y-241732D02*
X-301575Y-241732D01*
X-387402Y-280079D02*
X-380079Y-287402D01*
X-400787Y-244094D02*
X-387402Y-257480D01*
Y-280079D02*
Y-257480D01*
X-422835Y-244094D02*
X-400787D01*
X-460433Y-231299D02*
Y-213142D01*
X-462402Y-232480D02*
Y-213142D01*
X-427008Y-251969D02*
Y-248189D01*
X-390079Y-287402D02*
Y-257953D01*
X-401575Y-246457D02*
X-390079Y-257953D01*
X-423622Y-246457D02*
X-401575D01*
X-532677Y-129921D02*
X-517717Y-144882D01*
Y-189370D02*
Y-144882D01*
X-537795Y-129921D02*
X-532677D01*
X-541732Y-115354D02*
X-540284Y-113906D01*
X-541732Y-125984D02*
X-537795Y-129921D01*
X-541732Y-125984D02*
Y-115354D01*
X-540284Y-113906D02*
X-533198D01*
X-531496Y-112205D01*
X-515354Y-188583D02*
Y-143701D01*
Y-188583D02*
X-508465Y-195473D01*
X-484008D01*
X-531496Y-127559D02*
X-515354Y-143701D01*
X-517717Y-189370D02*
X-509646Y-197441D01*
X-484008D01*
X-520079Y-190551D02*
Y-162047D01*
X-535433Y-146693D02*
X-520079Y-162047D01*
Y-190551D02*
X-511220Y-199409D01*
X-484008D01*
X-522441Y-191732D02*
Y-169685D01*
Y-191732D02*
X-512795Y-201378D01*
X-484008D01*
X-531496Y-127559D02*
Y-122205D01*
X-535433Y-156693D02*
X-522441Y-169685D01*
X-527165Y-190551D02*
X-514370Y-203346D01*
X-535433Y-190551D02*
X-527165D01*
X-514370Y-203346D02*
X-484008D01*
X-482677Y-236221D02*
X-478150Y-231693D01*
X-535433Y-200551D02*
X-499764Y-236221D01*
X-482677D01*
X-478150Y-231693D02*
Y-213142D01*
X-462205Y-269685D02*
Y-238976D01*
X-457213Y-280818D02*
X-454567Y-283465D01*
X-462205Y-269685D02*
X-457213Y-274676D01*
Y-280818D02*
Y-274676D01*
X-466339Y-234842D02*
X-462205Y-238976D01*
X-466339Y-234842D02*
Y-213142D01*
X-468307Y-236024D02*
X-464567Y-239764D01*
Y-282050D02*
Y-239764D01*
X-468307Y-236024D02*
Y-213142D01*
X-464370Y-233661D02*
Y-213142D01*
X-511024Y-238583D02*
X-481890D01*
X-535433Y-215433D02*
X-534173D01*
X-511024Y-238583D01*
X-476181Y-232874D02*
Y-213142D01*
X-481890Y-238583D02*
X-476181Y-232874D01*
X-474213Y-234055D02*
Y-213142D01*
X-481102Y-240945D02*
X-474213Y-234055D01*
X-519921Y-240945D02*
X-481102D01*
X-535433Y-225433D02*
X-519921Y-240945D01*
X-535433Y-235433D02*
X-527559Y-243307D01*
X-480315D02*
X-472244Y-235236D01*
X-527559Y-243307D02*
X-480315D01*
X-472244Y-235236D02*
Y-213142D01*
X-470276Y-236417D02*
Y-213142D01*
X-535433Y-245433D02*
X-479291D01*
X-470276Y-236417D01*
X-470866Y-279134D02*
X-467483D01*
X-478346Y-271654D02*
X-470866Y-279134D01*
X-467483D02*
X-464567Y-282050D01*
X-456693Y-293307D02*
X-455639Y-292253D01*
Y-284536D02*
X-454567Y-283465D01*
X-455639Y-292253D02*
Y-284536D01*
X-472284Y-293307D02*
X-456693D01*
X-477373Y-288217D02*
X-472284Y-293307D01*
X-482126Y-284879D02*
Y-283465D01*
Y-284879D02*
X-478787Y-288217D01*
X-477373D01*
X-490158Y-271654D02*
X-478346D01*
X-464567Y-283465D02*
Y-282050D01*
X-492126Y-273622D02*
X-490158Y-271654D01*
X-492126Y-283465D02*
Y-273622D01*
X-426968Y-251969D02*
X-426417Y-252520D01*
X-403937Y-176799D02*
X-400500Y-180236D01*
X-403937Y-176799D02*
Y-176575D01*
Y-213976D02*
X-402244Y-215669D01*
X-434744Y-215650D02*
X-434646Y-215748D01*
X-434842Y-215551D02*
X-434744Y-215650D01*
X-422244Y-215748D02*
X-422146Y-215650D01*
X-407374Y-209125D02*
X-403937Y-212562D01*
Y-213976D02*
Y-212562D01*
X-425699Y-171260D02*
X-425591Y-171152D01*
X-433937Y-171339D02*
X-433858Y-171260D01*
X-132874Y-251378D02*
X-131066D01*
X-128269Y-258266D02*
Y-255589D01*
X-131066Y-251378D02*
X-130975Y-251468D01*
Y-252883D02*
Y-251468D01*
Y-252883D02*
X-128269Y-255589D01*
Y-258266D02*
X-127087Y-259449D01*
X-68209Y-244882D02*
X-62454D01*
X-75492Y-237598D02*
X-68209Y-244882D01*
X-163681Y-237598D02*
X-155807Y-245472D01*
X-177165Y-237598D02*
X-163681D01*
X-470472Y-27461D02*
Y-17913D01*
X-473622Y-30610D02*
X-470472Y-27461D01*
X-473622Y-53445D02*
Y-30610D01*
X-478543Y-58366D02*
X-473622Y-53445D01*
X-491732Y-58366D02*
X-478543D01*
X-228744Y-100496D02*
X-228740Y-100492D01*
X-158071Y-255906D02*
X-153604Y-251439D01*
X-168504Y-248130D02*
Y-242520D01*
X-168504Y-242520D01*
X-132874Y-245472D02*
X-110433D01*
X-132874Y-243504D02*
X-121358D01*
X-150258Y-251439D02*
X-150197Y-251378D01*
X-153604Y-251439D02*
X-150258D01*
X-155807Y-245472D02*
X-150197D01*
X-121358Y-243504D02*
X-115453Y-237598D01*
X-75492D01*
X-138189Y-244090D02*
X-137603Y-243504D01*
X-138189Y-246855D02*
Y-244090D01*
X-137603Y-247441D02*
X-132874D01*
X-138189Y-246855D02*
X-137603Y-247441D01*
Y-243504D02*
X-132874D01*
X-254035Y-166043D02*
X-247933D01*
X-259941D02*
X-254035D01*
D70*
X-17717Y-17717D02*
D03*
Y-277559D02*
D03*
X-525591D02*
D03*
Y-17717D02*
D03*
D77*
X-403937Y-213976D02*
D03*
Y-176575D02*
D03*
D78*
X-422146Y-215650D02*
D03*
Y-193996D02*
D03*
X-434744D02*
D03*
Y-215650D02*
D03*
D79*
X-489764Y-128445D02*
D03*
X-460236D02*
D03*
D80*
X-350000Y-196850D02*
D03*
X-342520D02*
D03*
X-267421Y-166043D02*
D03*
X-259941D02*
D03*
X-417395Y-142935D02*
D03*
X-409915D02*
D03*
X-244980Y-91043D02*
D03*
X-252461D02*
D03*
X-328740Y-196850D02*
D03*
X-321260D02*
D03*
X-460630Y-108268D02*
D03*
X-453150D02*
D03*
X-460630Y-96457D02*
D03*
X-453150D02*
D03*
X-47736Y-78150D02*
D03*
X-40256D02*
D03*
X-56299Y-77953D02*
D03*
X-63779D02*
D03*
X-72047Y-69095D02*
D03*
X-79528D02*
D03*
X-161024Y-248130D02*
D03*
X-168504D02*
D03*
X-281693Y-240158D02*
D03*
X-289173D02*
D03*
X-247736Y-166043D02*
D03*
X-240256D02*
D03*
X-405315Y-251969D02*
D03*
X-412795D02*
D03*
X-418701Y-180315D02*
D03*
X-426181D02*
D03*
X-426968Y-251969D02*
D03*
X-419488D02*
D03*
X-443110D02*
D03*
X-435630D02*
D03*
X-458071Y-141043D02*
D03*
X-465551D02*
D03*
X-403055Y-142935D02*
D03*
X-395575D02*
D03*
X-350000Y-220472D02*
D03*
X-342520D02*
D03*
X-350000Y-208661D02*
D03*
X-342520D02*
D03*
X-350394Y-232283D02*
D03*
X-342913D02*
D03*
X-48819Y-56299D02*
D03*
X-41339D02*
D03*
X-328740Y-220472D02*
D03*
X-321260D02*
D03*
X-328740Y-208661D02*
D03*
X-321260D02*
D03*
X-250000Y-194882D02*
D03*
X-257480D02*
D03*
X-328740Y-232283D02*
D03*
X-321260D02*
D03*
X-33071Y-56299D02*
D03*
X-25591D02*
D03*
D81*
X-282354Y-257168D02*
D03*
Y-249687D02*
D03*
X-455118Y-47244D02*
D03*
Y-39764D02*
D03*
X-342520Y-13386D02*
D03*
Y-5906D02*
D03*
X-143701Y-267323D02*
D03*
Y-274803D02*
D03*
X-189075Y-237598D02*
D03*
Y-245079D02*
D03*
X-177165Y-237598D02*
D03*
Y-245079D02*
D03*
X-466043Y-157677D02*
D03*
Y-165157D02*
D03*
X-450787Y-128543D02*
D03*
Y-121063D02*
D03*
X-250000Y-210433D02*
D03*
Y-202953D02*
D03*
X-301575Y-257087D02*
D03*
Y-249606D02*
D03*
X-320276Y-257087D02*
D03*
Y-249606D02*
D03*
X-206496Y-257087D02*
D03*
Y-249606D02*
D03*
X-225787Y-257087D02*
D03*
Y-249606D02*
D03*
X-244488Y-257087D02*
D03*
Y-249606D02*
D03*
X-263189Y-257087D02*
D03*
Y-249606D02*
D03*
D82*
X-62454Y-244882D02*
D03*
X-80853D02*
D03*
D83*
X-282354Y-284924D02*
D03*
Y-273113D02*
D03*
X-301575Y-284842D02*
D03*
Y-273031D02*
D03*
X-320276Y-284842D02*
D03*
Y-273031D02*
D03*
X-206496Y-284842D02*
D03*
Y-273031D02*
D03*
X-225787Y-284842D02*
D03*
Y-273031D02*
D03*
X-244488Y-284842D02*
D03*
Y-273031D02*
D03*
X-263189Y-284842D02*
D03*
Y-273031D02*
D03*
D84*
X-482283Y-108268D02*
D03*
X-470472D02*
D03*
X-482283Y-96457D02*
D03*
X-470472D02*
D03*
D85*
X-102067Y-120079D02*
D03*
Y-175197D02*
D03*
X-184547Y-60925D02*
D03*
Y-116043D02*
D03*
D86*
X-425591Y-171152D02*
D03*
Y-163494D02*
D03*
D87*
X-490354Y-6693D02*
D03*
X-460827D02*
D03*
D88*
X-480118D02*
D03*
X-471063D02*
D03*
D89*
X-480709Y-17913D02*
D03*
X-478150D02*
D03*
X-475591D02*
D03*
X-473032D02*
D03*
X-470472D02*
D03*
D90*
X-240354Y-195059D02*
D03*
Y-202579D02*
D03*
X-232087Y-198819D02*
D03*
D91*
X-464173Y-78839D02*
D03*
Y-76279D02*
D03*
Y-73721D02*
D03*
Y-71161D02*
D03*
Y-68602D02*
D03*
Y-66043D02*
D03*
Y-63484D02*
D03*
Y-60925D02*
D03*
Y-58366D02*
D03*
Y-55807D02*
D03*
Y-53248D02*
D03*
Y-50689D02*
D03*
Y-48130D02*
D03*
Y-45571D02*
D03*
X-491732D02*
D03*
Y-48130D02*
D03*
Y-50689D02*
D03*
Y-53248D02*
D03*
Y-55807D02*
D03*
Y-58366D02*
D03*
Y-60925D02*
D03*
Y-63484D02*
D03*
Y-66043D02*
D03*
Y-68602D02*
D03*
Y-71161D02*
D03*
Y-73721D02*
D03*
Y-76279D02*
D03*
Y-78839D02*
D03*
D92*
X-132874Y-243504D02*
D03*
Y-245472D02*
D03*
Y-247441D02*
D03*
Y-249409D02*
D03*
Y-251378D02*
D03*
X-150197D02*
D03*
Y-249409D02*
D03*
Y-247441D02*
D03*
Y-245472D02*
D03*
Y-243504D02*
D03*
D93*
X-19094Y-107480D02*
D03*
X-419958Y-116543D02*
D03*
D94*
X-59843Y-120866D02*
D03*
Y-114173D02*
D03*
Y-107480D02*
D03*
Y-100787D02*
D03*
Y-94095D02*
D03*
D95*
X-228744Y-132972D02*
D03*
Y-126279D02*
D03*
Y-119587D02*
D03*
Y-112894D02*
D03*
Y-106201D02*
D03*
D96*
X-280772Y-119587D02*
D03*
D97*
X-268012D02*
D03*
D98*
X-451575Y-66142D02*
D03*
D99*
X-425197Y-57126D02*
D03*
Y-66142D02*
D03*
Y-75157D02*
D03*
D100*
X-456496Y-213142D02*
D03*
X-458465D02*
D03*
X-460433D02*
D03*
X-462402D02*
D03*
X-464370D02*
D03*
X-466339D02*
D03*
X-468307D02*
D03*
X-470276D02*
D03*
X-472244D02*
D03*
X-474213D02*
D03*
X-476181D02*
D03*
X-478150D02*
D03*
Y-179772D02*
D03*
X-476181D02*
D03*
X-474213D02*
D03*
X-472244D02*
D03*
X-470276D02*
D03*
X-468307D02*
D03*
X-466339D02*
D03*
X-464370D02*
D03*
X-462402D02*
D03*
X-460433D02*
D03*
X-458465D02*
D03*
X-456496D02*
D03*
D101*
X-484008Y-207283D02*
D03*
Y-205315D02*
D03*
Y-203346D02*
D03*
Y-201378D02*
D03*
Y-199409D02*
D03*
Y-197441D02*
D03*
Y-195473D02*
D03*
Y-193504D02*
D03*
Y-191535D02*
D03*
Y-189567D02*
D03*
Y-187598D02*
D03*
Y-185630D02*
D03*
X-450638D02*
D03*
Y-187598D02*
D03*
Y-189567D02*
D03*
Y-191535D02*
D03*
Y-193504D02*
D03*
Y-195473D02*
D03*
Y-197441D02*
D03*
Y-199409D02*
D03*
Y-201378D02*
D03*
Y-203346D02*
D03*
Y-205315D02*
D03*
Y-207283D02*
D03*
D102*
X-379210Y-101543D02*
D03*
Y-106543D02*
D03*
Y-111543D02*
D03*
Y-116543D02*
D03*
Y-121543D02*
D03*
Y-126543D02*
D03*
Y-131543D02*
D03*
D103*
X-337402Y-37795D02*
D03*
Y-29134D02*
D03*
D104*
X-220472Y-207480D02*
D03*
Y-194095D02*
D03*
D105*
X-84114Y-104528D02*
D03*
X-76870D02*
D03*
D106*
X-80492Y-88850D02*
D03*
D107*
X-194953Y-139646D02*
D03*
Y-132402D02*
D03*
X-340353Y-158549D02*
D03*
Y-151305D02*
D03*
X-76842Y-219173D02*
D03*
Y-211929D02*
D03*
Y-199488D02*
D03*
Y-192244D02*
D03*
D108*
X-210630Y-136024D02*
D03*
X-356031Y-154927D02*
D03*
X-92520Y-215551D02*
D03*
Y-195866D02*
D03*
D109*
X-462126Y-35039D02*
D03*
X-468583D02*
D03*
X-26693Y-78248D02*
D03*
X-33150D02*
D03*
X-72756Y-60236D02*
D03*
X-79213D02*
D03*
X-103209Y-64862D02*
D03*
X-96752D02*
D03*
X-133543Y-259449D02*
D03*
X-127087D02*
D03*
X-156775Y-46420D02*
D03*
X-163232D02*
D03*
X-234409Y-43110D02*
D03*
X-227953D02*
D03*
X-246850Y-148917D02*
D03*
X-240394D02*
D03*
X-246850Y-157185D02*
D03*
X-240394D02*
D03*
X-402244Y-151673D02*
D03*
X-395787D02*
D03*
X-112323Y-197146D02*
D03*
X-118780D02*
D03*
X-449370Y-84252D02*
D03*
X-442913D02*
D03*
X-425591D02*
D03*
X-432047D02*
D03*
X-489449Y-168110D02*
D03*
X-482992D02*
D03*
X-489449Y-176772D02*
D03*
X-482992D02*
D03*
X-444410Y-214567D02*
D03*
X-450866D02*
D03*
X-495638Y-213011D02*
D03*
X-489182D02*
D03*
X-451083Y-141142D02*
D03*
X-444626D02*
D03*
X-231004Y-91043D02*
D03*
X-237461D02*
D03*
D110*
X-500787Y-64193D02*
D03*
Y-70650D02*
D03*
Y-58366D02*
D03*
Y-51909D02*
D03*
X-367323Y-131575D02*
D03*
Y-125118D02*
D03*
X-416535Y-63760D02*
D03*
Y-57303D02*
D03*
X-385433Y-186693D02*
D03*
Y-180236D02*
D03*
Y-222126D02*
D03*
Y-215669D02*
D03*
X-454724Y-227559D02*
D03*
Y-221102D02*
D03*
X-442126Y-164882D02*
D03*
Y-171339D02*
D03*
X-433858Y-164803D02*
D03*
Y-171260D02*
D03*
X-422244Y-227756D02*
D03*
Y-234213D02*
D03*
X-434646Y-227776D02*
D03*
Y-234232D02*
D03*
X-348425Y-31024D02*
D03*
Y-37480D02*
D03*
X-327165Y-31339D02*
D03*
Y-37795D02*
D03*
D111*
X-148327Y-166142D02*
D03*
X-175492D02*
D03*
X-101870Y-90158D02*
D03*
X-129035D02*
D03*
X-230118Y-66043D02*
D03*
X-257283D02*
D03*
X-224016Y-166043D02*
D03*
X-196850D02*
D03*
X-374213Y-75394D02*
D03*
X-401378D02*
D03*
X-342815Y-65256D02*
D03*
X-315650D02*
D03*
X-323425Y-164272D02*
D03*
X-296260D02*
D03*
D112*
X-333268Y-137697D02*
D03*
Y-93209D02*
D03*
D113*
X-482992Y-176772D02*
Y-167165D01*
X-477831Y-162005D02*
Y-148550D01*
X-482992Y-167165D02*
X-477831Y-162005D01*
X-483783Y-178665D02*
Y-177563D01*
X-491732Y-189986D02*
Y-186614D01*
X-483783Y-178665D01*
Y-177563D02*
X-482992Y-176772D01*
X-454409Y-220787D02*
X-450866D01*
X-454724Y-221102D02*
X-454409Y-220787D01*
X-448413Y-238360D02*
Y-223241D01*
X-450866Y-220787D02*
X-448413Y-223241D01*
X-450866Y-220787D02*
Y-214567D01*
X-385940Y-40035D02*
Y-35940D01*
X-363386Y-13386D02*
X-342520D01*
X-385940Y-35940D02*
X-363386Y-13386D01*
X-386102Y-40197D02*
X-385940Y-40035D01*
X-362598Y-5906D02*
X-342520D01*
X-393976Y-40197D02*
X-393229Y-39450D01*
Y-36536D02*
X-362598Y-5906D01*
X-393229Y-39450D02*
Y-36536D01*
X-448326Y-238447D02*
X-368770D01*
X-368241Y-238976D01*
X-367717D01*
X-457087Y-248031D02*
X-453150Y-251969D01*
X-443110D01*
X-40818Y-55388D02*
X-40622Y-55583D01*
X-433022Y-151821D02*
X-425706Y-159136D01*
X-460975Y-151821D02*
X-433022D01*
X-464245Y-148550D02*
X-460975Y-151821D01*
X-175765Y-142738D02*
X-159220D01*
X-40818Y-55388D02*
Y-48386D01*
X-289173Y-240158D02*
Y-228150D01*
X-285433Y-224410D01*
X-442126Y-171339D02*
X-433937D01*
X-425706Y-163378D02*
Y-159136D01*
Y-163378D02*
X-425591Y-163494D01*
X-477831Y-148550D02*
Y-136591D01*
Y-148550D02*
X-464245D01*
X-453812Y-108930D02*
X-453150Y-108268D01*
X-453812Y-112572D02*
Y-108930D01*
X-477831Y-136591D02*
X-453812Y-112572D01*
X-453150Y-108268D02*
Y-96457D01*
X-488867Y-224035D02*
Y-213326D01*
X-453150Y-96457D02*
Y-95831D01*
X-433858Y-171260D02*
X-425699D01*
X-452931Y-95613D02*
X-448844D01*
X-453150Y-95831D02*
X-452931Y-95613D01*
X-448844D02*
X-442913Y-89682D01*
Y-84252D01*
X-240531Y-194882D02*
X-240354Y-195059D01*
X-250000Y-194882D02*
X-240531D01*
X-250000Y-202953D02*
Y-194882D01*
X-228346Y-198819D02*
X-223622Y-194095D01*
X-220472D01*
X-232087Y-198819D02*
X-228346D01*
X-204035Y-194095D02*
X-203543Y-194587D01*
X-470472Y-96457D02*
X-460630D01*
X-470472Y-108268D02*
X-460630D01*
X-500787Y-64193D02*
Y-58366D01*
X-262933Y-78740D02*
X-242362D01*
X-278051Y-63622D02*
X-262933Y-78740D01*
X-242362D02*
X-232295Y-88807D01*
X-232295D01*
X-231004Y-90098D01*
Y-91043D02*
Y-90098D01*
X-253051Y-82185D02*
X-244980Y-90256D01*
X-269488Y-82185D02*
X-253051D01*
X-278051Y-73622D02*
X-269488Y-82185D01*
X-244980Y-91043D02*
Y-90256D01*
Y-91043D02*
X-237461D01*
Y-110374D02*
X-234941Y-112894D01*
X-228744D01*
X-237461Y-110374D02*
Y-91043D01*
X-228744Y-106201D02*
Y-100496D01*
X-72047Y-69882D02*
X-67618D01*
X-64132Y-73368D01*
Y-78388D02*
X-63779Y-78740D01*
X-64132Y-78388D02*
Y-73368D01*
X-66939Y-100062D02*
X-60568D01*
X-59843Y-100787D01*
X-68110Y-98891D02*
X-66939Y-100062D01*
X-68110Y-98891D02*
Y-83071D01*
X-63779Y-78740D01*
D114*
X-282161Y-249687D02*
X-277084D01*
X-370079Y-276378D02*
X-360827Y-267126D01*
X-370079Y-287402D02*
Y-276378D01*
X-360827Y-267126D02*
Y-266831D01*
X-502461Y-153051D02*
X-502375D01*
X-479999Y-130676D01*
Y-129999D02*
X-479724Y-129724D01*
X-479999Y-130676D02*
Y-129999D01*
X-272754Y-285746D02*
Y-254018D01*
X-277084Y-249687D02*
X-272754Y-254018D01*
X-277953Y-290945D02*
X-272754Y-285746D01*
X-329921Y-285039D02*
X-324016Y-290945D01*
X-277953D01*
X-329921Y-285039D02*
Y-251969D01*
X-342913Y-238976D02*
X-329921Y-251969D01*
X-355811Y-238976D02*
X-342913D01*
X-361417Y-248622D02*
X-359173Y-250867D01*
X-361417Y-248622D02*
Y-193307D01*
X-396850Y-157874D02*
X-361417Y-193307D01*
X-409941Y-153839D02*
X-405905Y-157874D01*
X-409941Y-150984D02*
Y-142961D01*
Y-153839D02*
Y-150984D01*
X-405905Y-157874D02*
X-396850D01*
X-359173Y-250867D02*
X-350394Y-259646D01*
X-359173Y-250867D02*
X-359173D01*
X-350394Y-283465D02*
Y-259646D01*
X-269685Y-229134D02*
X-197539D01*
X-274410Y-224410D02*
X-269685Y-229134D01*
X-197539D02*
X-189075Y-237598D01*
X-177165D01*
X-409941Y-142961D02*
X-409915Y-142935D01*
X-403055D01*
D115*
X-321260Y-196850D02*
Y-190946D01*
X-321498Y-190707D02*
X-321260Y-190946D01*
X-321498Y-190707D02*
Y-190454D01*
X-304877Y-192671D02*
X-276575D01*
X-254521Y-214725D02*
X-226536D01*
X-276575Y-192671D02*
X-254521Y-214725D01*
X-321260Y-196850D02*
X-309056D01*
X-304877Y-192671D01*
X-189370Y-266929D02*
X-188829D01*
X-188435Y-267323D02*
X-143701D01*
X-188829Y-266929D02*
X-188435Y-267323D01*
X-173054Y-231220D02*
X-172875Y-231399D01*
X-173054Y-231220D02*
Y-230489D01*
X-190453Y-213090D02*
X-173054Y-230489D01*
X-226536Y-214725D02*
X-221199Y-209388D01*
Y-208207D01*
X-220472Y-207480D01*
X-281693Y-231693D02*
X-274410Y-224410D01*
X-281693Y-240158D02*
Y-231693D01*
X-282161Y-249687D02*
X-281693Y-249219D01*
Y-240158D01*
X-25591Y-56299D02*
X-16535D01*
X-41339D02*
X-33071D01*
X-203543Y-213090D02*
X-190453D01*
X-220449Y-208343D02*
X-209237D01*
X-204489Y-213090D01*
X-203543D01*
X-320249Y-249579D02*
Y-241839D01*
X-301575Y-249606D02*
Y-241732D01*
X-167480Y-280079D02*
X-162205Y-274803D01*
X-167480Y-287402D02*
Y-280079D01*
X-162205Y-274803D02*
X-143701D01*
X-419488Y-269882D02*
Y-251969D01*
X-412795D01*
X-403937Y-176878D02*
Y-176799D01*
X-400500Y-180236D02*
X-385433D01*
X-402244Y-215669D02*
X-385433D01*
X-434646Y-227776D02*
Y-215748D01*
X-422244Y-227756D02*
Y-215748D01*
X-418701Y-180315D02*
X-407374D01*
X-403937Y-176878D01*
X-435630Y-269882D02*
Y-251969D01*
X-437008Y-287402D02*
Y-271260D01*
X-435630Y-269882D01*
X-419488D02*
X-417008Y-272362D01*
X-427008Y-287402D02*
Y-252520D01*
X-417008Y-287402D02*
Y-272362D01*
X-263189Y-249606D02*
Y-241375D01*
X-263093Y-241279D01*
X-505905Y-112205D02*
X-490158Y-96457D01*
X-482283D01*
X-531496Y-112205D02*
X-505905D01*
X-490158Y-108268D02*
X-482283D01*
X-531496Y-122205D02*
X-504095D01*
X-490158Y-108268D01*
X-220472Y-194095D02*
X-204035D01*
X-47746Y-83228D02*
Y-78160D01*
X-55831Y-93528D02*
Y-91313D01*
X-59843Y-94095D02*
X-56398D01*
X-55831Y-91313D02*
X-47746Y-83228D01*
Y-78160D02*
X-47736Y-78150D01*
X-56398Y-94095D02*
X-55831Y-93528D01*
X-206496Y-241732D02*
X-206496Y-241732D01*
Y-249606D02*
Y-241732D01*
X-244488Y-249606D02*
Y-241240D01*
X-225787Y-249606D02*
Y-241240D01*
X-40256Y-78150D02*
X-33839D01*
X-33839D01*
X-206496Y-273031D02*
Y-257087D01*
X-263189Y-273031D02*
Y-257087D01*
X-225787Y-273031D02*
Y-257087D01*
X-244488Y-273031D02*
Y-257087D01*
X-282354Y-273113D02*
Y-257168D01*
X-301575Y-273031D02*
Y-257087D01*
X-320276Y-273031D02*
Y-257087D01*
D116*
X-303334Y-195854D02*
X-278162D01*
X-315354Y-207874D02*
X-303334Y-195854D01*
X-278162D02*
X-255512Y-218504D01*
X-280129Y-198414D02*
X-256890Y-221654D01*
X-301958Y-198414D02*
X-280129D01*
X-320185Y-216641D02*
X-301958Y-198414D01*
X-316827Y-217221D02*
X-300512Y-200906D01*
X-282165D02*
X-258303Y-224768D01*
X-300512Y-200906D02*
X-282165D01*
X-163334Y-53536D02*
X-163232Y-53433D01*
X-337785Y-232320D02*
X-337667Y-232203D01*
X-337550Y-232320D02*
X-328880D01*
X-342659D02*
X-337785D01*
X-337667Y-232203D02*
X-337550Y-232320D01*
X-286601Y-213057D02*
Y-204245D01*
X-291913Y-218369D02*
X-286601Y-213057D01*
X-316827Y-227851D02*
Y-217221D01*
X-321260Y-232283D02*
X-316827Y-227851D01*
X-320185Y-219397D02*
Y-216641D01*
X-321260Y-220472D02*
X-320185Y-219397D01*
X-294603Y-208383D02*
Y-204015D01*
X-302756Y-216535D02*
X-294603Y-208383D01*
X-321260Y-207874D02*
X-315354D01*
X-267323Y-194882D02*
X-257480D01*
X-451083Y-141142D02*
X-450939Y-141285D01*
Y-148082D02*
Y-141285D01*
X-328740Y-208661D02*
X-328522D01*
X-335433D02*
X-328740D01*
X-342229D02*
X-335433D01*
X-328740Y-220472D02*
X-328522D01*
X-335433D02*
X-328740D01*
X-342229D02*
X-335433D01*
X-342266Y-208698D02*
X-342229Y-208661D01*
X-342266Y-220509D02*
X-342229Y-220472D01*
X-335433Y-196850D02*
X-328740D01*
X-342520D02*
X-335433D01*
X-244439Y-218504D02*
X-244394Y-218460D01*
X-255512Y-218504D02*
X-244439D01*
X-258303Y-224768D02*
X-206458D01*
X-256890Y-221654D02*
X-225590D01*
X-451083Y-128839D02*
X-450787Y-128543D01*
X-451083Y-141142D02*
Y-128839D01*
X-458071Y-141043D02*
X-451181D01*
X-451083Y-141142D01*
X-460236Y-131988D02*
Y-128445D01*
X-465551Y-137303D02*
X-460236Y-131988D01*
X-465551Y-141043D02*
Y-137303D01*
X-453812Y-112572D02*
X-450787Y-115597D01*
Y-121063D02*
Y-115597D01*
X-482283Y-108238D02*
Y-108071D01*
X-480278Y-106065D02*
X-480110D01*
X-482283Y-108071D02*
X-480278Y-106065D01*
X-477330Y-102921D02*
X-477165Y-102756D01*
X-480110Y-106065D02*
X-477330Y-103285D01*
Y-102921D01*
X-477165Y-85827D02*
Y-77165D01*
X-468602Y-68602D01*
X-464173D01*
X-480278Y-94254D02*
X-480081D01*
X-466626Y-80800D02*
Y-78974D01*
X-480081Y-94254D02*
X-466626Y-80800D01*
X-466491Y-78839D02*
X-464173D01*
X-466626Y-78974D02*
X-466491Y-78839D01*
X-482283Y-96260D02*
X-480278Y-94254D01*
X-482283Y-96457D02*
Y-96260D01*
X-483169Y-50689D02*
X-481102Y-48622D01*
X-491732Y-50689D02*
X-483169D01*
X-457480Y-55020D02*
X-455118Y-52658D01*
Y-47244D01*
X-457480Y-68898D02*
Y-55020D01*
X-459744Y-71161D02*
X-457480Y-68898D01*
X-464173Y-71161D02*
X-459744D01*
X-500787Y-58366D02*
X-491732D01*
X-379210Y-101543D02*
X-379111D01*
X-378090Y-100522D01*
X-378150Y-96850D02*
X-378090Y-96910D01*
Y-100522D02*
Y-96910D01*
D117*
X-416535Y-57303D02*
X-372954D01*
X-424090D02*
X-416535D01*
X-163232Y-53433D02*
Y-46420D01*
X-424148Y-57246D02*
X-424090Y-57303D01*
X-425020Y-57246D02*
X-424148D01*
D118*
X-106438Y-25730D02*
Y-12314D01*
X-130438Y-25730D02*
X-125751Y-30417D01*
X-111124D01*
X-106438Y-25730D01*
X-130438D02*
Y-12314D01*
X-204177Y-23365D02*
X-199491Y-28051D01*
X-180177Y-23365D02*
Y-12114D01*
X-184863Y-28051D02*
X-180177Y-23365D01*
X-199491Y-28051D02*
X-184863D01*
X-204177Y-23365D02*
Y-12114D01*
X-306752Y-22851D02*
Y-12016D01*
X-302066Y-27538D02*
X-282752D01*
X-306752Y-22851D02*
X-302066Y-27538D01*
X-282752D02*
Y-12016D01*
Y-27538D02*
X-263438D01*
X-258752Y-22851D02*
Y-12016D01*
X-263438Y-27538D02*
X-258752Y-22851D01*
D119*
X-278051Y-63622D02*
D03*
Y-73622D02*
D03*
Y-83622D02*
D03*
D120*
X-203543Y-194587D02*
D03*
X-130709Y-213090D02*
D03*
X-158268D02*
D03*
X-203543D02*
D03*
X-535433Y-64016D02*
D03*
Y-74016D02*
D03*
X-167480Y-287402D02*
D03*
X-177480D02*
D03*
X-535433Y-190551D02*
D03*
Y-180551D02*
D03*
X-427008Y-287402D02*
D03*
X-437008D02*
D03*
D121*
X-105276Y-273622D02*
D03*
X-95276D02*
D03*
X-445039Y-11811D02*
D03*
X-435039D02*
D03*
X-464567Y-283465D02*
D03*
X-454567D02*
D03*
X-492126D02*
D03*
X-482126D02*
D03*
X-340394D02*
D03*
X-350394D02*
D03*
X-140438Y-11811D02*
D03*
X-130438D02*
D03*
X-116438D02*
D03*
X-106438D02*
D03*
X-190177D02*
D03*
X-180177D02*
D03*
X-214177D02*
D03*
X-204177D02*
D03*
X-292752D02*
D03*
X-282752D02*
D03*
X-316752D02*
D03*
X-306752D02*
D03*
X-268752D02*
D03*
X-258752D02*
D03*
D122*
X-370079Y-287402D02*
D03*
D123*
X-380079D02*
D03*
X-390079D02*
D03*
X-400079D02*
D03*
X-535433Y-156693D02*
D03*
Y-146693D02*
D03*
Y-136693D02*
D03*
Y-235433D02*
D03*
Y-225433D02*
D03*
Y-215433D02*
D03*
D124*
Y-166693D02*
D03*
Y-245433D02*
D03*
D125*
X-415906Y-29528D02*
D03*
X-364173D02*
D03*
D126*
X-403819Y-40197D02*
D03*
X-393976D02*
D03*
X-386102D02*
D03*
X-376260D02*
D03*
D127*
X-535433Y-54016D02*
D03*
Y-200551D02*
D03*
D128*
X-157480Y-287402D02*
D03*
X-417008D02*
D03*
D129*
X-531496Y-98583D02*
D03*
Y-88583D02*
D03*
Y-122205D02*
D03*
Y-112205D02*
D03*
X-11811Y-137638D02*
D03*
Y-147638D02*
D03*
Y-162402D02*
D03*
Y-172402D02*
D03*
Y-197008D02*
D03*
Y-187008D02*
D03*
D130*
X-23622Y-218504D02*
D03*
Y-238189D02*
D03*
X-57087Y-271654D02*
D03*
X-76772D02*
D03*
D131*
X-274410Y-224410D02*
D03*
X-285433D02*
D03*
X-296457D02*
D03*
D132*
X-321498Y-190454D02*
D03*
X-448413Y-238360D02*
D03*
X-360827Y-266831D02*
D03*
X-502461Y-153051D02*
D03*
X-479724Y-129724D02*
D03*
X-367717Y-238976D02*
D03*
X-355811D02*
D03*
X-175765Y-142738D02*
D03*
X-159220D02*
D03*
X-172875Y-231399D02*
D03*
X-491732Y-190157D02*
D03*
X-488867Y-224035D02*
D03*
X-301575Y-241732D02*
D03*
X-320249Y-241839D02*
D03*
X-263093Y-241279D02*
D03*
X-206496Y-241732D02*
D03*
X-244488Y-241240D02*
D03*
X-225787Y-241240D02*
D03*
D133*
X-454921Y-231988D02*
D03*
X-4921Y-40945D02*
D03*
X-9449Y-50000D02*
D03*
X-4921Y-59055D02*
D03*
X-9449Y-68110D02*
D03*
X-4921Y-77165D02*
D03*
Y-203937D02*
D03*
X-9449Y-212992D02*
D03*
X-4921Y-222047D02*
D03*
X-9449Y-231102D02*
D03*
X-4921Y-240157D02*
D03*
X-9449Y-249213D02*
D03*
X-4921Y-258268D02*
D03*
X-18504Y-50000D02*
D03*
Y-68110D02*
D03*
X-13976Y-77165D02*
D03*
Y-203937D02*
D03*
Y-222047D02*
D03*
X-27559Y-50000D02*
D03*
X-23031Y-77165D02*
D03*
X-36614Y-68110D02*
D03*
X-32087Y-222047D02*
D03*
X-45669Y-13779D02*
D03*
Y-31890D02*
D03*
X-41142Y-40945D02*
D03*
X-45669Y-50000D02*
D03*
Y-68110D02*
D03*
X-41142Y-258268D02*
D03*
X-45669Y-267323D02*
D03*
Y-285433D02*
D03*
X-54724Y-50000D02*
D03*
Y-68110D02*
D03*
X-50197Y-95275D02*
D03*
Y-113386D02*
D03*
Y-131496D02*
D03*
X-54724Y-140551D02*
D03*
X-50197Y-258268D02*
D03*
Y-276378D02*
D03*
X-54724Y-285433D02*
D03*
X-59252Y-40945D02*
D03*
X-63779Y-50000D02*
D03*
X-59252Y-59055D02*
D03*
X-63779Y-68110D02*
D03*
Y-86220D02*
D03*
Y-140551D02*
D03*
X-59252Y-258268D02*
D03*
X-63779Y-267323D02*
D03*
Y-285433D02*
D03*
X-68307Y-40945D02*
D03*
X-72834Y-50000D02*
D03*
X-68307Y-59055D02*
D03*
Y-77165D02*
D03*
X-72834Y-176772D02*
D03*
X-68307Y-185827D02*
D03*
X-72834Y-231102D02*
D03*
Y-249213D02*
D03*
X-68307Y-258268D02*
D03*
X-72834Y-285433D02*
D03*
X-77362Y-40945D02*
D03*
X-81890Y-285433D02*
D03*
X-90945Y-13779D02*
D03*
X-86417Y-40945D02*
D03*
Y-258268D02*
D03*
X-90945Y-285433D02*
D03*
X-95472Y-22835D02*
D03*
X-100000Y-104331D02*
D03*
Y-285433D02*
D03*
X-109055Y-50000D02*
D03*
X-104527Y-59055D02*
D03*
X-109055Y-68110D02*
D03*
X-104527Y-77165D02*
D03*
X-109055Y-104331D02*
D03*
Y-212992D02*
D03*
Y-285433D02*
D03*
X-118110Y-50000D02*
D03*
X-113583Y-59055D02*
D03*
X-118110Y-68110D02*
D03*
X-113583Y-77165D02*
D03*
X-118110Y-86220D02*
D03*
X-113583Y-95275D02*
D03*
X-118110Y-104331D02*
D03*
X-113583Y-203937D02*
D03*
X-118110Y-212992D02*
D03*
Y-249213D02*
D03*
Y-267323D02*
D03*
Y-285433D02*
D03*
X-127165Y-50000D02*
D03*
X-122638Y-59055D02*
D03*
X-127165Y-68110D02*
D03*
X-122638Y-77165D02*
D03*
X-127165Y-104331D02*
D03*
Y-249213D02*
D03*
X-122638Y-258268D02*
D03*
X-127165Y-267323D02*
D03*
X-122638Y-276378D02*
D03*
X-127165Y-285433D02*
D03*
X-136220Y-50000D02*
D03*
X-131693Y-59055D02*
D03*
X-136220Y-68110D02*
D03*
X-131693Y-77165D02*
D03*
X-136220Y-104331D02*
D03*
Y-122441D02*
D03*
Y-140551D02*
D03*
Y-158661D02*
D03*
Y-267323D02*
D03*
X-131693Y-276378D02*
D03*
X-136220Y-285433D02*
D03*
X-140748Y-131496D02*
D03*
X-145275Y-140551D02*
D03*
X-140748Y-149606D02*
D03*
X-145275Y-158661D02*
D03*
X-140748Y-258268D02*
D03*
X-145275Y-285433D02*
D03*
X-154331Y-13779D02*
D03*
X-149803Y-22835D02*
D03*
X-154331Y-31890D02*
D03*
X-149803Y-59055D02*
D03*
Y-77165D02*
D03*
Y-95275D02*
D03*
Y-113386D02*
D03*
Y-149606D02*
D03*
X-154331Y-158661D02*
D03*
X-149803Y-185827D02*
D03*
Y-203937D02*
D03*
Y-258268D02*
D03*
X-163386Y-13779D02*
D03*
X-158858Y-22835D02*
D03*
Y-40945D02*
D03*
Y-149606D02*
D03*
X-172441Y-13779D02*
D03*
X-167913Y-40945D02*
D03*
Y-131496D02*
D03*
X-172441Y-212992D02*
D03*
Y-249213D02*
D03*
X-176968Y-131496D02*
D03*
X-181496Y-140551D02*
D03*
X-176968Y-149606D02*
D03*
X-181496Y-158661D02*
D03*
Y-231102D02*
D03*
Y-249213D02*
D03*
X-186023Y-131496D02*
D03*
Y-149606D02*
D03*
X-190551Y-158661D02*
D03*
Y-194882D02*
D03*
Y-231102D02*
D03*
X-186023Y-276378D02*
D03*
X-190551Y-285433D02*
D03*
X-195079Y-149606D02*
D03*
X-199606Y-158661D02*
D03*
X-195079Y-203937D02*
D03*
Y-240157D02*
D03*
X-199606Y-249213D02*
D03*
X-204134Y-149606D02*
D03*
X-208661Y-158661D02*
D03*
X-204134Y-203937D02*
D03*
X-217716Y-104331D02*
D03*
X-213189Y-149606D02*
D03*
X-217716Y-158661D02*
D03*
X-213189Y-167717D02*
D03*
Y-203937D02*
D03*
Y-240157D02*
D03*
X-217716Y-249213D02*
D03*
X-226771Y-13779D02*
D03*
Y-31890D02*
D03*
X-235827Y-13779D02*
D03*
X-231299Y-22835D02*
D03*
X-235827Y-31890D02*
D03*
Y-50000D02*
D03*
Y-122441D02*
D03*
X-231299Y-203937D02*
D03*
Y-240157D02*
D03*
X-235827Y-249213D02*
D03*
X-244882Y-13779D02*
D03*
X-240354Y-22835D02*
D03*
X-244882Y-31890D02*
D03*
X-240354Y-40945D02*
D03*
X-244882Y-50000D02*
D03*
X-240354Y-59055D02*
D03*
X-244882Y-68110D02*
D03*
Y-104331D02*
D03*
Y-122441D02*
D03*
X-240354Y-240157D02*
D03*
X-249409Y-22835D02*
D03*
Y-40945D02*
D03*
X-253937Y-50000D02*
D03*
X-249409Y-59055D02*
D03*
X-253937Y-104331D02*
D03*
X-249409Y-113386D02*
D03*
Y-131496D02*
D03*
X-253937Y-140551D02*
D03*
X-249409Y-240157D02*
D03*
X-253937Y-249213D02*
D03*
X-262992Y-50000D02*
D03*
X-258464Y-59055D02*
D03*
X-262992Y-86220D02*
D03*
X-258464Y-95275D02*
D03*
X-262992Y-140551D02*
D03*
X-258464Y-149606D02*
D03*
X-262992Y-158661D02*
D03*
X-258464Y-203937D02*
D03*
Y-240157D02*
D03*
X-272047Y-50000D02*
D03*
X-267520Y-59055D02*
D03*
X-272047Y-86220D02*
D03*
X-267520Y-95275D02*
D03*
X-272047Y-140551D02*
D03*
X-267520Y-149606D02*
D03*
X-272047Y-158661D02*
D03*
X-267520Y-222047D02*
D03*
Y-240157D02*
D03*
X-272047Y-249213D02*
D03*
X-281102Y-50000D02*
D03*
X-276575Y-59055D02*
D03*
X-281102Y-68110D02*
D03*
X-276575Y-95275D02*
D03*
Y-149606D02*
D03*
X-281102Y-158661D02*
D03*
X-276575Y-167717D02*
D03*
Y-240157D02*
D03*
X-290157Y-50000D02*
D03*
X-285630Y-59055D02*
D03*
Y-77165D02*
D03*
Y-95275D02*
D03*
X-290157Y-122441D02*
D03*
Y-140551D02*
D03*
X-285630Y-149606D02*
D03*
Y-167717D02*
D03*
X-290157Y-249213D02*
D03*
X-299213Y-13779D02*
D03*
X-294685Y-113386D02*
D03*
X-299213Y-122441D02*
D03*
X-294685Y-131496D02*
D03*
X-299213Y-140551D02*
D03*
X-294685Y-149606D02*
D03*
Y-240157D02*
D03*
X-303740Y-113386D02*
D03*
Y-131496D02*
D03*
Y-149606D02*
D03*
X-308268Y-158661D02*
D03*
Y-212992D02*
D03*
Y-249213D02*
D03*
X-312795Y-59055D02*
D03*
Y-77165D02*
D03*
Y-149606D02*
D03*
Y-240157D02*
D03*
X-326378Y-13779D02*
D03*
X-321850Y-59055D02*
D03*
X-326378Y-68110D02*
D03*
X-321850Y-77165D02*
D03*
Y-149606D02*
D03*
X-330905Y-22835D02*
D03*
Y-59055D02*
D03*
Y-77165D02*
D03*
Y-149606D02*
D03*
X-335433Y-212992D02*
D03*
X-339961Y-22835D02*
D03*
Y-59055D02*
D03*
Y-77165D02*
D03*
Y-203937D02*
D03*
X-349016Y-22835D02*
D03*
X-353543Y-31890D02*
D03*
X-349016Y-167717D02*
D03*
Y-203937D02*
D03*
X-358071Y-276378D02*
D03*
X-362598Y-285433D02*
D03*
X-371654Y-194882D02*
D03*
X-367126Y-203937D02*
D03*
X-371654Y-231102D02*
D03*
X-380709Y-13779D02*
D03*
X-376181Y-185827D02*
D03*
X-380709Y-194882D02*
D03*
X-376181Y-222047D02*
D03*
X-380709Y-231102D02*
D03*
X-389764Y-13779D02*
D03*
X-385236Y-22835D02*
D03*
X-389764Y-68110D02*
D03*
X-385236Y-77165D02*
D03*
X-389764Y-86220D02*
D03*
X-385236Y-95275D02*
D03*
X-389764Y-104331D02*
D03*
Y-231102D02*
D03*
X-398819Y-13779D02*
D03*
X-394291Y-22835D02*
D03*
X-398819Y-31890D02*
D03*
Y-68110D02*
D03*
Y-86220D02*
D03*
X-394291Y-95275D02*
D03*
X-398819Y-104331D02*
D03*
Y-122441D02*
D03*
X-394291Y-167717D02*
D03*
X-398819Y-194882D02*
D03*
X-394291Y-203937D02*
D03*
Y-222047D02*
D03*
X-398819Y-231102D02*
D03*
X-407874Y-13779D02*
D03*
X-403346Y-22835D02*
D03*
X-407874Y-68110D02*
D03*
Y-86220D02*
D03*
X-403346Y-95275D02*
D03*
Y-113386D02*
D03*
X-407874Y-194882D02*
D03*
Y-231102D02*
D03*
Y-285433D02*
D03*
X-416929Y-13779D02*
D03*
X-412401Y-40945D02*
D03*
X-416929Y-50000D02*
D03*
X-412401Y-77165D02*
D03*
X-416929Y-86220D02*
D03*
X-412401Y-167717D02*
D03*
Y-185827D02*
D03*
Y-203937D02*
D03*
Y-222047D02*
D03*
X-425984Y-13779D02*
D03*
Y-31890D02*
D03*
X-421457Y-40945D02*
D03*
X-425984Y-50000D02*
D03*
Y-140551D02*
D03*
X-421457Y-149606D02*
D03*
Y-185827D02*
D03*
X-435039Y-140551D02*
D03*
X-430512Y-149606D02*
D03*
Y-185827D02*
D03*
X-444094Y-50000D02*
D03*
X-439567Y-95275D02*
D03*
X-444094Y-104331D02*
D03*
X-439567Y-113386D02*
D03*
X-444094Y-122441D02*
D03*
X-439567Y-131496D02*
D03*
X-444094Y-285433D02*
D03*
X-453150Y-13779D02*
D03*
X-448622Y-77165D02*
D03*
Y-113386D02*
D03*
X-453150Y-158661D02*
D03*
X-462205Y-13779D02*
D03*
X-457677Y-22835D02*
D03*
Y-77165D02*
D03*
X-462205Y-86220D02*
D03*
X-466732Y-22835D02*
D03*
Y-40945D02*
D03*
X-471260Y-140551D02*
D03*
Y-249213D02*
D03*
X-480315Y-68110D02*
D03*
X-475787Y-113386D02*
D03*
X-480315Y-122441D02*
D03*
X-489370Y-13779D02*
D03*
X-484842Y-22835D02*
D03*
X-489370Y-31890D02*
D03*
X-484842Y-77165D02*
D03*
X-489370Y-86220D02*
D03*
Y-104331D02*
D03*
Y-122441D02*
D03*
X-484842Y-222047D02*
D03*
X-489370Y-231102D02*
D03*
X-498425Y-13779D02*
D03*
X-493898Y-22835D02*
D03*
X-498425Y-31890D02*
D03*
X-493898Y-40945D02*
D03*
X-498425Y-158661D02*
D03*
Y-231102D02*
D03*
X-502953Y-40945D02*
D03*
Y-77165D02*
D03*
Y-185827D02*
D03*
Y-222047D02*
D03*
Y-258268D02*
D03*
X-530118Y-40945D02*
D03*
X-471528Y-171902D02*
D03*
X-462325Y-171164D02*
D03*
X-467729Y-195242D02*
D03*
X-474251Y-198226D02*
D03*
X-470965Y-196852D02*
D03*
X-477470Y-199735D02*
D03*
X-472423Y-166978D02*
D03*
X-86115Y-211245D02*
D03*
X-93989Y-215182D02*
D03*
X-97926Y-211245D02*
D03*
X-93989Y-219119D02*
D03*
X-90052Y-215182D02*
D03*
X-86115Y-219119D02*
D03*
X-93989Y-211245D02*
D03*
X-90052D02*
D03*
X-97926Y-219119D02*
D03*
X-97926Y-215182D02*
D03*
X-86115D02*
D03*
X-90052Y-219119D02*
D03*
X-94055Y-195664D02*
D03*
X-97992Y-199601D02*
D03*
X-90118Y-195664D02*
D03*
X-97992Y-191727D02*
D03*
X-90118D02*
D03*
X-86181Y-195664D02*
D03*
Y-199601D02*
D03*
Y-191727D02*
D03*
X-94055D02*
D03*
Y-199601D02*
D03*
X-97992Y-195664D02*
D03*
X-90118Y-199601D02*
D03*
X-316929Y-96457D02*
D03*
X-320866D02*
D03*
X-352362Y-92520D02*
D03*
X-356299D02*
D03*
X-348425D02*
D03*
X-344488D02*
D03*
X-328740D02*
D03*
X-332677D02*
D03*
X-336614D02*
D03*
X-316929D02*
D03*
X-320866D02*
D03*
Y-88583D02*
D03*
X-316929D02*
D03*
X-336614D02*
D03*
X-332677D02*
D03*
X-328740D02*
D03*
X-344488D02*
D03*
X-348425D02*
D03*
X-356299D02*
D03*
X-352362D02*
D03*
Y-96457D02*
D03*
X-356299D02*
D03*
X-332677D02*
D03*
X-336614D02*
D03*
X-344488D02*
D03*
X-348425D02*
D03*
X-328740D02*
D03*
X-312992D02*
D03*
X-309055D02*
D03*
Y-88583D02*
D03*
X-312992D02*
D03*
Y-92520D02*
D03*
X-309055D02*
D03*
X-312992Y-104331D02*
D03*
X-309055D02*
D03*
Y-112205D02*
D03*
X-312992D02*
D03*
Y-108268D02*
D03*
X-309055D02*
D03*
Y-124016D02*
D03*
X-312992D02*
D03*
Y-127953D02*
D03*
X-309055D02*
D03*
Y-120079D02*
D03*
X-312992D02*
D03*
Y-116142D02*
D03*
X-309055D02*
D03*
Y-135827D02*
D03*
X-312992D02*
D03*
Y-131890D02*
D03*
X-309055D02*
D03*
Y-100394D02*
D03*
Y-139764D02*
D03*
X-312992Y-100394D02*
D03*
Y-139764D02*
D03*
X-328740D02*
D03*
X-340551D02*
D03*
X-348425D02*
D03*
X-344488D02*
D03*
X-336614D02*
D03*
X-332677D02*
D03*
X-348425Y-100394D02*
D03*
X-356299Y-139764D02*
D03*
Y-100394D02*
D03*
X-344488D02*
D03*
X-352362Y-139764D02*
D03*
Y-100394D02*
D03*
Y-131890D02*
D03*
X-356299D02*
D03*
X-348425D02*
D03*
X-344488D02*
D03*
X-328740D02*
D03*
X-332677D02*
D03*
X-340551D02*
D03*
X-336614D02*
D03*
X-316929D02*
D03*
X-320866D02*
D03*
Y-135827D02*
D03*
X-316929D02*
D03*
X-336614D02*
D03*
X-340551D02*
D03*
X-332677D02*
D03*
X-328740D02*
D03*
X-344488D02*
D03*
X-348425D02*
D03*
X-356299D02*
D03*
X-352362D02*
D03*
X-320866Y-139764D02*
D03*
X-316929D02*
D03*
X-352362Y-116142D02*
D03*
X-356299D02*
D03*
X-348425D02*
D03*
X-344488D02*
D03*
X-328740D02*
D03*
X-332677D02*
D03*
X-340551D02*
D03*
X-336614D02*
D03*
X-316929D02*
D03*
X-324803D02*
D03*
X-320866D02*
D03*
Y-120079D02*
D03*
X-324803D02*
D03*
X-316929D02*
D03*
X-336614D02*
D03*
X-340551D02*
D03*
X-332677D02*
D03*
X-328740D02*
D03*
X-344488D02*
D03*
X-348425D02*
D03*
X-356299D02*
D03*
X-352362D02*
D03*
Y-127953D02*
D03*
X-356299D02*
D03*
X-348425D02*
D03*
X-344488D02*
D03*
X-328740D02*
D03*
X-332677D02*
D03*
X-340551D02*
D03*
X-336614D02*
D03*
X-316929D02*
D03*
X-324803D02*
D03*
X-320866D02*
D03*
Y-124016D02*
D03*
X-324803D02*
D03*
X-316929D02*
D03*
X-336614D02*
D03*
X-340551D02*
D03*
X-332677D02*
D03*
X-328740D02*
D03*
X-344488D02*
D03*
X-348425D02*
D03*
X-356299D02*
D03*
X-352362D02*
D03*
Y-108268D02*
D03*
X-356299D02*
D03*
X-348425D02*
D03*
X-344488D02*
D03*
X-328740D02*
D03*
X-332677D02*
D03*
X-340551D02*
D03*
X-336614D02*
D03*
X-316929D02*
D03*
X-324803D02*
D03*
X-320866D02*
D03*
Y-112205D02*
D03*
X-324803D02*
D03*
X-316929D02*
D03*
X-336614D02*
D03*
X-340551D02*
D03*
X-332677D02*
D03*
X-328740D02*
D03*
X-344488D02*
D03*
X-348425D02*
D03*
X-356299D02*
D03*
X-352362D02*
D03*
Y-104331D02*
D03*
X-356299D02*
D03*
X-348425D02*
D03*
X-344488D02*
D03*
X-328740D02*
D03*
X-332677D02*
D03*
X-336614D02*
D03*
X-316929D02*
D03*
X-324803D02*
D03*
X-320866D02*
D03*
Y-100394D02*
D03*
X-316929D02*
D03*
X-181744Y-108027D02*
D03*
X-189618Y-104090D02*
D03*
X-193555D02*
D03*
X-197492D02*
D03*
X-185681D02*
D03*
X-201429D02*
D03*
X-185681Y-108027D02*
D03*
X-201429D02*
D03*
X-189618D02*
D03*
X-197492D02*
D03*
X-193555D02*
D03*
X-177807D02*
D03*
X-181744Y-104090D02*
D03*
X-177807D02*
D03*
X-173870Y-115901D02*
D03*
X-209303D02*
D03*
X-205366D02*
D03*
X-201429D02*
D03*
X-185681D02*
D03*
X-193555D02*
D03*
X-177807D02*
D03*
X-181744D02*
D03*
X-197492D02*
D03*
X-189618D02*
D03*
X-154185D02*
D03*
X-162059D02*
D03*
X-169933D02*
D03*
X-165996D02*
D03*
X-158122D02*
D03*
X-154185Y-108027D02*
D03*
X-162059D02*
D03*
X-165996D02*
D03*
X-158122D02*
D03*
X-154185Y-100153D02*
D03*
X-158122D02*
D03*
X-165996D02*
D03*
X-162059D02*
D03*
X-154185Y-104090D02*
D03*
X-165996D02*
D03*
X-162059D02*
D03*
X-158122D02*
D03*
X-154185Y-119838D02*
D03*
X-189618D02*
D03*
X-173870D02*
D03*
X-181744D02*
D03*
X-177807D02*
D03*
X-158122D02*
D03*
X-162059D02*
D03*
X-165996D02*
D03*
X-169933D02*
D03*
X-185681D02*
D03*
X-197492D02*
D03*
X-205366D02*
D03*
X-201429D02*
D03*
X-193555D02*
D03*
X-209303D02*
D03*
X-213240Y-111964D02*
D03*
X-189618D02*
D03*
X-181744D02*
D03*
X-177807D02*
D03*
X-173870D02*
D03*
X-169933D02*
D03*
X-165996D02*
D03*
X-185681D02*
D03*
X-154185D02*
D03*
X-162059D02*
D03*
X-158122D02*
D03*
X-209303D02*
D03*
X-205366D02*
D03*
X-201429D02*
D03*
X-197492D02*
D03*
X-193555D02*
D03*
X-213240Y-104090D02*
D03*
X-205366D02*
D03*
X-209303D02*
D03*
Y-108027D02*
D03*
X-213240D02*
D03*
X-205366D02*
D03*
X-213240Y-100153D02*
D03*
X-201429D02*
D03*
X-193555D02*
D03*
X-197492D02*
D03*
X-189618D02*
D03*
X-205366D02*
D03*
X-209303D02*
D03*
X-173870Y-108027D02*
D03*
X-169933D02*
D03*
X-173870Y-100153D02*
D03*
X-169933D02*
D03*
Y-104090D02*
D03*
X-173870D02*
D03*
X-177807Y-100153D02*
D03*
X-181744D02*
D03*
X-185681D02*
D03*
X-162059Y-64720D02*
D03*
X-165996Y-56846D02*
D03*
X-162059D02*
D03*
X-165996Y-64720D02*
D03*
Y-60783D02*
D03*
X-162059D02*
D03*
Y-68657D02*
D03*
X-154185D02*
D03*
X-158122D02*
D03*
X-154185Y-64720D02*
D03*
X-158122D02*
D03*
X-154185Y-60783D02*
D03*
X-158122D02*
D03*
Y-56846D02*
D03*
X-154185D02*
D03*
X-213240Y-68657D02*
D03*
Y-60783D02*
D03*
Y-64720D02*
D03*
Y-56846D02*
D03*
X-177807Y-64720D02*
D03*
X-185681D02*
D03*
X-181744D02*
D03*
X-189618D02*
D03*
X-209303Y-68657D02*
D03*
X-205366Y-64720D02*
D03*
X-209303Y-60783D02*
D03*
X-205366D02*
D03*
Y-56846D02*
D03*
X-209303D02*
D03*
Y-64720D02*
D03*
X-205366Y-68657D02*
D03*
X-201429Y-56846D02*
D03*
Y-68657D02*
D03*
Y-64720D02*
D03*
X-197492D02*
D03*
X-193555D02*
D03*
X-197492Y-60783D02*
D03*
X-193555D02*
D03*
X-189618D02*
D03*
X-201429D02*
D03*
X-185681D02*
D03*
X-193555Y-68657D02*
D03*
X-189618D02*
D03*
X-181744D02*
D03*
X-185681D02*
D03*
X-197492D02*
D03*
X-181744Y-60783D02*
D03*
X-173870Y-64720D02*
D03*
Y-56846D02*
D03*
X-177807D02*
D03*
Y-60783D02*
D03*
X-173870D02*
D03*
X-169933Y-64720D02*
D03*
Y-60783D02*
D03*
Y-68657D02*
D03*
X-165996D02*
D03*
X-173870D02*
D03*
X-169933Y-56846D02*
D03*
X-177807Y-68657D02*
D03*
X-193555Y-56846D02*
D03*
X-197492D02*
D03*
X-185681D02*
D03*
X-189618D02*
D03*
X-181744D02*
D03*
X-213240Y-88342D02*
D03*
X-209303D02*
D03*
X-205366D02*
D03*
X-201429D02*
D03*
X-197492D02*
D03*
X-193555D02*
D03*
X-154185Y-96216D02*
D03*
X-165996D02*
D03*
X-169933D02*
D03*
X-162059D02*
D03*
X-158122D02*
D03*
X-169933Y-92279D02*
D03*
X-165996D02*
D03*
X-154185D02*
D03*
X-158122D02*
D03*
X-162059D02*
D03*
X-177807Y-96216D02*
D03*
X-173870D02*
D03*
Y-72594D02*
D03*
X-197492D02*
D03*
X-193555D02*
D03*
X-201429D02*
D03*
X-189618D02*
D03*
X-177807D02*
D03*
X-181744D02*
D03*
X-185681D02*
D03*
X-169933D02*
D03*
X-165996D02*
D03*
X-162059D02*
D03*
X-154185D02*
D03*
X-158122D02*
D03*
X-213240Y-96216D02*
D03*
X-193555D02*
D03*
X-185681D02*
D03*
X-189618D02*
D03*
X-181744D02*
D03*
X-209303D02*
D03*
X-205366D02*
D03*
X-201429D02*
D03*
X-197492D02*
D03*
X-154185Y-88342D02*
D03*
Y-84405D02*
D03*
X-158122D02*
D03*
Y-88342D02*
D03*
Y-80468D02*
D03*
Y-76531D02*
D03*
X-154185D02*
D03*
Y-80468D02*
D03*
X-181744Y-92279D02*
D03*
X-177807D02*
D03*
X-173870D02*
D03*
X-185681D02*
D03*
X-213240D02*
D03*
X-201429D02*
D03*
X-205366D02*
D03*
X-209303D02*
D03*
X-193555D02*
D03*
X-197492D02*
D03*
X-189618D02*
D03*
X-193555Y-84405D02*
D03*
X-197492D02*
D03*
X-201429D02*
D03*
X-181744D02*
D03*
X-185681D02*
D03*
X-177807D02*
D03*
X-205366D02*
D03*
X-209303D02*
D03*
X-189618D02*
D03*
X-201429Y-80468D02*
D03*
X-205366D02*
D03*
X-197492Y-76531D02*
D03*
X-189618D02*
D03*
X-193555D02*
D03*
X-185681D02*
D03*
X-181744D02*
D03*
X-177807D02*
D03*
X-201429D02*
D03*
X-173870Y-80468D02*
D03*
Y-84405D02*
D03*
X-165996D02*
D03*
X-169933D02*
D03*
X-162059D02*
D03*
X-173870Y-76531D02*
D03*
X-162059Y-80468D02*
D03*
X-169933D02*
D03*
X-165996D02*
D03*
Y-76531D02*
D03*
X-162059D02*
D03*
X-169933D02*
D03*
X-197492Y-80468D02*
D03*
X-177807D02*
D03*
X-193555D02*
D03*
X-181744D02*
D03*
X-189618D02*
D03*
X-185681D02*
D03*
X-189618Y-88342D02*
D03*
X-173870D02*
D03*
X-185681D02*
D03*
X-181744D02*
D03*
X-162059D02*
D03*
X-169933D02*
D03*
X-165996D02*
D03*
X-177807D02*
D03*
X-127726Y-119269D02*
D03*
X-131663D02*
D03*
X-123789D02*
D03*
X-119852D02*
D03*
X-104104D02*
D03*
X-108041D02*
D03*
X-115915D02*
D03*
X-111978D02*
D03*
X-92293D02*
D03*
X-100167D02*
D03*
X-96230D02*
D03*
Y-123206D02*
D03*
X-100167D02*
D03*
X-92293D02*
D03*
X-111978D02*
D03*
X-115915D02*
D03*
X-108041D02*
D03*
X-104104D02*
D03*
X-119852D02*
D03*
X-123789D02*
D03*
X-131663D02*
D03*
X-127726D02*
D03*
Y-115332D02*
D03*
X-131663D02*
D03*
X-123789D02*
D03*
X-119852D02*
D03*
X-104104D02*
D03*
X-108041D02*
D03*
X-115915D02*
D03*
X-111978D02*
D03*
X-92293D02*
D03*
X-100167D02*
D03*
X-96230D02*
D03*
X-92293Y-135017D02*
D03*
X-100167D02*
D03*
X-96230D02*
D03*
X-127726Y-131080D02*
D03*
X-131663D02*
D03*
X-123809Y-131544D02*
D03*
X-119872D02*
D03*
X-104124D02*
D03*
X-108061D02*
D03*
X-115935D02*
D03*
X-111998D02*
D03*
X-92313D02*
D03*
X-100187D02*
D03*
X-96250D02*
D03*
X-96230Y-127143D02*
D03*
X-100167D02*
D03*
X-92293D02*
D03*
X-111978D02*
D03*
X-115915D02*
D03*
X-108041D02*
D03*
X-104104D02*
D03*
X-119852D02*
D03*
X-123789D02*
D03*
X-131663D02*
D03*
X-127726D02*
D03*
Y-135017D02*
D03*
X-131663D02*
D03*
X-108041D02*
D03*
X-111978D02*
D03*
X-119852D02*
D03*
X-123789D02*
D03*
X-115915D02*
D03*
X-104104D02*
D03*
X-80482D02*
D03*
X-76545D02*
D03*
X-88356D02*
D03*
X-84419D02*
D03*
Y-127143D02*
D03*
X-88356D02*
D03*
X-80482D02*
D03*
X-76545Y-131080D02*
D03*
X-80502Y-131544D02*
D03*
X-88376D02*
D03*
X-84439D02*
D03*
X-80482Y-115332D02*
D03*
X-88356D02*
D03*
X-84419D02*
D03*
Y-123206D02*
D03*
X-88356D02*
D03*
X-80482D02*
D03*
Y-119269D02*
D03*
X-88356D02*
D03*
X-84419D02*
D03*
X-76545Y-142891D02*
D03*
X-80482D02*
D03*
X-88356D02*
D03*
X-84419D02*
D03*
Y-150765D02*
D03*
X-88356D02*
D03*
X-80482D02*
D03*
X-76545D02*
D03*
Y-146828D02*
D03*
X-80482D02*
D03*
X-88356D02*
D03*
X-84419D02*
D03*
Y-162576D02*
D03*
X-88356D02*
D03*
X-80482D02*
D03*
Y-166513D02*
D03*
X-88356D02*
D03*
X-84419D02*
D03*
Y-158639D02*
D03*
X-88356D02*
D03*
X-80482D02*
D03*
X-76545D02*
D03*
Y-154702D02*
D03*
X-80482D02*
D03*
X-88356D02*
D03*
X-84419D02*
D03*
Y-174387D02*
D03*
X-88356D02*
D03*
X-80482D02*
D03*
Y-170450D02*
D03*
X-88356D02*
D03*
X-84419D02*
D03*
Y-138954D02*
D03*
Y-178324D02*
D03*
X-76545Y-138954D02*
D03*
X-88356D02*
D03*
Y-178324D02*
D03*
X-80482Y-138954D02*
D03*
Y-178324D02*
D03*
X-104104D02*
D03*
X-115915D02*
D03*
X-123789D02*
D03*
X-119852D02*
D03*
X-111978D02*
D03*
X-108041D02*
D03*
X-104104Y-138954D02*
D03*
X-123789D02*
D03*
X-131663Y-178324D02*
D03*
Y-138954D02*
D03*
X-119852D02*
D03*
X-108041D02*
D03*
X-115915D02*
D03*
X-127726Y-178324D02*
D03*
Y-138954D02*
D03*
X-111978D02*
D03*
X-127726Y-170450D02*
D03*
X-131663D02*
D03*
X-123789D02*
D03*
X-119852D02*
D03*
X-104104D02*
D03*
X-108041D02*
D03*
X-115915D02*
D03*
X-111978D02*
D03*
X-92293D02*
D03*
X-100167D02*
D03*
X-96230D02*
D03*
Y-174387D02*
D03*
X-100167D02*
D03*
X-92293D02*
D03*
X-111978D02*
D03*
X-115915D02*
D03*
X-108041D02*
D03*
X-104104D02*
D03*
X-119852D02*
D03*
X-123789D02*
D03*
X-131663D02*
D03*
X-127726D02*
D03*
X-96230Y-178324D02*
D03*
X-100167D02*
D03*
X-92293D02*
D03*
X-127726Y-154702D02*
D03*
X-131663D02*
D03*
X-123789D02*
D03*
X-119852D02*
D03*
X-104104D02*
D03*
X-108041D02*
D03*
X-115915D02*
D03*
X-111978D02*
D03*
X-92293D02*
D03*
X-100167D02*
D03*
X-96230D02*
D03*
Y-158639D02*
D03*
X-100167D02*
D03*
X-92293D02*
D03*
X-111978D02*
D03*
X-115915D02*
D03*
X-108041D02*
D03*
X-104104D02*
D03*
X-119852D02*
D03*
X-123789D02*
D03*
X-131663D02*
D03*
X-127726D02*
D03*
Y-166513D02*
D03*
X-131663D02*
D03*
X-123789D02*
D03*
X-119852D02*
D03*
X-104104D02*
D03*
X-108041D02*
D03*
X-115915D02*
D03*
X-111978D02*
D03*
X-92293D02*
D03*
X-100167D02*
D03*
X-96230D02*
D03*
Y-162576D02*
D03*
X-100167D02*
D03*
X-92293D02*
D03*
X-111978D02*
D03*
X-115915D02*
D03*
X-108041D02*
D03*
X-104104D02*
D03*
X-119852D02*
D03*
X-123789D02*
D03*
X-127726D02*
D03*
Y-146828D02*
D03*
X-131663D02*
D03*
X-123789D02*
D03*
X-119852D02*
D03*
X-104104D02*
D03*
X-108041D02*
D03*
X-115915D02*
D03*
X-111978D02*
D03*
X-92293D02*
D03*
X-100167D02*
D03*
X-96230D02*
D03*
Y-150765D02*
D03*
X-100167D02*
D03*
X-92293D02*
D03*
X-111978D02*
D03*
X-115915D02*
D03*
X-108041D02*
D03*
X-104104D02*
D03*
X-119852D02*
D03*
X-123789D02*
D03*
X-131663D02*
D03*
X-127726D02*
D03*
Y-142891D02*
D03*
X-131663D02*
D03*
X-123789D02*
D03*
X-119852D02*
D03*
X-104104D02*
D03*
X-108041D02*
D03*
X-115915D02*
D03*
X-111978D02*
D03*
X-92293D02*
D03*
X-100167D02*
D03*
X-96230D02*
D03*
Y-138954D02*
D03*
X-100167D02*
D03*
X-92293D02*
D03*
X-337667Y-232203D02*
D03*
X-440945Y-157874D02*
D03*
X-449537Y-176311D02*
D03*
X-450939Y-148082D02*
D03*
X-456502Y-185640D02*
D03*
X-462577Y-187959D02*
D03*
X-462503Y-191788D02*
D03*
X-445733Y-181939D02*
D03*
X-450675Y-179569D02*
D03*
X-335433Y-208661D02*
D03*
Y-220472D02*
D03*
Y-196850D02*
D03*
X-244394Y-218460D02*
D03*
X-206458Y-224768D02*
D03*
X-225590Y-221654D02*
D03*
X-465748Y-174409D02*
D03*
X-456299Y-168898D02*
D03*
X-453543Y-166142D02*
D03*
X-477165Y-102756D02*
D03*
Y-85827D02*
D03*
X-481102Y-48622D02*
D03*
X-378150Y-96850D02*
D03*
X-359646Y-158957D02*
D03*
X-355709D02*
D03*
X-351772D02*
D03*
X-355709Y-155020D02*
D03*
X-359646D02*
D03*
X-347835D02*
D03*
X-363583Y-158957D02*
D03*
X-351772Y-155020D02*
D03*
X-355709Y-151083D02*
D03*
X-347835Y-158957D02*
D03*
X-363583Y-151083D02*
D03*
X-347835D02*
D03*
X-359646D02*
D03*
X-351772D02*
D03*
X-363583Y-155020D02*
D03*
X-78248Y-97146D02*
D03*
Y-89272D02*
D03*
X-86122Y-85335D02*
D03*
X-74311D02*
D03*
X-82185Y-89272D02*
D03*
X-74311Y-81398D02*
D03*
X-82185D02*
D03*
X-82185Y-93209D02*
D03*
X-74311Y-89272D02*
D03*
X-86122Y-97146D02*
D03*
X-78248Y-85335D02*
D03*
X-86122Y-93209D02*
D03*
Y-89272D02*
D03*
X-82185Y-85335D02*
D03*
X-74311Y-93209D02*
D03*
Y-97146D02*
D03*
X-78248Y-93209D02*
D03*
X-82185Y-97146D02*
D03*
X-86122Y-81398D02*
D03*
X-78248D02*
D03*
X-40256Y-124902D02*
D03*
X-36319D02*
D03*
X-32382D02*
D03*
X-40256Y-120965D02*
D03*
X-36319D02*
D03*
X-32382D02*
D03*
X-40256Y-117027D02*
D03*
X-36319D02*
D03*
X-40256Y-113091D02*
D03*
X-36319D02*
D03*
X-40256Y-109153D02*
D03*
X-36319D02*
D03*
X-32382D02*
D03*
X-28445Y-105217D02*
D03*
X-20571Y-105217D02*
D03*
X-24508Y-105217D02*
D03*
X-28445Y-101279D02*
D03*
X-20571Y-101279D02*
D03*
X-24508Y-101279D02*
D03*
X-32382Y-97342D02*
D03*
X-28445D02*
D03*
X-40256Y-105217D02*
D03*
X-36319D02*
D03*
X-32382D02*
D03*
X-40256Y-101279D02*
D03*
X-36319Y-101279D02*
D03*
X-32382D02*
D03*
X-40256Y-97342D02*
D03*
X-36319D02*
D03*
X-40256Y-93405D02*
D03*
X-36319D02*
D03*
X-32382Y-89468D02*
D03*
X-40256D02*
D03*
X-36319D02*
D03*
X-20571Y-97342D02*
D03*
X-24508D02*
D03*
X-32382Y-93405D02*
D03*
X-28445D02*
D03*
X-24508D02*
D03*
X-20571D02*
D03*
X-28445Y-89468D02*
D03*
X-24508D02*
D03*
X-20571D02*
D03*
X-32382Y-117027D02*
D03*
X-28445Y-124902D02*
D03*
X-24508D02*
D03*
X-20571D02*
D03*
X-28445Y-120965D02*
D03*
X-24508D02*
D03*
X-20571Y-120965D02*
D03*
X-28445Y-117027D02*
D03*
X-24508D02*
D03*
X-20571D02*
D03*
X-32382Y-113091D02*
D03*
X-28445D02*
D03*
X-24508D02*
D03*
X-20571D02*
D03*
X-28445Y-109153D02*
D03*
X-24508D02*
D03*
X-20571D02*
D03*
X-12697Y-120965D02*
D03*
X-16634D02*
D03*
X-8760D02*
D03*
Y-124902D02*
D03*
X-12697Y-124902D02*
D03*
X-16634D02*
D03*
Y-117027D02*
D03*
X-12697D02*
D03*
X-8760D02*
D03*
Y-109153D02*
D03*
X-16634D02*
D03*
X-12697D02*
D03*
X-8760Y-113091D02*
D03*
X-16634D02*
D03*
X-12697D02*
D03*
X-8760Y-93405D02*
D03*
X-16634D02*
D03*
Y-89468D02*
D03*
X-8760D02*
D03*
X-12697Y-93405D02*
D03*
Y-89468D02*
D03*
Y-101279D02*
D03*
X-8760Y-101279D02*
D03*
X-12697Y-105217D02*
D03*
X-16634D02*
D03*
X-8760D02*
D03*
X-16634Y-101279D02*
D03*
X-12697Y-97342D02*
D03*
X-8760D02*
D03*
X-16634D02*
D03*
X-201772Y-141929D02*
D03*
Y-134055D02*
D03*
X-213583Y-141929D02*
D03*
X-205709Y-130118D02*
D03*
X-213583Y-137992D02*
D03*
X-217520Y-141929D02*
D03*
X-209646Y-134055D02*
D03*
X-217520Y-130118D02*
D03*
X-213583D02*
D03*
X-201772Y-137992D02*
D03*
X-209646Y-130118D02*
D03*
X-201772D02*
D03*
X-205709Y-134055D02*
D03*
X-217520Y-137992D02*
D03*
X-217520Y-134055D02*
D03*
X-205709Y-137992D02*
D03*
X-209646D02*
D03*
X-209646Y-141929D02*
D03*
X-205709D02*
D03*
X-213583Y-134055D02*
D03*
X-261122Y-105807D02*
D03*
X-257185D02*
D03*
X-265256Y-105709D02*
D03*
X-261122Y-113681D02*
D03*
Y-117618D02*
D03*
X-257185Y-117618D02*
D03*
Y-113681D02*
D03*
Y-137303D02*
D03*
Y-133366D02*
D03*
X-261122D02*
D03*
Y-137303D02*
D03*
X-281004Y-105709D02*
D03*
X-277067D02*
D03*
X-273130D02*
D03*
Y-109646D02*
D03*
X-269193D02*
D03*
Y-113583D02*
D03*
X-273130D02*
D03*
X-281004Y-117520D02*
D03*
X-277067Y-109646D02*
D03*
Y-113583D02*
D03*
X-281004D02*
D03*
Y-109646D02*
D03*
X-265256Y-113583D02*
D03*
Y-109646D02*
D03*
X-257185Y-125492D02*
D03*
Y-121555D02*
D03*
Y-129429D02*
D03*
X-269193Y-129331D02*
D03*
X-261122Y-125492D02*
D03*
X-265256Y-125394D02*
D03*
Y-129331D02*
D03*
X-261122Y-129429D02*
D03*
X-265256Y-137205D02*
D03*
X-273130Y-133268D02*
D03*
X-269193D02*
D03*
X-281004Y-137205D02*
D03*
X-273130D02*
D03*
X-277067D02*
D03*
Y-133268D02*
D03*
X-269193Y-137205D02*
D03*
X-265256Y-133268D02*
D03*
X-281004D02*
D03*
Y-129331D02*
D03*
X-273130Y-125394D02*
D03*
Y-129331D02*
D03*
X-269193Y-125394D02*
D03*
X-281004D02*
D03*
X-277067D02*
D03*
Y-129331D02*
D03*
X-257185Y-101870D02*
D03*
X-261122Y-101870D02*
D03*
Y-109744D02*
D03*
X-257185D02*
D03*
X-273130Y-121457D02*
D03*
Y-117520D02*
D03*
X-269193D02*
D03*
Y-121457D02*
D03*
X-277067D02*
D03*
Y-117520D02*
D03*
X-281004Y-121457D02*
D03*
X-265256D02*
D03*
X-265256Y-117520D02*
D03*
X-261122Y-121555D02*
D03*
X-265256Y-101772D02*
D03*
X-269193D02*
D03*
Y-105709D02*
D03*
X-273130Y-101772D02*
D03*
X-277067D02*
D03*
X-281004Y-101772D02*
D03*
X-429817Y-134153D02*
D03*
Y-126279D02*
D03*
Y-122343D02*
D03*
Y-118405D02*
D03*
Y-114469D02*
D03*
Y-110531D02*
D03*
Y-106595D02*
D03*
X-418012Y-114469D02*
D03*
X-410138Y-134153D02*
D03*
Y-130217D02*
D03*
Y-106595D02*
D03*
X-414075D02*
D03*
X-418012D02*
D03*
X-410138Y-114469D02*
D03*
X-418012Y-110531D02*
D03*
X-410138Y-110531D02*
D03*
X-414075D02*
D03*
X-410138Y-118405D02*
D03*
X-414075Y-114469D02*
D03*
Y-122343D02*
D03*
Y-126279D02*
D03*
X-410138D02*
D03*
X-418012Y-122343D02*
D03*
X-410138D02*
D03*
X-418012Y-126279D02*
D03*
X-410138Y-99114D02*
D03*
X-414075D02*
D03*
X-418012D02*
D03*
Y-130217D02*
D03*
X-414075Y-134153D02*
D03*
X-418012D02*
D03*
X-414075Y-130217D02*
D03*
X-418012Y-118405D02*
D03*
X-414075D02*
D03*
X-410138Y-103051D02*
D03*
X-414075Y-103051D02*
D03*
X-418012D02*
D03*
X-421949Y-103051D02*
D03*
X-429817Y-130217D02*
D03*
X-425886Y-103051D02*
D03*
Y-99114D02*
D03*
X-421949D02*
D03*
Y-118405D02*
D03*
X-425886D02*
D03*
Y-114469D02*
D03*
X-421949D02*
D03*
Y-106595D02*
D03*
X-425886D02*
D03*
Y-110531D02*
D03*
X-421949D02*
D03*
Y-126279D02*
D03*
X-425886D02*
D03*
Y-122343D02*
D03*
X-421949D02*
D03*
Y-130217D02*
D03*
X-429817Y-103051D02*
D03*
X-425886Y-130217D02*
D03*
Y-134153D02*
D03*
X-429817Y-99114D02*
D03*
X-421949Y-134153D02*
D03*
D134*
X-457087Y-248031D02*
D03*
X-291913Y-218369D02*
D03*
X-177165Y-251969D02*
D03*
X-188976Y-255512D02*
D03*
X-286601Y-204245D02*
D03*
X-294603Y-204015D02*
D03*
X-302756Y-216535D02*
D03*
X-267323Y-194882D02*
D03*
X-228740Y-100492D02*
D03*
X-168504Y-242520D02*
D03*
X-409941Y-150984D02*
D03*
X-254035Y-166043D02*
D03*
D135*
X-189370Y-266929D02*
D03*
X-40818Y-48386D02*
D03*
X-16535Y-56299D02*
D03*
M02*
