G04*
G04 #@! TF.GenerationSoftware,Altium Limited,Altium Designer,21.7.2 (23)*
G04*
G04 Layer_Color=16711935*
%FSLAX25Y25*%
%MOIN*%
G70*
G04*
G04 #@! TF.SameCoordinates,B7E76543-6187-4393-8A72-02BF7DF05099*
G04*
G04*
G04 #@! TF.FilePolarity,Positive*
G04*
G01*
G75*
%ADD10C,0.00787*%
%ADD11C,0.00394*%
D10*
X-434744Y-220571D02*
Y-189075D01*
X-422146D01*
Y-220571D02*
Y-189075D01*
X-434744Y-220571D02*
X-422146D01*
X-287539Y-92382D02*
X-268563D01*
Y-54862D01*
X-287539D02*
X-268563D01*
X-287539Y-92382D02*
Y-54862D01*
X-207677Y-218012D02*
Y-189665D01*
Y-218012D02*
X-126969D01*
Y-189665D01*
X-207677D02*
X-126969D01*
X-459724Y-17913D02*
Y1772D01*
X-491457D02*
X-459724D01*
X-491457Y-17913D02*
Y1772D01*
Y-17913D02*
X-459724D01*
X-364252Y-44094D02*
Y11024D01*
X-415827D02*
X-364252D01*
X-415827Y-44094D02*
Y11024D01*
Y-44094D02*
X-364252D01*
X-33858Y-208268D02*
X-13386D01*
Y-248425D02*
Y-208268D01*
X-33858Y-248425D02*
X-13386D01*
X-33858D02*
Y-208268D01*
X-46850Y-281890D02*
Y-261417D01*
X-87008Y-281890D02*
X-46850D01*
X-87008D02*
Y-261417D01*
X-46850D01*
X-295689Y-230433D02*
Y-213937D01*
Y-230433D02*
X-275177D01*
Y-213937D01*
X-295689D02*
X-275177D01*
X-279642Y-99587D02*
X-245622D01*
Y-139587D02*
Y-99587D01*
X-279642Y-139587D02*
X-245622D01*
X-279642D02*
Y-99587D01*
X-334941Y-36811D02*
Y-30118D01*
X-339862D02*
X-334941D01*
X-339862Y-36811D02*
Y-30118D01*
Y-36811D02*
X-334941D01*
X-88465Y-81039D02*
X-72520D01*
Y-104512D02*
Y-81039D01*
X-88465Y-104512D02*
X-72520D01*
X-88465D02*
Y-81039D01*
X-218441Y-143996D02*
Y-128051D01*
X-194968D01*
Y-143996D02*
Y-128051D01*
X-218441Y-143996D02*
X-194968D01*
X-363842Y-162899D02*
Y-146954D01*
X-340369D01*
Y-162899D02*
Y-146954D01*
X-363842Y-162899D02*
X-340369D01*
X-100331Y-223524D02*
Y-207579D01*
X-76858D01*
Y-223524D02*
Y-207579D01*
X-100331Y-223524D02*
X-76858D01*
X-100331Y-203839D02*
Y-187894D01*
X-76858D01*
Y-203839D02*
Y-187894D01*
X-100331Y-203839D02*
X-76858D01*
D11*
X-413779Y-218307D02*
Y-172244D01*
Y-218307D02*
X-394094D01*
Y-172244D01*
X-413779D02*
X-394094D01*
X-350197Y-194390D02*
X-342323D01*
Y-199311D02*
Y-194390D01*
X-350197Y-199311D02*
X-342323D01*
X-350197D02*
Y-194390D01*
X-267618Y-163583D02*
X-259744D01*
Y-168504D02*
Y-163583D01*
X-267618Y-168504D02*
X-259744D01*
X-267618D02*
Y-163583D01*
X-417592Y-140475D02*
X-409718D01*
Y-145396D02*
Y-140475D01*
X-417592Y-145396D02*
X-409718D01*
X-417592D02*
Y-140475D01*
X-284815Y-257365D02*
Y-249491D01*
X-279894D01*
Y-257365D02*
Y-249491D01*
X-284815Y-257365D02*
X-279894D01*
X-252658Y-93504D02*
X-244783D01*
X-252658D02*
Y-88583D01*
X-244783D01*
Y-93504D02*
Y-88583D01*
X-328937Y-194390D02*
X-321063D01*
Y-199311D02*
Y-194390D01*
X-328937Y-199311D02*
X-321063D01*
X-328937D02*
Y-194390D01*
X-460827Y-105807D02*
X-452953D01*
Y-110728D02*
Y-105807D01*
X-460827Y-110728D02*
X-452953D01*
X-460827D02*
Y-105807D01*
Y-93996D02*
X-452953D01*
Y-98917D02*
Y-93996D01*
X-460827Y-98917D02*
X-452953D01*
X-460827D02*
Y-93996D01*
X-457579Y-47441D02*
Y-39567D01*
X-452658D01*
Y-47441D02*
Y-39567D01*
X-457579Y-47441D02*
X-452658D01*
X-47933Y-75689D02*
X-40059D01*
Y-80610D02*
Y-75689D01*
X-47933Y-80610D02*
X-40059D01*
X-47933D02*
Y-75689D01*
X-63976Y-80413D02*
X-56102D01*
X-63976D02*
Y-75492D01*
X-56102D01*
Y-80413D02*
Y-75492D01*
X-79724Y-71555D02*
X-71850D01*
X-79724D02*
Y-66634D01*
X-71850D01*
Y-71555D02*
Y-66634D01*
X-168701Y-250590D02*
X-160827D01*
X-168701D02*
Y-245669D01*
X-160827D01*
Y-250590D02*
Y-245669D01*
X-344980Y-13583D02*
Y-5709D01*
X-340059D01*
Y-13583D02*
Y-5709D01*
X-344980Y-13583D02*
X-340059D01*
X-141240Y-275000D02*
Y-267126D01*
X-146161Y-275000D02*
X-141240D01*
X-146161D02*
Y-267126D01*
X-141240D01*
X-289370Y-242618D02*
X-281496D01*
X-289370D02*
Y-237697D01*
X-281496D01*
Y-242618D02*
Y-237697D01*
X-247933Y-163583D02*
X-240059D01*
Y-168504D02*
Y-163583D01*
X-247933Y-168504D02*
X-240059D01*
X-247933D02*
Y-163583D01*
X-186614Y-245276D02*
Y-237402D01*
X-191535Y-245276D02*
X-186614D01*
X-191535D02*
Y-237402D01*
X-186614D01*
X-174705Y-245276D02*
Y-237402D01*
X-179626Y-245276D02*
X-174705D01*
X-179626D02*
Y-237402D01*
X-174705D01*
X-412992Y-254429D02*
X-405118D01*
X-412992D02*
Y-249508D01*
X-405118D01*
Y-254429D02*
Y-249508D01*
X-426378Y-182776D02*
X-418504D01*
X-426378D02*
Y-177854D01*
X-418504D01*
Y-182776D02*
Y-177854D01*
X-427165Y-249508D02*
X-419291D01*
Y-254429D02*
Y-249508D01*
X-427165Y-254429D02*
X-419291D01*
X-427165D02*
Y-249508D01*
X-443307D02*
X-435433D01*
Y-254429D02*
Y-249508D01*
X-443307Y-254429D02*
X-435433D01*
X-443307D02*
Y-249508D01*
X-463583Y-165354D02*
Y-157480D01*
X-468504Y-165354D02*
X-463583D01*
X-468504D02*
Y-157480D01*
X-463583D01*
X-465748Y-143504D02*
X-457874D01*
X-465748D02*
Y-138583D01*
X-457874D01*
Y-143504D02*
Y-138583D01*
X-453248Y-128740D02*
Y-120866D01*
X-448327D01*
Y-128740D02*
Y-120866D01*
X-453248Y-128740D02*
X-448327D01*
X-403252Y-140475D02*
X-395378D01*
Y-145396D02*
Y-140475D01*
X-403252Y-145396D02*
X-395378D01*
X-403252D02*
Y-140475D01*
X-350197Y-218012D02*
X-342323D01*
Y-222933D02*
Y-218012D01*
X-350197Y-222933D02*
X-342323D01*
X-350197D02*
Y-218012D01*
Y-206201D02*
X-342323D01*
Y-211122D02*
Y-206201D01*
X-350197Y-211122D02*
X-342323D01*
X-350197D02*
Y-206201D01*
X-252461Y-210630D02*
Y-202756D01*
X-247539D01*
Y-210630D02*
Y-202756D01*
X-252461Y-210630D02*
X-247539D01*
X-350591Y-229823D02*
X-342717D01*
Y-234744D02*
Y-229823D01*
X-350591Y-234744D02*
X-342717D01*
X-350591D02*
Y-229823D01*
X-49016Y-53839D02*
X-41142D01*
Y-58760D02*
Y-53839D01*
X-49016Y-58760D02*
X-41142D01*
X-49016D02*
Y-53839D01*
X-328937Y-218012D02*
X-321063D01*
Y-222933D02*
Y-218012D01*
X-328937Y-222933D02*
X-321063D01*
X-328937D02*
Y-218012D01*
Y-206201D02*
X-321063D01*
Y-211122D02*
Y-206201D01*
X-328937Y-211122D02*
X-321063D01*
X-328937D02*
Y-206201D01*
X-257677Y-197343D02*
X-249803D01*
X-257677D02*
Y-192421D01*
X-249803D01*
Y-197343D02*
Y-192421D01*
X-328937Y-229823D02*
X-321063D01*
Y-234744D02*
Y-229823D01*
X-328937Y-234744D02*
X-321063D01*
X-328937D02*
Y-229823D01*
X-33268Y-53839D02*
X-25394D01*
Y-58760D02*
Y-53839D01*
X-33268Y-58760D02*
X-25394D01*
X-33268D02*
Y-53839D01*
X-304035Y-257283D02*
Y-249410D01*
X-299114D01*
Y-257283D02*
Y-249410D01*
X-304035Y-257283D02*
X-299114D01*
X-322736D02*
Y-249410D01*
X-317815D01*
Y-257283D02*
Y-249410D01*
X-322736Y-257283D02*
X-317815D01*
X-208957Y-257283D02*
Y-249409D01*
X-204035D01*
Y-257283D02*
Y-249409D01*
X-208957Y-257283D02*
X-204035D01*
X-228248Y-257283D02*
Y-249410D01*
X-223327D01*
Y-257283D02*
Y-249410D01*
X-228248Y-257283D02*
X-223327D01*
X-246949D02*
Y-249410D01*
X-242027D01*
Y-257283D02*
Y-249410D01*
X-246949Y-257283D02*
X-242027D01*
X-265650D02*
Y-249410D01*
X-260728D01*
Y-257283D02*
Y-249410D01*
X-265650Y-257283D02*
X-260728D01*
X-285701Y-285317D02*
X-279008D01*
X-285701Y-272719D02*
X-279008D01*
X-285701Y-285317D02*
Y-272719D01*
X-279008Y-285317D02*
Y-272719D01*
X-482677Y-111614D02*
Y-104921D01*
X-470079Y-111614D02*
Y-104921D01*
X-482677D02*
X-470079D01*
X-482677Y-111614D02*
X-470079D01*
X-482677Y-99803D02*
Y-93110D01*
X-470079Y-99803D02*
Y-93110D01*
X-482677D02*
X-470079D01*
X-482677Y-99803D02*
X-470079D01*
X-304921Y-285236D02*
X-298228D01*
X-304921Y-272638D02*
X-298228D01*
X-304921Y-285236D02*
Y-272638D01*
X-298228Y-285236D02*
Y-272638D01*
X-323622Y-285236D02*
X-316929D01*
X-323622Y-272638D02*
X-316929D01*
X-323622Y-285236D02*
Y-272638D01*
X-316929Y-285236D02*
Y-272638D01*
X-209842Y-285236D02*
X-203150D01*
X-209842Y-272638D02*
X-203150D01*
X-209842Y-285236D02*
Y-272638D01*
X-203150Y-285236D02*
Y-272638D01*
X-229134Y-285236D02*
X-222441D01*
X-229134Y-272638D02*
X-222441D01*
X-229134Y-285236D02*
Y-272638D01*
X-222441Y-285236D02*
Y-272638D01*
X-247835Y-285236D02*
X-241142D01*
X-247835Y-272638D02*
X-241142D01*
X-247835Y-285236D02*
Y-272638D01*
X-241142Y-285236D02*
Y-272638D01*
X-266535Y-285236D02*
X-259842D01*
X-266535Y-272638D02*
X-259842D01*
X-266535Y-285236D02*
Y-272638D01*
X-259842Y-285236D02*
Y-272638D01*
X-135827Y-181398D02*
X-68307D01*
Y-113878D01*
X-135827D02*
X-68307D01*
X-135827Y-181398D02*
Y-113878D01*
X-218307Y-122244D02*
X-150787D01*
Y-54724D01*
X-218307D02*
X-150787D01*
X-218307Y-122244D02*
Y-54724D01*
X-428445Y-171653D02*
X-422736D01*
X-428445Y-162992D02*
X-422736D01*
Y-171653D02*
Y-162992D01*
X-428445Y-171653D02*
Y-162992D01*
X-364488Y-292795D02*
Y-282008D01*
X-405669Y-292795D02*
X-364488D01*
X-405669D02*
Y-282008D01*
X-364488D01*
X-540827Y-172283D02*
X-530039D01*
X-540827D02*
Y-131102D01*
X-530039D01*
Y-172283D02*
Y-131102D01*
X-540827Y-251024D02*
X-530039D01*
X-540827D02*
Y-209842D01*
X-530039D01*
Y-251024D02*
Y-209842D01*
X-540728Y-48425D02*
X-530138D01*
Y-79606D02*
Y-48425D01*
X-540728Y-79606D02*
X-530138D01*
X-540728D02*
Y-48425D01*
X-151890Y-292697D02*
Y-282106D01*
X-183071Y-292697D02*
X-151890D01*
X-183071D02*
Y-282106D01*
X-151890D01*
X-540728Y-206142D02*
X-530138D01*
X-540728D02*
Y-174961D01*
X-530138D01*
Y-206142D02*
Y-174961D01*
X-411417Y-292697D02*
Y-282106D01*
X-442598Y-292697D02*
X-411417D01*
X-442598D02*
Y-282106D01*
X-411417D01*
X-238779Y-193071D02*
X-233661D01*
Y-204567D02*
Y-193071D01*
X-238779Y-204567D02*
X-233661D01*
X-238779D02*
Y-193071D01*
Y-196831D02*
X-235020Y-193071D01*
X-488386Y-82433D02*
X-467520D01*
X-488386D02*
Y-41976D01*
X-467520D01*
Y-82433D02*
Y-41976D01*
X-470079Y-82433D02*
X-467520Y-79874D01*
X-147441Y-243504D02*
X-145473Y-241535D01*
X-147441Y-253346D02*
Y-241535D01*
Y-253346D02*
X-135630D01*
Y-241535D01*
X-147441D02*
X-135630D01*
X-12185Y-87354D02*
X-10536D01*
X-7185Y-91063D01*
Y-123898D02*
Y-91063D01*
X-10536Y-127606D02*
X-7185Y-123898D01*
X-12185Y-127606D02*
X-10536D01*
X-46398D02*
Y-87354D01*
X-12185D01*
Y-127606D02*
Y-87354D01*
X-46398Y-127606D02*
X-12185D01*
X-440504Y-78945D02*
X-431488Y-69929D01*
Y-78945D02*
Y-53339D01*
X-445284D02*
X-431488D01*
X-445284Y-78945D02*
Y-53339D01*
Y-78945D02*
X-431488D01*
X-455512Y-210236D02*
X-453543Y-208268D01*
Y-210236D02*
Y-182677D01*
X-481102D02*
X-453543D01*
X-481102Y-210236D02*
Y-182677D01*
Y-210236D02*
X-453543D01*
X-428517Y-136669D02*
X-426868D01*
X-431868Y-132961D02*
X-428517Y-136669D01*
X-431868Y-132961D02*
Y-100126D01*
X-428517Y-96417D01*
X-426868D01*
X-392852Y-136669D02*
Y-96417D01*
X-426868Y-136669D02*
X-392852D01*
X-426868D02*
Y-96417D01*
X-392852D01*
X-223524Y-206102D02*
Y-195472D01*
X-217421D01*
Y-206102D02*
Y-195472D01*
X-223524Y-206102D02*
X-217421D01*
X-223524Y-203740D02*
X-221161Y-206102D01*
X-469291Y-37500D02*
X-461417D01*
X-469291D02*
Y-32579D01*
X-461417D01*
Y-37500D02*
Y-32579D01*
X-498327Y-71358D02*
Y-63484D01*
X-503248Y-71358D02*
X-498327D01*
X-503248D02*
Y-63484D01*
X-498327D01*
X-503248Y-59075D02*
Y-51201D01*
X-498327D01*
Y-59075D02*
Y-51201D01*
X-503248Y-59075D02*
X-498327D01*
X-33858Y-80709D02*
X-25984D01*
X-33858D02*
Y-75787D01*
X-25984D01*
Y-80709D02*
Y-75787D01*
X-178248Y-182480D02*
X-153740D01*
X-145571Y-174311D01*
Y-157972D01*
X-153740Y-149803D02*
X-145571Y-157972D01*
X-178248Y-149803D02*
X-153740D01*
X-178248Y-182480D02*
Y-149803D01*
X-79921Y-62697D02*
X-72047D01*
X-79921D02*
Y-57776D01*
X-72047D01*
Y-62697D02*
Y-57776D01*
X-103917Y-62402D02*
X-96043D01*
Y-67323D02*
Y-62402D01*
X-103917Y-67323D02*
X-96043D01*
X-103917D02*
Y-62402D01*
X-131791Y-106496D02*
X-107283D01*
X-99114Y-98327D01*
Y-81988D01*
X-107283Y-73819D02*
X-99114Y-81988D01*
X-131791Y-73819D02*
X-107283D01*
X-131791Y-106496D02*
Y-73819D01*
X-134252Y-256988D02*
X-126378D01*
Y-261910D02*
Y-256988D01*
X-134252Y-261910D02*
X-126378D01*
X-134252D02*
Y-256988D01*
X-163940Y-48881D02*
X-156066D01*
X-163940D02*
Y-43960D01*
X-156066D01*
Y-48881D02*
Y-43960D01*
X-235118Y-40650D02*
X-227244D01*
Y-45571D02*
Y-40650D01*
X-235118Y-45571D02*
X-227244D01*
X-235118D02*
Y-40650D01*
X-260039Y-82382D02*
X-235531D01*
X-227362Y-74213D01*
Y-57874D01*
X-235531Y-49705D02*
X-227362Y-57874D01*
X-260039Y-49705D02*
X-235531D01*
X-260039Y-82382D02*
Y-49705D01*
X-247559Y-146457D02*
X-239685D01*
Y-151378D02*
Y-146457D01*
X-247559Y-151378D02*
X-239685D01*
X-247559D02*
Y-146457D01*
X-247559Y-154724D02*
X-239685D01*
Y-159646D02*
Y-154724D01*
X-247559Y-159646D02*
X-239685D01*
X-247559D02*
Y-154724D01*
X-218602Y-149705D02*
X-194095D01*
X-226772Y-157874D02*
X-218602Y-149705D01*
X-226772Y-174213D02*
Y-157874D01*
Y-174213D02*
X-218602Y-182382D01*
X-194095D01*
Y-149705D01*
X-404134Y-91732D02*
X-379626D01*
X-371457Y-83563D01*
Y-67224D01*
X-379626Y-59055D02*
X-371457Y-67224D01*
X-404134Y-59055D02*
X-379626D01*
X-404134Y-91732D02*
Y-59055D01*
X-402953Y-149213D02*
X-395079D01*
Y-154134D02*
Y-149213D01*
X-402953Y-154134D02*
X-395079D01*
X-402953D02*
Y-149213D01*
X-119488Y-199606D02*
X-111614D01*
X-119488D02*
Y-194685D01*
X-111614D01*
Y-199606D02*
Y-194685D01*
X-369783Y-132283D02*
Y-124409D01*
X-364862D01*
Y-132283D02*
Y-124409D01*
X-369783Y-132283D02*
X-364862D01*
X-418996Y-64468D02*
Y-56595D01*
X-414075D01*
Y-64468D02*
Y-56595D01*
X-418996Y-64468D02*
X-414075D01*
X-450079Y-81791D02*
X-442205D01*
Y-86713D02*
Y-81791D01*
X-450079Y-86713D02*
X-442205D01*
X-450079D02*
Y-81791D01*
X-432756Y-86713D02*
X-424882D01*
X-432756D02*
Y-81791D01*
X-424882D01*
Y-86713D02*
Y-81791D01*
X-387894Y-187402D02*
Y-179527D01*
X-382972D01*
Y-187402D02*
Y-179527D01*
X-387894Y-187402D02*
X-382972D01*
X-387894Y-222835D02*
Y-214961D01*
X-382972D01*
Y-222835D02*
Y-214961D01*
X-387894Y-222835D02*
X-382972D01*
X-490158Y-165650D02*
X-482283D01*
Y-170571D02*
Y-165650D01*
X-490158Y-170571D02*
X-482283D01*
X-490158D02*
Y-165650D01*
Y-174311D02*
X-482283D01*
Y-179232D02*
Y-174311D01*
X-490158Y-179232D02*
X-482283D01*
X-490158D02*
Y-174311D01*
X-451575Y-217028D02*
X-443701D01*
X-451575D02*
Y-212106D01*
X-443701D01*
Y-217028D02*
Y-212106D01*
X-457185Y-228268D02*
Y-220394D01*
X-452264D01*
Y-228268D02*
Y-220394D01*
X-457185Y-228268D02*
X-452264D01*
X-496347Y-210550D02*
X-488473D01*
Y-215472D02*
Y-210550D01*
X-496347Y-215472D02*
X-488473D01*
X-496347D02*
Y-210550D01*
X-439665Y-172047D02*
Y-164173D01*
X-444587Y-172047D02*
X-439665D01*
X-444587D02*
Y-164173D01*
X-439665D01*
X-431398Y-171968D02*
Y-164094D01*
X-436319Y-171968D02*
X-431398D01*
X-436319D02*
Y-164094D01*
X-431398D01*
X-419783Y-234921D02*
Y-227047D01*
X-424705Y-234921D02*
X-419783D01*
X-424705D02*
Y-227047D01*
X-419783D01*
X-432185Y-234941D02*
Y-227067D01*
X-437106Y-234941D02*
X-432185D01*
X-437106D02*
Y-227067D01*
X-432185D01*
X-451791Y-138681D02*
X-443917D01*
Y-143602D02*
Y-138681D01*
X-451791Y-143602D02*
X-443917D01*
X-451791D02*
Y-138681D01*
X-345965Y-38189D02*
Y-30315D01*
X-350886Y-38189D02*
X-345965D01*
X-350886D02*
Y-30315D01*
X-345965D01*
X-324705Y-38504D02*
Y-30630D01*
X-329626Y-38504D02*
X-324705D01*
X-329626D02*
Y-30630D01*
X-324705D01*
X-337402Y-48917D02*
X-312894D01*
X-345571Y-57087D02*
X-337402Y-48917D01*
X-345571Y-73425D02*
Y-57087D01*
Y-73425D02*
X-337402Y-81595D01*
X-312894D01*
Y-48917D01*
X-238169Y-93504D02*
X-230295D01*
X-238169D02*
Y-88583D01*
X-230295D01*
Y-93504D02*
Y-88583D01*
X-318012Y-147933D02*
X-293504D01*
X-326181Y-156102D02*
X-318012Y-147933D01*
X-326181Y-172441D02*
Y-156102D01*
Y-172441D02*
X-318012Y-180610D01*
X-293504D01*
Y-147933D01*
X-360236Y-142421D02*
Y-88484D01*
X-306299D01*
Y-142421D02*
Y-88484D01*
X-360236Y-142421D02*
X-306299D01*
M02*
