G04*
G04 #@! TF.GenerationSoftware,Altium Limited,Altium Designer,21.7.2 (23)*
G04*
G04 Layer_Color=32768*
%FSLAX25Y25*%
%MOIN*%
G70*
G04*
G04 #@! TF.SameCoordinates,B7E76543-6187-4393-8A72-02BF7DF05099*
G04*
G04*
G04 #@! TF.FilePolarity,Positive*
G04*
G01*
G75*
%ADD11C,0.00394*%
%ADD136C,0.00197*%
%ADD137C,0.00004*%
D11*
X-403937Y-197244D02*
Y-193307D01*
X-405905Y-195276D02*
X-401968D01*
X-442421Y-224508D02*
Y-185138D01*
X-414468D01*
Y-224508D02*
Y-185138D01*
X-442421Y-224508D02*
X-414468D01*
X-286291Y-288073D02*
X-278417D01*
X-286291Y-269963D02*
X-278417D01*
X-286291Y-288073D02*
Y-269963D01*
X-278417Y-288073D02*
Y-269963D01*
X-282354Y-280987D02*
Y-277050D01*
X-284323Y-279018D02*
X-280386D01*
X-485433Y-112205D02*
Y-104331D01*
X-467323Y-112205D02*
Y-104331D01*
X-485433D02*
X-467323D01*
X-485433Y-112205D02*
X-467323D01*
X-478346Y-108268D02*
X-474409D01*
X-476378Y-110236D02*
Y-106299D01*
X-485433Y-100394D02*
Y-92520D01*
X-467323Y-100394D02*
Y-92520D01*
X-485433D02*
X-467323D01*
X-485433Y-100394D02*
X-467323D01*
X-478346Y-96457D02*
X-474409D01*
X-476378Y-98425D02*
Y-94488D01*
X-305512Y-287992D02*
X-297638D01*
X-305512Y-269882D02*
X-297638D01*
X-305512Y-287992D02*
Y-269882D01*
X-297638Y-287992D02*
Y-269882D01*
X-301575Y-280906D02*
Y-276969D01*
X-303543Y-278937D02*
X-299606D01*
X-324213Y-287992D02*
X-316339D01*
X-324213Y-269882D02*
X-316339D01*
X-324213Y-287992D02*
Y-269882D01*
X-316339Y-287992D02*
Y-269882D01*
X-320276Y-280906D02*
Y-276969D01*
X-322244Y-278937D02*
X-318307D01*
X-210433Y-287992D02*
X-202559D01*
X-210433Y-269882D02*
X-202559D01*
X-210433Y-287992D02*
Y-269882D01*
X-202559Y-287992D02*
Y-269882D01*
X-206496Y-280906D02*
Y-276969D01*
X-208465Y-278937D02*
X-204528D01*
X-229724Y-287992D02*
X-221850D01*
X-229724Y-269882D02*
X-221850D01*
X-229724Y-287992D02*
Y-269882D01*
X-221850Y-287992D02*
Y-269882D01*
X-225787Y-280906D02*
Y-276969D01*
X-227756Y-278937D02*
X-223819D01*
X-248425Y-287992D02*
X-240551D01*
X-248425Y-269882D02*
X-240551D01*
X-248425Y-287992D02*
Y-269882D01*
X-240551Y-287992D02*
Y-269882D01*
X-244488Y-280906D02*
Y-276969D01*
X-246457Y-278937D02*
X-242520D01*
X-267126Y-287992D02*
X-259252D01*
X-267126Y-269882D02*
X-259252D01*
X-267126Y-287992D02*
Y-269882D01*
X-259252Y-287992D02*
Y-269882D01*
X-263189Y-280906D02*
Y-276969D01*
X-265158Y-278937D02*
X-261220D01*
X-427559Y-167323D02*
X-423622D01*
X-425591Y-169291D02*
Y-165354D01*
X-211614Y-221949D02*
Y-185728D01*
Y-221949D02*
X-123031D01*
Y-185728D01*
X-211614D02*
X-123031D01*
X-452362Y-24606D02*
Y5709D01*
X-498819D02*
X-452362D01*
X-498819Y-24606D02*
Y5709D01*
Y-24606D02*
X-452362D01*
X-353209Y-50236D02*
Y14961D01*
X-426870D02*
X-353209D01*
X-426870Y-50236D02*
Y14961D01*
Y-50236D02*
X-353209D01*
X-37795Y-204331D02*
X-9449D01*
Y-252362D02*
Y-204331D01*
X-37795Y-252362D02*
X-9449D01*
X-37795D02*
Y-204331D01*
X-42913Y-285827D02*
Y-257480D01*
X-90945Y-285827D02*
X-42913D01*
X-90945D02*
Y-257480D01*
X-42913D01*
X-307677Y-234370D02*
Y-210000D01*
X-267496D01*
Y-234370D02*
Y-210000D01*
X-307677Y-234370D02*
X-267496D01*
X-286500Y-96358D02*
X-222524D01*
Y-142815D02*
Y-96358D01*
X-286500Y-142815D02*
X-222524D01*
X-286500D02*
Y-96358D01*
X-343799Y-46063D02*
Y-24016D01*
X-331004D01*
Y-46063D02*
Y-24016D01*
X-343799Y-46063D02*
X-331004D01*
D136*
X-402242Y-116543D02*
G03*
X-402242Y-116543I-1378J0D01*
G01*
X-393701Y-225197D02*
Y-165354D01*
X-414173D02*
X-393701D01*
X-414173Y-225197D02*
Y-165354D01*
Y-225197D02*
X-393701D01*
X-352953Y-193110D02*
X-339567D01*
Y-200591D02*
Y-193110D01*
X-352953Y-200591D02*
X-339567D01*
X-352953D02*
Y-193110D01*
X-270374Y-162303D02*
X-256988D01*
Y-169783D02*
Y-162303D01*
X-270374Y-169783D02*
X-256988D01*
X-270374D02*
Y-162303D01*
X-420348Y-139195D02*
X-406962D01*
Y-146676D02*
Y-139195D01*
X-420348Y-146676D02*
X-406962D01*
X-420348D02*
Y-139195D01*
X-286094Y-260121D02*
Y-246735D01*
X-278614D01*
Y-260121D02*
Y-246735D01*
X-286094Y-260121D02*
X-278614D01*
X-255413Y-94784D02*
X-242028D01*
X-255413D02*
Y-87303D01*
X-242028D01*
Y-94784D02*
Y-87303D01*
X-331693Y-193110D02*
X-318307D01*
Y-200591D02*
Y-193110D01*
X-331693Y-200591D02*
X-318307D01*
X-331693D02*
Y-193110D01*
X-463583Y-104528D02*
X-450197D01*
Y-112008D02*
Y-104528D01*
X-463583Y-112008D02*
X-450197D01*
X-463583D02*
Y-104528D01*
Y-92716D02*
X-450197D01*
Y-100197D02*
Y-92716D01*
X-463583Y-100197D02*
X-450197D01*
X-463583D02*
Y-92716D01*
X-458858Y-50197D02*
Y-36811D01*
X-451378D01*
Y-50197D02*
Y-36811D01*
X-458858Y-50197D02*
X-451378D01*
X-50689Y-74410D02*
X-37303D01*
Y-81890D02*
Y-74410D01*
X-50689Y-81890D02*
X-37303D01*
X-50689D02*
Y-74410D01*
X-66732Y-81693D02*
X-53347D01*
X-66732D02*
Y-74213D01*
X-53347D01*
Y-81693D02*
Y-74213D01*
X-82480Y-72835D02*
X-69095D01*
X-82480D02*
Y-65354D01*
X-69095D01*
Y-72835D02*
Y-65354D01*
X-171457Y-251870D02*
X-158071D01*
X-171457D02*
Y-244390D01*
X-158071D01*
Y-251870D02*
Y-244390D01*
X-346260Y-16339D02*
Y-2953D01*
X-338779D01*
Y-16339D02*
Y-2953D01*
X-346260Y-16339D02*
X-338779D01*
X-139961Y-277756D02*
Y-264370D01*
X-147441Y-277756D02*
X-139961D01*
X-147441D02*
Y-264370D01*
X-139961D01*
X-292126Y-243898D02*
X-278740D01*
X-292126D02*
Y-236417D01*
X-278740D01*
Y-243898D02*
Y-236417D01*
X-250689Y-162303D02*
X-237303D01*
Y-169783D02*
Y-162303D01*
X-250689Y-169783D02*
X-237303D01*
X-250689D02*
Y-162303D01*
X-185335Y-248031D02*
Y-234646D01*
X-192815Y-248031D02*
X-185335D01*
X-192815D02*
Y-234646D01*
X-185335D01*
X-173425Y-248031D02*
Y-234646D01*
X-180905Y-248031D02*
X-173425D01*
X-180905D02*
Y-234646D01*
X-173425D01*
X-415748Y-255709D02*
X-402362D01*
X-415748D02*
Y-248228D01*
X-402362D01*
Y-255709D02*
Y-248228D01*
X-429134Y-184055D02*
X-415748D01*
X-429134D02*
Y-176575D01*
X-415748D01*
Y-184055D02*
Y-176575D01*
X-429921Y-248228D02*
X-416535D01*
Y-255709D02*
Y-248228D01*
X-429921Y-255709D02*
X-416535D01*
X-429921D02*
Y-248228D01*
X-446063D02*
X-432677D01*
Y-255709D02*
Y-248228D01*
X-446063Y-255709D02*
X-432677D01*
X-446063D02*
Y-248228D01*
X-462303Y-168110D02*
Y-154724D01*
X-469783Y-168110D02*
X-462303D01*
X-469783D02*
Y-154724D01*
X-462303D01*
X-468504Y-144783D02*
X-455118D01*
X-468504D02*
Y-137303D01*
X-455118D01*
Y-144783D02*
Y-137303D01*
X-454528Y-131496D02*
Y-118110D01*
X-447047D01*
Y-131496D02*
Y-118110D01*
X-454528Y-131496D02*
X-447047D01*
X-406008Y-139195D02*
X-392622D01*
Y-146676D02*
Y-139195D01*
X-406008Y-146676D02*
X-392622D01*
X-406008D02*
Y-139195D01*
X-352953Y-216732D02*
X-339567D01*
Y-224213D02*
Y-216732D01*
X-352953Y-224213D02*
X-339567D01*
X-352953D02*
Y-216732D01*
Y-204921D02*
X-339567D01*
Y-212402D02*
Y-204921D01*
X-352953Y-212402D02*
X-339567D01*
X-352953D02*
Y-204921D01*
X-253740Y-213386D02*
Y-200000D01*
X-246260D01*
Y-213386D02*
Y-200000D01*
X-253740Y-213386D02*
X-246260D01*
X-353346Y-228543D02*
X-339961D01*
Y-236024D02*
Y-228543D01*
X-353346Y-236024D02*
X-339961D01*
X-353346D02*
Y-228543D01*
X-51772Y-52559D02*
X-38386D01*
Y-60039D02*
Y-52559D01*
X-51772Y-60039D02*
X-38386D01*
X-51772D02*
Y-52559D01*
X-331693Y-216732D02*
X-318307D01*
Y-224213D02*
Y-216732D01*
X-331693Y-224213D02*
X-318307D01*
X-331693D02*
Y-216732D01*
Y-204921D02*
X-318307D01*
Y-212402D02*
Y-204921D01*
X-331693Y-212402D02*
X-318307D01*
X-331693D02*
Y-204921D01*
X-260433Y-198622D02*
X-247047D01*
X-260433D02*
Y-191142D01*
X-247047D01*
Y-198622D02*
Y-191142D01*
X-331693Y-228543D02*
X-318307D01*
Y-236024D02*
Y-228543D01*
X-331693Y-236024D02*
X-318307D01*
X-331693D02*
Y-228543D01*
X-36024Y-52559D02*
X-22638D01*
Y-60039D02*
Y-52559D01*
X-36024Y-60039D02*
X-22638D01*
X-36024D02*
Y-52559D01*
X-305315Y-260039D02*
Y-246654D01*
X-297835D01*
Y-260039D02*
Y-246654D01*
X-305315Y-260039D02*
X-297835D01*
X-324016D02*
Y-246654D01*
X-316535D01*
Y-260039D02*
Y-246654D01*
X-324016Y-260039D02*
X-316535D01*
X-210236Y-260039D02*
Y-246654D01*
X-202756D01*
Y-260039D02*
Y-246654D01*
X-210236Y-260039D02*
X-202756D01*
X-229528Y-260039D02*
Y-246654D01*
X-222047D01*
Y-260039D02*
Y-246654D01*
X-229528Y-260039D02*
X-222047D01*
X-248228D02*
Y-246654D01*
X-240748D01*
Y-260039D02*
Y-246654D01*
X-248228Y-260039D02*
X-240748D01*
X-266929D02*
Y-246654D01*
X-259449D01*
Y-260039D02*
Y-246654D01*
X-266929Y-260039D02*
X-259449D01*
X-136811Y-185138D02*
X-67323D01*
Y-110138D01*
X-136811D02*
X-67323D01*
X-136811Y-185138D02*
Y-110138D01*
X-219291Y-125984D02*
X-149803D01*
Y-50984D01*
X-219291D02*
X-149803D01*
X-219291Y-125984D02*
Y-50984D01*
X-428878Y-174075D02*
Y-160571D01*
Y-174075D02*
X-422303D01*
Y-174075D02*
Y-160571D01*
X-428878D02*
X-422303D01*
X-363504Y-293779D02*
Y-281024D01*
X-406653Y-293779D02*
X-363504D01*
X-406653D02*
Y-281024D01*
X-363504D01*
X-541811Y-173268D02*
X-529055D01*
X-541811D02*
Y-130118D01*
X-529055D01*
Y-173268D02*
Y-130118D01*
X-541811Y-252008D02*
X-529055D01*
X-541811D02*
Y-208858D01*
X-529055D01*
Y-252008D02*
Y-208858D01*
X-541713Y-47441D02*
X-529153D01*
Y-80590D02*
Y-47441D01*
X-541713Y-80590D02*
X-529153D01*
X-541713D02*
Y-47441D01*
X-150906Y-293681D02*
Y-281122D01*
X-184055Y-293681D02*
X-150906D01*
X-184055D02*
Y-281122D01*
X-150906D01*
X-541713Y-207126D02*
X-529153D01*
X-541713D02*
Y-173976D01*
X-529153D01*
Y-207126D02*
Y-173976D01*
X-410433Y-293681D02*
Y-281122D01*
X-443583Y-293681D02*
X-410433D01*
X-443583D02*
Y-281122D01*
X-410433D01*
X-243799Y-191850D02*
X-228642D01*
Y-205787D02*
Y-191850D01*
X-243799Y-205787D02*
X-228642D01*
X-243799D02*
Y-191850D01*
X-496063Y-83858D02*
X-459842D01*
X-496063D02*
Y-40551D01*
X-459842D01*
Y-83858D02*
Y-40551D01*
X-153937Y-254528D02*
Y-240354D01*
Y-254528D02*
X-129134D01*
Y-240354D01*
X-153937D02*
X-129134D01*
X-66339Y-129134D02*
Y-85827D01*
X-4528D01*
Y-129134D02*
Y-85827D01*
X-66339Y-129134D02*
X-4528D01*
X-421654Y-80335D02*
Y-51949D01*
X-455118D02*
X-421654D01*
X-455118Y-80335D02*
Y-51949D01*
Y-80335D02*
X-421654D01*
X-446752Y-217028D02*
Y-175886D01*
X-487894D02*
X-446752D01*
X-487894Y-217028D02*
Y-175886D01*
Y-217028D02*
X-446752D01*
X-405588Y-116543D02*
X-401651D01*
X-403620Y-118512D02*
Y-114575D01*
X-372714Y-138197D02*
Y-94890D01*
X-434525Y-138197D02*
X-372714D01*
X-434525D02*
Y-94890D01*
X-372714D01*
X-227067Y-210827D02*
Y-190748D01*
X-213878D01*
Y-210827D02*
Y-190748D01*
X-227067Y-210827D02*
X-213878D01*
X-470965Y-38386D02*
X-459744D01*
X-470965D02*
Y-31693D01*
X-459744D01*
Y-38386D02*
Y-31693D01*
X-497441Y-73032D02*
Y-61811D01*
X-504134Y-73032D02*
X-497441D01*
X-504134D02*
Y-61811D01*
X-497441D01*
X-504134Y-60748D02*
Y-49528D01*
X-497441D01*
Y-60748D02*
Y-49528D01*
X-504134Y-60748D02*
X-497441D01*
X-35531Y-81595D02*
X-24311D01*
X-35531D02*
Y-74902D01*
X-24311D01*
Y-81595D02*
Y-74902D01*
X-185728Y-184843D02*
X-138091D01*
X-185728D02*
Y-147441D01*
X-138091D01*
Y-184843D02*
Y-147441D01*
X-81595Y-63583D02*
X-70374D01*
X-81595D02*
Y-56890D01*
X-70374D01*
Y-63583D02*
Y-56890D01*
X-105591Y-61516D02*
X-94370D01*
Y-68209D02*
Y-61516D01*
X-105591Y-68209D02*
X-94370D01*
X-105591D02*
Y-61516D01*
X-139272Y-108858D02*
X-91634D01*
X-139272D02*
Y-71457D01*
X-91634D01*
Y-108858D02*
Y-71457D01*
X-135925Y-256102D02*
X-124705D01*
Y-262795D02*
Y-256102D01*
X-135925Y-262795D02*
X-124705D01*
X-135925D02*
Y-256102D01*
X-165613Y-49767D02*
X-154393D01*
X-165613D02*
Y-43074D01*
X-154393D01*
Y-49767D02*
Y-43074D01*
X-236791Y-39764D02*
X-225571D01*
Y-46457D02*
Y-39764D01*
X-236791Y-46457D02*
X-225571D01*
X-236791D02*
Y-39764D01*
X-267520Y-84744D02*
X-219882D01*
X-267520D02*
Y-47343D01*
X-219882D01*
Y-84744D02*
Y-47343D01*
X-249232Y-145571D02*
X-238012D01*
Y-152264D02*
Y-145571D01*
X-249232Y-152264D02*
X-238012D01*
X-249232D02*
Y-145571D01*
X-249232Y-153839D02*
X-238012D01*
Y-160531D02*
Y-153839D01*
X-249232Y-160531D02*
X-238012D01*
X-249232D02*
Y-153839D01*
X-234252Y-147343D02*
X-186614D01*
Y-184744D02*
Y-147343D01*
X-234252Y-184744D02*
X-186614D01*
X-234252D02*
Y-147343D01*
X-411614Y-94095D02*
X-363976D01*
X-411614D02*
Y-56693D01*
X-363976D01*
Y-94095D02*
Y-56693D01*
X-404626Y-148327D02*
X-393406D01*
Y-155020D02*
Y-148327D01*
X-404626Y-155020D02*
X-393406D01*
X-404626D02*
Y-148327D01*
X-121161Y-200492D02*
X-109941D01*
X-121161D02*
Y-193799D01*
X-109941D01*
Y-200492D02*
Y-193799D01*
X-370669Y-133957D02*
Y-122736D01*
X-363976D01*
Y-133957D02*
Y-122736D01*
X-370669Y-133957D02*
X-363976D01*
X-419882Y-66142D02*
Y-54921D01*
X-413189D01*
Y-66142D02*
Y-54921D01*
X-419882Y-66142D02*
X-413189D01*
X-451752Y-80905D02*
X-440531D01*
Y-87598D02*
Y-80905D01*
X-451752Y-87598D02*
X-440531D01*
X-451752D02*
Y-80905D01*
X-434429Y-87598D02*
X-423209D01*
X-434429D02*
Y-80905D01*
X-423209D01*
Y-87598D02*
Y-80905D01*
X-388779Y-189075D02*
Y-177854D01*
X-382087D01*
Y-189075D02*
Y-177854D01*
X-388779Y-189075D02*
X-382087D01*
X-388779Y-224508D02*
Y-213287D01*
X-382087D01*
Y-224508D02*
Y-213287D01*
X-388779Y-224508D02*
X-382087D01*
X-491831Y-164764D02*
X-480610D01*
Y-171457D02*
Y-164764D01*
X-491831Y-171457D02*
X-480610D01*
X-491831D02*
Y-164764D01*
Y-173425D02*
X-480610D01*
Y-180118D02*
Y-173425D01*
X-491831Y-180118D02*
X-480610D01*
X-491831D02*
Y-173425D01*
X-453248Y-217913D02*
X-442028D01*
X-453248D02*
Y-211221D01*
X-442028D01*
Y-217913D02*
Y-211221D01*
X-458071Y-229941D02*
Y-218721D01*
X-451378D01*
Y-229941D02*
Y-218721D01*
X-458071Y-229941D02*
X-451378D01*
X-498020Y-209665D02*
X-486800D01*
Y-216357D02*
Y-209665D01*
X-498020Y-216357D02*
X-486800D01*
X-498020D02*
Y-209665D01*
X-438779Y-173721D02*
Y-162500D01*
X-445472Y-173721D02*
X-438779D01*
X-445472D02*
Y-162500D01*
X-438779D01*
X-430512Y-173642D02*
Y-162421D01*
X-437205Y-173642D02*
X-430512D01*
X-437205D02*
Y-162421D01*
X-430512D01*
X-418898Y-236595D02*
Y-225374D01*
X-425591Y-236595D02*
X-418898D01*
X-425591D02*
Y-225374D01*
X-418898D01*
X-431299Y-236614D02*
Y-225394D01*
X-437992Y-236614D02*
X-431299D01*
X-437992D02*
Y-225394D01*
X-431299D01*
X-453465Y-137795D02*
X-442244D01*
Y-144488D02*
Y-137795D01*
X-453465Y-144488D02*
X-442244D01*
X-453465D02*
Y-137795D01*
X-345079Y-39862D02*
Y-28642D01*
X-351772Y-39862D02*
X-345079D01*
X-351772D02*
Y-28642D01*
X-345079D01*
X-323819Y-40177D02*
Y-28957D01*
X-330512Y-40177D02*
X-323819D01*
X-330512D02*
Y-28957D01*
X-323819D01*
X-353051Y-46555D02*
X-305413D01*
Y-83957D02*
Y-46555D01*
X-353051Y-83957D02*
X-305413D01*
X-353051D02*
Y-46555D01*
X-239843Y-94390D02*
X-228622D01*
X-239843D02*
Y-87697D01*
X-228622D01*
Y-94390D02*
Y-87697D01*
X-333661Y-145571D02*
X-286024D01*
Y-182972D02*
Y-145571D01*
X-333661Y-182972D02*
X-286024D01*
X-333661D02*
Y-145571D01*
X-361221Y-145768D02*
Y-85138D01*
X-305315D01*
Y-145768D02*
Y-85138D01*
X-361221Y-145768D02*
X-305315D01*
D137*
X-46791Y-127972D02*
Y-86988D01*
X-11791D01*
Y-127972D02*
Y-86988D01*
X-46791Y-127972D02*
X-11791D01*
X-392360Y-137035D02*
Y-96051D01*
X-427360Y-137035D02*
X-392360D01*
X-427360D02*
Y-96051D01*
X-392360D01*
M02*
