M48
;Layer_Color=9474304
;FILE_FORMAT=2:4
INCH,TZ
;TYPE=PLATED
T1F00S00C0.0118
T2F00S00C0.0157
T3F00S00C0.0236
T4F00S00C0.0280
T5F00S00C0.0291
T6F00S00C0.0394
T7F00S00C0.0397
T8F00S00C0.0433
T9F00S00C0.0453
T10F00S00C0.0512
T11F00S00C0.0709
T12F00S00C0.0937
T13F00S00C0.2087
%
T01
X-4567Y-28543
X-5020Y-27638
X-4567Y-26732
X-4114Y-25827
X-5020
X-492
X-945Y-24921
X-492Y-24016
X-945Y-23110
X-492Y-22205
X-1398
X-945Y-21299
X-492Y-20394
X-1398
X-3209Y-22205
X-7283Y-23110
Y-24921
X-6831Y-25827
X-5925
X-6378Y-26732
Y-28543
X-5472
X-7283
X-8189
X-9094
X-10000
X-10905
X-11811
X-12717
X-13622
X-14528
X-13169Y-27638
X-12264
X-11811Y-26732
X-12717
X-13622
X-14075Y-25827
X-14980
X-12264
X-11811Y-24921
X-12717
X-11811Y-21299
X-10905
X-9793Y-21125
X-9399
Y-21518
X-9005
X-9005Y-21125
X-8612
Y-21518
Y-21912
X-9005Y-21912
X-9399
X-9793
X-9793Y-21518
X-9799Y-19960
X-9405
Y-19566
X-9012
X-9012Y-19173
X-8618
Y-19566
Y-19960
X-9012Y-19960
X-9405Y-19173
X-9799
Y-19566
X-9623Y-17832
Y-17439
Y-17045
X-9229
X-8836
Y-16651
X-8442
X-8048
Y-17045
Y-17439
Y-17832
X-8442
Y-17439
X-8836
Y-17832
X-9229
Y-17439
X-10017
X-10410
Y-17832
X-10017
X-10804
Y-17439
Y-17045
X-10410
X-10017
Y-16651
X-10410
X-10804
X-11198
Y-17045
X-11592
X-11985
X-12379
X-12773
X-13166
Y-17439
Y-17832
X-12773
Y-17439
X-12379
Y-17832
X-11985
X-11592
Y-17439
X-11985
X-11198
Y-17832
X-11592Y-16651
X-11985
X-12379
X-12773
X-13166
X-9623
X-9229
X-8442Y-17045
X-7283Y-17677
X-6831Y-18583
X-11358Y-20394
X-14980
Y-18583
X-17244Y-21299
X-18150Y-23110
X-19055
X-19508Y-24016
X-19961Y-24921
X-18150
X-17244
X-18602Y-27638
X-19055Y-28543
X-20646Y-22477
X-20413Y-20394
X-19508
X-19055Y-19488
X-8642Y-25827
X-21772Y-24921
X-21319Y-24016
X-23130
X-24035
X-24941
X-25846
X-26752
X-27657
X-27205Y-24921
X-25394
X-23583
X-22559Y-22165
X-24439Y-21846
X-26752Y-22205
X-25846Y-20394
X-23130
X-21319
Y-16772
X-27657
X-28563
X-34902
Y-20394
X-33996
X-33543Y-20866
X-33543Y-21299
X-33543Y-22047
X-33767Y-23220
X-31280Y-24016
X-30827Y-24921
X-29016
X-29468Y-24016
X-30827Y-21299
X-33543Y-19685
X-35807Y-27638
X-36260Y-28543
X-40787
X-44409
X-47126Y-24921
X-45492Y-23199
X-48937Y-23110
X-49843
X-50295Y-22205
X-48484
X-47747Y-19974
X-47425Y-19823
X-47097Y-19685
X-46773Y-19524
X-46250Y-19179
X-46258Y-18796
X-45650Y-18564
X-45067Y-17957
X-44954Y-17631
X-44573Y-18194
X-43051Y-18583
X-42146
X-41240
X-40787Y-19488
X-39882
X-39429Y-20394
Y-22205
X-38976Y-23110
X-38071
X-37165
X-37618Y-22205
X-36713Y-20394
X-37165Y-19488
X-38071
X-37618Y-18583
X-39429Y-16772
X-41240
Y-20394
Y-22205
X-40787Y-23110
X-39882
X-45630Y-16890
X-45354Y-16614
X-46233Y-17116
X-46575Y-17441
X-47153Y-17190
X-47242Y-16698
X-50295Y-18583
Y-25827
X-53012Y-4094
X-50295
X-49390
X-48937Y-3189
X-49843
X-49390Y-2283
X-48484
X-48937Y-1378
X-49843
X-46220
X-45315
X-45768Y-2283
X-46673
Y-4094
X-48110Y-4862
X-48031Y-6811
X-48484Y-7717
X-48937Y-8622
X-47717Y-8583
X-46220Y-8622
X-45768Y-7717
X-44862
X-43957Y-9528
X-44409Y-10433
X-43957Y-11339
X-44862
X-44409Y-12244
X-43957Y-13150
X-42982Y-13022
X-42589Y-13022
X-42195
X-41801
Y-13415
X-41407
Y-13022
X-41014
Y-13415
Y-12628
Y-12234
X-41407
Y-12628
X-41801
Y-12234
X-42195
Y-12628
X-42589
X-42982Y-12628
Y-12234
X-42589Y-12234
Y-11841
X-42982Y-11841
Y-11447
X-42589Y-11447
X-42195
Y-11841
X-41801
Y-11447
Y-11053
Y-10659
Y-10305
Y-9911
X-41407
Y-10305
Y-10659
Y-11053
X-41014
Y-10659
Y-10305
Y-9911
X-40335Y-9528
X-39429
X-38524
X-37815Y-9685
X-38976Y-10433
X-39882
X-40335Y-11339
X-41014Y-11447
Y-11841
X-41407
Y-11447
X-42195Y-11053
Y-10659
Y-10305
X-42589
Y-10659
X-42982Y-10659
Y-10305
Y-9911
X-42589Y-9911
X-42195
X-42589Y-11053
X-42982Y-11053
Y-13415
X-42589Y-13415
X-42195
X-42598Y-14055
X-43504
X-43051Y-14961
X-42146
X-44094Y-15787
X-45315Y-15866
X-45094Y-14808
X-47126Y-14055
X-48031Y-12244
X-48937
Y-10433
X-47717Y-10276
X-47579Y-11339
X-50295Y-7717
X-44409Y-5000
X-42598
X-41693
X-41240Y-4094
X-42146
X-42598Y-3189
Y-1378
X-41693
X-40787
X-39882
X-38976
X-38071
X-38524Y-2283
X-39429
X-40335
X-39882Y-3189
Y-6811
X-38976
X-38524Y-7717
X-38976Y-8622
X-39882
X-40787
X-41693
X-41240Y-7717
X-40787Y-6811
X-39882Y-12244
X-49843Y-15866
X-36358Y-15896
Y-15502
Y-15108
X-35965
X-35571
Y-15502
Y-15896
X-35965
Y-15502
X-35177
X-35177Y-15896
X-34783
Y-15502
Y-15108
X-35177
X-35236Y-13976
Y-13583
Y-13189
X-35630
Y-13583
Y-13976
X-34843
Y-13583
Y-13189
X-34449
X-34055
X-33661
X-33268
X-32874
Y-13583
Y-13976
X-33268
Y-13583
X-33661
Y-13976
X-34055
X-34449
Y-13583
X-34055
Y-12795
X-34449
X-34843
X-35236
X-35630
Y-12402
Y-12008
Y-11614
X-35236
X-34843
X-34449
X-34055
X-33661
X-33268
X-32874
X-32480
X-32087
X-31693
X-31299
Y-11220
X-30906
Y-10827
Y-10433
X-31299
Y-10827
X-31693
Y-10433
X-32087
Y-10827
X-32480
X-32874
Y-10433
X-32480
Y-11220
X-32874
X-33268
Y-10827
Y-10433
X-33661
Y-10827
X-34055
X-34449
Y-10433
Y-10039
Y-9646
Y-9252
X-34843
Y-9646
X-35236
Y-9252
X-35630
Y-9646
Y-10039
X-35236
X-34843
Y-10433
Y-10827
X-35236
Y-10433
X-35630
Y-10827
Y-11220
X-35236
X-34843
X-34449
X-34055
X-33661
Y-12008
Y-12402
Y-12795
X-33268
X-32874
X-32480
X-32087
Y-13189
X-31693
X-31299
Y-12795
Y-12402
Y-12008
X-30906
Y-12402
Y-12795
Y-13189
Y-13583
Y-13976
X-31299
Y-13583
X-31693
Y-13976
X-32087
Y-13583
X-31693Y-12795
Y-12402
Y-12008
X-32087
Y-12402
X-32480
Y-12008
X-32874
Y-12402
X-33268
Y-12008
X-34055
X-34449
Y-12402
X-34055
X-34843
Y-12008
X-35236
Y-12402
Y-8858
X-34843
X-34449
X-33661
Y-9252
Y-9646
X-33268
Y-9252
X-32874
Y-9646
X-32087
Y-9252
X-31693
Y-9646
X-31299
Y-9252
Y-8858
X-31693
X-32087
X-32874
X-33268
X-33091Y-7717
X-32185
X-31280
X-30906Y-8858
Y-9252
Y-9646
Y-10039
X-31299
X-31693
X-32087
Y-11220
X-31693
X-30906Y-11614
X-30374Y-11339
X-29468
X-29016Y-12244
X-29921
X-29468Y-13150
X-30374
X-29921Y-14055
X-29016
X-28100Y-13720
X-27707
X-27313
X-26919
X-26526
Y-13327
Y-12933
X-26919
X-27313
Y-13327
X-26919
X-27707
X-28100
Y-12933
Y-12539
Y-12146
X-27707
Y-12539
X-27313
X-26919
Y-12146
X-27313
Y-11752
X-26919
X-26526
X-26526Y-11358
X-26919
X-27313
Y-10965
Y-10571
X-26919
Y-10965
X-26526
Y-10571
X-26526Y-10177
X-26919
X-27313
X-27707
Y-10571
Y-10965
Y-11358
X-28100
Y-11752
X-27707Y-11752
Y-12933
X-26526Y-12539
Y-12146
X-26112Y-12156
Y-12549
X-25719
Y-12156
Y-11762
Y-11368
X-26112
Y-11762
Y-10974
Y-10581
Y-10187
X-25719Y-10187
Y-10581
Y-10974
X-25394Y-10433
X-24488
X-24941Y-11339
X-24488Y-12244
X-23583
X-24941Y-13150
X-25719Y-13337
Y-13730
X-26112
Y-13337
Y-12943
X-25719
X-25394Y-14055
X-26299
X-27205
X-26752Y-14961
X-25846
X-26299Y-15866
X-27205
X-28110
X-27657Y-14961
X-28563
X-29468
X-30374
X-31280
X-32185
X-33091
X-30827Y-15866
X-28100Y-10965
Y-10571
Y-10177
X-27657Y-9528
X-26752
X-25846
X-26299Y-8622
X-27205
X-28563Y-7717
X-28110Y-6811
X-27657Y-5906
X-26752
X-25846
X-24941
X-24035
X-23583Y-5000
X-24488
X-25394
X-26299
X-27205
X-28110
X-29016
X-28563Y-5906
X-31280
X-32185
X-33091
X-33996
Y-7717
X-32638Y-6811
X-33091Y-2283
X-33996
X-34902
X-35354Y-3189
X-32638Y-1378
X-29921
X-24488
X-23583
X-22677
X-23130Y-2283
X-24035
X-24941
X-24488Y-3189
X-23583
X-22677
X-24035Y-4094
X-24941
X-24488Y-6811
X-21324Y-6866
Y-6472
Y-6078
Y-5685
X-20930
Y-6078
Y-6472
Y-6866
Y-8440
Y-8834
X-21324
Y-9228
Y-9622
Y-10015
Y-10409
X-20930
Y-10015
Y-9622
Y-9228
Y-10803
Y-11196
Y-11590
Y-11984
X-20965Y-13012
X-21358
X-21752
X-21752Y-13406
X-21752Y-13799
X-21358
X-21358Y-13406
X-20965
X-20965Y-13799
X-20965Y-14193
X-21358
X-21752
X-21319Y-14961
X-20866Y-15866
X-21772
X-21324Y-11196
Y-10803
X-21772Y-10433
X-28563Y-9528
X-35630Y-8858
X-20537Y-8834
Y-8440
X-20143
Y-8834
X-19749
Y-8440
X-19356
Y-8834
Y-9228
Y-9622
Y-10015
Y-10409
X-18962
Y-10015
X-18568
Y-10409
X-18174
Y-10015
X-17781
Y-10409
Y-10803
X-18174
X-18568
X-18962
X-19356
X-19749
X-20143
Y-10409
X-19749
Y-10015
X-20143
X-20537
Y-10409
Y-10803
Y-11196
Y-11590
Y-11984
X-20143
Y-11590
X-19749
Y-11984
X-19356
Y-11590
X-18962
Y-11984
X-18568
Y-11590
X-18174
Y-11984
X-17781
Y-11590
X-17387
Y-11984
X-16993
Y-11590
X-16600
Y-11984
X-16206
Y-11590
X-15812
X-15419
Y-11984
X-15812
Y-11196
X-15419
Y-10803
X-15812
X-16206
X-16600
Y-10409
Y-10015
X-16206
Y-10409
X-15812
Y-10015
X-15419
Y-10409
Y-9622
X-15812
X-16206
X-16600
X-16993
Y-10015
Y-10409
Y-10803
Y-11196
X-17387
X-17781
X-18174
X-18568
X-18962
X-19356
X-19749
X-20143
Y-9622
X-19749
Y-9228
X-20143
X-20537
Y-9622
X-18962
X-18568
X-18174
X-17781
X-17387
Y-10015
Y-10409
Y-10803
X-16600Y-11196
X-16206
X-14980Y-11339
Y-9528
X-15419Y-9228
X-15812
X-16206
X-16600
X-16993
X-17387
X-17781
X-18174
X-18568
X-18962
Y-8834
Y-8440
X-18568
X-18174
Y-8834
X-18568
Y-8047
X-18174
Y-7653
Y-7259
X-18568
Y-7653
X-18962
Y-7259
Y-6866
Y-6472
X-18568
X-18174
X-17781
X-17387
Y-6078
Y-5685
X-17781
Y-6078
X-18174
X-18568
Y-5685
X-18174
X-18962
Y-6078
X-19356
Y-5685
X-19749
X-20143
Y-6078
X-19749
Y-6472
X-20143
X-20537
Y-6078
Y-5685
Y-6866
X-20143
X-19749
X-19356
Y-6472
Y-7259
Y-7653
X-19749
Y-7259
X-20143
Y-7653
Y-8047
X-19749
X-19356
X-18962
X-17781
Y-8440
Y-8834
X-17387
Y-8440
Y-8047
Y-7653
Y-7259
Y-6866
X-16993
Y-6472
X-16600
X-16206
Y-6078
Y-5685
X-16600
Y-6078
X-16993
Y-5685
X-15812
Y-6078
X-15419
Y-5685
X-14980Y-5906
X-15419Y-6472
X-15812
Y-6866
X-15419
Y-7259
X-15812
Y-7653
X-15419
Y-8047
X-15812
Y-8440
X-15419
Y-8834
X-15812
X-16206
Y-8440
X-16600
Y-8834
X-16993
Y-8440
Y-8047
X-16600
X-16206
Y-7653
Y-7259
Y-6866
X-16600
Y-7259
Y-7653
X-16993
Y-7259
X-17781
Y-7653
Y-6866
X-18174
X-18568
X-20537Y-8047
X-20571Y-13012
X-20177
X-20177Y-13406
X-20177Y-13799
X-20571
X-20571Y-13406
Y-14193
X-20177
X-20413Y-14961
X-19508
X-18602
X-17697
X-18150Y-14055
X-17697Y-13150
X-16791
X-18602
X-18150Y-15866
X-19055
X-19961
X-15433
X-14528
X-13622
X-13166Y-15864
Y-15470
X-12773
X-12379
X-11985
X-11592
X-11198
X-10804
X-10410
X-10017
X-9623
X-9229
X-8836
Y-15077
X-8442
X-8048
X-7655
Y-14683
Y-14289
X-8048
Y-14683
X-8442
Y-14289
X-8836
Y-14683
X-9229
Y-14289
X-9623
Y-14683
X-10017
X-10410
Y-14289
X-10017
Y-13895
X-10410
Y-13502
X-10412Y-13154
X-10019
X-10017Y-13502
X-9623
X-9625Y-13154
X-9231
X-9229Y-13502
X-8836
X-8838Y-13154
X-8444
X-8442Y-13502
X-8048
X-8050Y-13154
X-8048Y-12714
X-8442
X-8836
X-9229
Y-12321
Y-11927
Y-11533
X-9623
Y-11927
X-10017
X-10410
Y-11533
X-10017
Y-12321
X-10410
X-10804
Y-11927
Y-11533
X-11198
Y-11927
X-11592
X-11985
Y-11533
X-11592
Y-12321
X-11985
X-12379
Y-11927
Y-11533
X-12773
Y-11927
X-13166
Y-11533
Y-12321
X-12773
Y-12714
Y-13108
Y-13502
X-13166
Y-13108
Y-12714
X-12379
X-11985
X-11592
X-11198
Y-12321
X-10804Y-12714
X-10410
X-10017
X-9623
Y-12321
X-8836
X-8442
X-8048
Y-11927
Y-11533
X-8442
Y-11927
X-8836
Y-11533
X-8612Y-9715
X-8219
X-7825
X-7431
Y-9321
X-7825
Y-8927
X-8219
X-8612
Y-8533
X-8219
X-7825
X-7431
Y-8140
X-7825
X-8219
X-8612
Y-9321
X-8219
X-7431Y-8927
X-6378Y-8622
X-6831Y-7717
X-6378Y-6811
X-5472
X-5925Y-5906
X-6831
X-6378Y-5000
X-5472
X-5925Y-4094
X-6831
X-7736
X-8642
X-7283Y-5000
X-10905
X-11811
X-12717
X-13622
X-13169Y-5906
X-12264
X-11358
X-10453
X-10905Y-6811
X-11811
X-12717
X-13622
X-13169Y-7717
X-12264
X-11358
X-10453
X-11811Y-8622
X-11358Y-9528
X-10905Y-10433
X-10000
X-11811
X-12717
X-13622
Y-12244
X-14075Y-13150
X-13622Y-14055
X-13166Y-13895
X-12773
X-12379
Y-13502
X-12381Y-13154
X-11987
X-11985Y-13502
X-11592
X-11594Y-13154
X-11200
X-11198Y-13502
X-10804
X-10806Y-13154
X-10804Y-13895
X-11198
X-11592
X-11985
Y-14289
Y-14683
X-11592
Y-14289
X-11198
Y-14683
X-10804
Y-14289
Y-15077
X-11198
X-11592
X-11985
X-12379
Y-14683
Y-14289
X-12773
Y-14683
X-13166
Y-14289
Y-15077
X-12773
Y-15864
Y-16258
X-12379
Y-15864
X-11985
X-11592
Y-16258
X-11985
X-11198
Y-15864
X-10804
Y-16258
X-10410
Y-15864
X-10017
Y-16258
X-9623
Y-15864
X-9229
Y-16258
X-8836
Y-15864
X-8442
Y-16258
X-8048
Y-15864
X-7655
Y-15470
X-8048
X-8442
X-9229Y-15077
X-9623
X-10017
X-10410
X-9623Y-13895
X-9229
X-8836
X-8442
X-8048
X-7655
Y-13502
Y-13108
X-6378Y-14055
X-5472
X-14528
X-14075Y-14961
X-14980
X-15886
X-14980Y-7717
X-15886Y-4094
X-16791
X-15433Y-3189
X-14980Y-2283
X-15886
X-15433Y-1378
X-16339
X-17244
X-9094
X-9547Y-2283
X-4567Y-1378
Y-3189
X-4114Y-4094
X-4567Y-5000
X-2756
X-1850
X-945
X-492Y-4094
Y-5906
X-945Y-6811
X-1850
X-1398Y-7717
X-492
X-876Y-8947
Y-9341
X-1270
X-1663
X-2057
X-2451
X-2844
Y-9734
X-2451
Y-10128
Y-10522
X-2844
Y-10128
X-3238Y-10128
Y-10522
Y-10915
X-3632
Y-11309
Y-11703
Y-12096
X-4026
X-4026Y-12490
X-3632
X-3238
X-3238Y-12096
Y-11703
Y-11309
X-2844
Y-11703
Y-12096
X-2451
Y-11703
Y-11309
X-2057
Y-11703
Y-12096
X-1663
X-1270
X-876
Y-11703
Y-11309
Y-10915
X-1270
X-1663
X-2057
Y-10522
Y-10128
X-1663
Y-10522
X-1270
X-1270Y-10128
X-876Y-10128
Y-10522
X-876Y-9734
X-1270
X-1663
X-2057
X-2057Y-8947
X-2451
X-2844
X-3238
X-3632
Y-9341
Y-9734
X-3238
X-3238Y-9341
X-4026
Y-9734
Y-10128
X-4026Y-10522
X-3632
Y-10128
X-4026Y-10915
Y-11309
Y-11703
X-5020Y-11339
Y-9528
X-4026Y-8947
X-1663
X-1270
X-2303Y-7717
X-3661Y-6811
X-4567
X-2844Y-10915
X-2451
X-1663Y-11309
Y-11703
X-1270
Y-11309
Y-12490
X-1663
X-2057
X-2451
X-2844
X-876Y-12490
X-5020Y-13150
T02
X-18898Y-25551
X-17717Y-25197
X-16850Y-24252
X-26732Y-19488
X-28660Y-20424
X-29460Y-20402
X-29191Y-21837
X-30276Y-21654
X-25404Y-16604
X-45709Y-24803
X-40994Y-15098
X-22874Y-10049
T03
X-20650Y-24173
X-17288Y-23140
X-22579Y-24124
X-24449Y-24124
X-26309Y-24128
X-30157Y-24173
X-32025Y-24184
X-35581Y-23898
X-36083Y-26683
X-32150Y-19045
X-36772Y-23898
X-44841Y-23836
X-48887Y-22403
X-49173Y-19016
X-50246Y-15305
X-47972Y-12972
X-17577Y-14274
X-15922
T04
X-18937Y-26693
X-4082Y-4839
X-1654Y-5630
T05
X-27805Y-8362
Y-7362
Y-6362
T06
X-40382Y-4020
X-39398
X-38610
X-37626
T07
X-29646Y-22441
X-28543
X-27441
T08
X-17748Y-28740
X-16748
X-15748
X-15827Y-21309
X-13071
X-20354
Y-19459
X-41701Y-28740
X-42701
X-43701
X-53543Y-20055
Y-19055
Y-18055
Y-7402
Y-6402
Y-5402
T09
X-40008Y-28740
X-39008
X-38008
X-37008
X-53543Y-24543
Y-23543
Y-22543
Y-21543
Y-16669
Y-15669
Y-14669
Y-13669
T10
X-1181Y-19701
Y-18701
Y-17240
X-9528Y-27362
X-10528
X-34039Y-28346
X-35039
X-45457
X-46457
X-48213
X-49213
X-53150Y-12220
Y-11220
Y-9858
Y-8858
X-44504Y-1181
X-43504
X-31675
X-30675
X-29275
X-28275
X-26875
X-25875
X-21418
X-20418
X-19018
X-18018
X-14044
X-13044
X-11644
X-10644
X-1181Y-13764
Y-14764
Y-16240
T11
X-2362Y-23819
Y-21850
X-5709Y-27165
X-7677
T12
X-41591Y-2953
X-36417
T13
X-1772Y-27756
X-52559
Y-1772
X-1772
M30
