G04*
G04 #@! TF.GenerationSoftware,Altium Limited,Altium Designer,21.7.2 (23)*
G04*
G04 Layer_Color=8388736*
%FSLAX25Y25*%
%MOIN*%
G70*
G04*
G04 #@! TF.SameCoordinates,B7E76543-6187-4393-8A72-02BF7DF05099*
G04*
G04*
G04 #@! TF.FilePolarity,Negative*
G04*
G01*
G75*
%ADD21R,0.08674X0.22453*%
%ADD22R,0.08280X0.05918*%
%ADD23R,0.09461X0.05524*%
%ADD24R,0.04737X0.06312*%
%ADD25R,0.06312X0.04737*%
%ADD26R,0.05500X0.11200*%
%ADD27R,0.06706X0.06312*%
%ADD28R,0.06312X0.06706*%
%ADD29R,0.48831X0.18713*%
%ADD30R,0.06587X0.05859*%
%ADD31R,0.09855X0.08280*%
%ADD32R,0.07887X0.08280*%
%ADD33R,0.01968X0.05906*%
%ADD34R,0.05721X0.03162*%
%ADD35R,0.07244X0.02323*%
%ADD36R,0.06312X0.01981*%
%ADD37R,0.27769X0.42139*%
%ADD38R,0.11824X0.04934*%
%ADD39R,0.09304X0.05013*%
%ADD40R,0.08320X0.43320*%
%ADD41R,0.20800X0.33595*%
%ADD42R,0.05918X0.13595*%
%ADD43R,0.05918X0.04540*%
%ADD44R,0.01575X0.06201*%
%ADD45R,0.06201X0.01575*%
%ADD46R,0.11824X0.04343*%
%ADD47R,0.03162X0.03162*%
%ADD48R,0.03753X0.05524*%
%ADD49R,0.06272X0.06312*%
%ADD50R,0.14028X0.19934*%
%ADD51R,0.06312X0.06272*%
%ADD52R,0.19934X0.14028*%
%ADD53R,0.04383X0.06272*%
%ADD54R,0.06272X0.04383*%
%ADD55R,0.17335X0.07887*%
%ADD56R,0.14186X0.14973*%
%ADD57C,0.05682*%
%ADD58C,0.07296*%
%ADD59R,0.08477X0.16548*%
%ADD60R,0.07591X0.07591*%
%ADD61C,0.07591*%
%ADD62R,0.07591X0.07591*%
%ADD63C,0.14855*%
%ADD64C,0.06706*%
%ADD65R,0.07296X0.07296*%
%ADD66R,0.07296X0.07296*%
%ADD67R,0.16548X0.08477*%
%ADD68C,0.11430*%
%ADD69C,0.06753*%
%ADD70C,0.35433*%
%ADD71C,0.04737*%
%ADD72C,0.02562*%
%ADD73C,0.03162*%
%ADD74C,0.02992*%
%ADD75C,0.03556*%
%ADD76C,0.05800*%
D21*
X-403937Y-213976D02*
D03*
Y-176575D02*
D03*
D22*
X-422146Y-215650D02*
D03*
Y-193996D02*
D03*
X-434744D02*
D03*
Y-215650D02*
D03*
D23*
X-489764Y-128445D02*
D03*
X-460236D02*
D03*
D24*
X-350000Y-196850D02*
D03*
X-342520D02*
D03*
X-267421Y-166043D02*
D03*
X-259941D02*
D03*
X-417395Y-142935D02*
D03*
X-409915D02*
D03*
X-244980Y-91043D02*
D03*
X-252461D02*
D03*
X-328740Y-196850D02*
D03*
X-321260D02*
D03*
X-460630Y-108268D02*
D03*
X-453150D02*
D03*
X-460630Y-96457D02*
D03*
X-453150D02*
D03*
X-47736Y-78150D02*
D03*
X-40256D02*
D03*
X-56299Y-77953D02*
D03*
X-63779D02*
D03*
X-72047Y-69095D02*
D03*
X-79528D02*
D03*
X-161024Y-248130D02*
D03*
X-168504D02*
D03*
X-281693Y-240158D02*
D03*
X-289173D02*
D03*
X-247736Y-166043D02*
D03*
X-240256D02*
D03*
X-405315Y-251969D02*
D03*
X-412795D02*
D03*
X-418701Y-180315D02*
D03*
X-426181D02*
D03*
X-426968Y-251969D02*
D03*
X-419488D02*
D03*
X-443110D02*
D03*
X-435630D02*
D03*
X-458071Y-141043D02*
D03*
X-465551D02*
D03*
X-403055Y-142935D02*
D03*
X-395575D02*
D03*
X-350000Y-220472D02*
D03*
X-342520D02*
D03*
X-350000Y-208661D02*
D03*
X-342520D02*
D03*
X-350394Y-232283D02*
D03*
X-342913D02*
D03*
X-48819Y-56299D02*
D03*
X-41339D02*
D03*
X-328740Y-220472D02*
D03*
X-321260D02*
D03*
X-328740Y-208661D02*
D03*
X-321260D02*
D03*
X-250000Y-194882D02*
D03*
X-257480D02*
D03*
X-328740Y-232283D02*
D03*
X-321260D02*
D03*
X-33071Y-56299D02*
D03*
X-25591D02*
D03*
D25*
X-282354Y-257168D02*
D03*
Y-249687D02*
D03*
X-455118Y-47244D02*
D03*
Y-39764D02*
D03*
X-342520Y-13386D02*
D03*
Y-5906D02*
D03*
X-143701Y-267323D02*
D03*
Y-274803D02*
D03*
X-189075Y-237598D02*
D03*
Y-245079D02*
D03*
X-177165Y-237598D02*
D03*
Y-245079D02*
D03*
X-466043Y-157677D02*
D03*
Y-165157D02*
D03*
X-450787Y-128543D02*
D03*
Y-121063D02*
D03*
X-250000Y-210433D02*
D03*
Y-202953D02*
D03*
X-301575Y-257087D02*
D03*
Y-249606D02*
D03*
X-320276Y-257087D02*
D03*
Y-249606D02*
D03*
X-206496Y-257087D02*
D03*
Y-249606D02*
D03*
X-225787Y-257087D02*
D03*
Y-249606D02*
D03*
X-244488Y-257087D02*
D03*
Y-249606D02*
D03*
X-263189Y-257087D02*
D03*
Y-249606D02*
D03*
D26*
X-62454Y-244882D02*
D03*
X-80853D02*
D03*
D27*
X-282354Y-284924D02*
D03*
Y-273113D02*
D03*
X-301575Y-284842D02*
D03*
Y-273031D02*
D03*
X-320276Y-284842D02*
D03*
Y-273031D02*
D03*
X-206496Y-284842D02*
D03*
Y-273031D02*
D03*
X-225787Y-284842D02*
D03*
Y-273031D02*
D03*
X-244488Y-284842D02*
D03*
Y-273031D02*
D03*
X-263189Y-284842D02*
D03*
Y-273031D02*
D03*
D28*
X-482283Y-108268D02*
D03*
X-470472D02*
D03*
X-482283Y-96457D02*
D03*
X-470472D02*
D03*
D29*
X-102067Y-120079D02*
D03*
Y-175197D02*
D03*
X-184547Y-60925D02*
D03*
Y-116043D02*
D03*
D30*
X-425591Y-171152D02*
D03*
Y-163494D02*
D03*
D31*
X-490354Y-6693D02*
D03*
X-460827D02*
D03*
D32*
X-480118D02*
D03*
X-471063D02*
D03*
D33*
X-480709Y-17913D02*
D03*
X-478150D02*
D03*
X-475591D02*
D03*
X-473032D02*
D03*
X-470472D02*
D03*
D34*
X-240354Y-195059D02*
D03*
Y-202579D02*
D03*
X-232087Y-198819D02*
D03*
D35*
X-464173Y-78839D02*
D03*
Y-76279D02*
D03*
Y-73721D02*
D03*
Y-71161D02*
D03*
Y-68602D02*
D03*
Y-66043D02*
D03*
Y-63484D02*
D03*
Y-60925D02*
D03*
Y-58366D02*
D03*
Y-55807D02*
D03*
Y-53248D02*
D03*
Y-50689D02*
D03*
Y-48130D02*
D03*
Y-45571D02*
D03*
X-491732D02*
D03*
Y-48130D02*
D03*
Y-50689D02*
D03*
Y-53248D02*
D03*
Y-55807D02*
D03*
Y-58366D02*
D03*
Y-60925D02*
D03*
Y-63484D02*
D03*
Y-66043D02*
D03*
Y-68602D02*
D03*
Y-71161D02*
D03*
Y-73721D02*
D03*
Y-76279D02*
D03*
Y-78839D02*
D03*
D36*
X-132874Y-243504D02*
D03*
Y-245472D02*
D03*
Y-247441D02*
D03*
Y-249409D02*
D03*
Y-251378D02*
D03*
X-150197D02*
D03*
Y-249409D02*
D03*
Y-247441D02*
D03*
Y-245472D02*
D03*
Y-243504D02*
D03*
D37*
X-19094Y-107480D02*
D03*
X-419958Y-116543D02*
D03*
D38*
X-59843Y-120866D02*
D03*
Y-114173D02*
D03*
Y-107480D02*
D03*
Y-100787D02*
D03*
Y-94095D02*
D03*
D39*
X-228744Y-132972D02*
D03*
Y-126279D02*
D03*
Y-119587D02*
D03*
Y-112894D02*
D03*
Y-106201D02*
D03*
D40*
X-280772Y-119587D02*
D03*
D41*
X-268012D02*
D03*
D42*
X-451575Y-66142D02*
D03*
D43*
X-425197Y-57126D02*
D03*
Y-66142D02*
D03*
Y-75157D02*
D03*
D44*
X-456496Y-213142D02*
D03*
X-458465D02*
D03*
X-460433D02*
D03*
X-462402D02*
D03*
X-464370D02*
D03*
X-466339D02*
D03*
X-468307D02*
D03*
X-470276D02*
D03*
X-472244D02*
D03*
X-474213D02*
D03*
X-476181D02*
D03*
X-478150D02*
D03*
Y-179772D02*
D03*
X-476181D02*
D03*
X-474213D02*
D03*
X-472244D02*
D03*
X-470276D02*
D03*
X-468307D02*
D03*
X-466339D02*
D03*
X-464370D02*
D03*
X-462402D02*
D03*
X-460433D02*
D03*
X-458465D02*
D03*
X-456496D02*
D03*
D45*
X-484008Y-207283D02*
D03*
Y-205315D02*
D03*
Y-203346D02*
D03*
Y-201378D02*
D03*
Y-199409D02*
D03*
Y-197441D02*
D03*
Y-195473D02*
D03*
Y-193504D02*
D03*
Y-191535D02*
D03*
Y-189567D02*
D03*
Y-187598D02*
D03*
Y-185630D02*
D03*
X-450638D02*
D03*
Y-187598D02*
D03*
Y-189567D02*
D03*
Y-191535D02*
D03*
Y-193504D02*
D03*
Y-195473D02*
D03*
Y-197441D02*
D03*
Y-199409D02*
D03*
Y-201378D02*
D03*
Y-203346D02*
D03*
Y-205315D02*
D03*
Y-207283D02*
D03*
D46*
X-379210Y-101543D02*
D03*
Y-106543D02*
D03*
Y-111543D02*
D03*
Y-116543D02*
D03*
Y-121543D02*
D03*
Y-126543D02*
D03*
Y-131543D02*
D03*
D47*
X-337402Y-37795D02*
D03*
Y-29134D02*
D03*
D48*
X-220472Y-207480D02*
D03*
Y-194095D02*
D03*
D49*
X-84114Y-104528D02*
D03*
X-76870D02*
D03*
D50*
X-80492Y-88850D02*
D03*
D51*
X-194953Y-139646D02*
D03*
Y-132402D02*
D03*
X-340353Y-158549D02*
D03*
Y-151305D02*
D03*
X-76842Y-219173D02*
D03*
Y-211929D02*
D03*
Y-199488D02*
D03*
Y-192244D02*
D03*
D52*
X-210630Y-136024D02*
D03*
X-356031Y-154927D02*
D03*
X-92520Y-215551D02*
D03*
Y-195866D02*
D03*
D53*
X-462126Y-35039D02*
D03*
X-468583D02*
D03*
X-26693Y-78248D02*
D03*
X-33150D02*
D03*
X-72756Y-60236D02*
D03*
X-79213D02*
D03*
X-103209Y-64862D02*
D03*
X-96752D02*
D03*
X-133543Y-259449D02*
D03*
X-127087D02*
D03*
X-156775Y-46420D02*
D03*
X-163232D02*
D03*
X-234409Y-43110D02*
D03*
X-227953D02*
D03*
X-246850Y-148917D02*
D03*
X-240394D02*
D03*
X-246850Y-157185D02*
D03*
X-240394D02*
D03*
X-402244Y-151673D02*
D03*
X-395787D02*
D03*
X-112323Y-197146D02*
D03*
X-118780D02*
D03*
X-449370Y-84252D02*
D03*
X-442913D02*
D03*
X-425591D02*
D03*
X-432047D02*
D03*
X-489449Y-168110D02*
D03*
X-482992D02*
D03*
X-489449Y-176772D02*
D03*
X-482992D02*
D03*
X-444410Y-214567D02*
D03*
X-450866D02*
D03*
X-495638Y-213011D02*
D03*
X-489182D02*
D03*
X-451083Y-141142D02*
D03*
X-444626D02*
D03*
X-231004Y-91043D02*
D03*
X-237461D02*
D03*
D54*
X-500787Y-64193D02*
D03*
Y-70650D02*
D03*
Y-58366D02*
D03*
Y-51909D02*
D03*
X-367323Y-131575D02*
D03*
Y-125118D02*
D03*
X-416535Y-63760D02*
D03*
Y-57303D02*
D03*
X-385433Y-186693D02*
D03*
Y-180236D02*
D03*
Y-222126D02*
D03*
Y-215669D02*
D03*
X-454724Y-227559D02*
D03*
Y-221102D02*
D03*
X-442126Y-164882D02*
D03*
Y-171339D02*
D03*
X-433858Y-164803D02*
D03*
Y-171260D02*
D03*
X-422244Y-227756D02*
D03*
Y-234213D02*
D03*
X-434646Y-227776D02*
D03*
Y-234232D02*
D03*
X-348425Y-31024D02*
D03*
Y-37480D02*
D03*
X-327165Y-31339D02*
D03*
Y-37795D02*
D03*
D55*
X-148327Y-166142D02*
D03*
X-175492D02*
D03*
X-101870Y-90158D02*
D03*
X-129035D02*
D03*
X-230118Y-66043D02*
D03*
X-257283D02*
D03*
X-224016Y-166043D02*
D03*
X-196850D02*
D03*
X-374213Y-75394D02*
D03*
X-401378D02*
D03*
X-342815Y-65256D02*
D03*
X-315650D02*
D03*
X-323425Y-164272D02*
D03*
X-296260D02*
D03*
D56*
X-333268Y-137697D02*
D03*
Y-93209D02*
D03*
D57*
X-278051Y-63622D02*
D03*
Y-73622D02*
D03*
Y-83622D02*
D03*
D58*
X-203543Y-194587D02*
D03*
X-130709Y-213090D02*
D03*
X-158268D02*
D03*
X-203543D02*
D03*
X-535433Y-64016D02*
D03*
Y-74016D02*
D03*
X-167480Y-287402D02*
D03*
X-177480D02*
D03*
X-535433Y-190551D02*
D03*
Y-180551D02*
D03*
X-427008Y-287402D02*
D03*
X-437008D02*
D03*
D59*
X-105276Y-273622D02*
D03*
X-95276D02*
D03*
X-445039Y-11811D02*
D03*
X-435039D02*
D03*
X-464567Y-283465D02*
D03*
X-454567D02*
D03*
X-492126D02*
D03*
X-482126D02*
D03*
X-340394D02*
D03*
X-350394D02*
D03*
X-140438Y-11811D02*
D03*
X-130438D02*
D03*
X-116438D02*
D03*
X-106438D02*
D03*
X-190177D02*
D03*
X-180177D02*
D03*
X-214177D02*
D03*
X-204177D02*
D03*
X-292752D02*
D03*
X-282752D02*
D03*
X-316752D02*
D03*
X-306752D02*
D03*
X-268752D02*
D03*
X-258752D02*
D03*
D60*
X-370079Y-287402D02*
D03*
D61*
X-380079D02*
D03*
X-390079D02*
D03*
X-400079D02*
D03*
X-535433Y-156693D02*
D03*
Y-146693D02*
D03*
Y-136693D02*
D03*
Y-235433D02*
D03*
Y-225433D02*
D03*
Y-215433D02*
D03*
D62*
Y-166693D02*
D03*
Y-245433D02*
D03*
D63*
X-415906Y-29528D02*
D03*
X-364173D02*
D03*
D64*
X-403819Y-40197D02*
D03*
X-393976D02*
D03*
X-386102D02*
D03*
X-376260D02*
D03*
D65*
X-535433Y-54016D02*
D03*
Y-200551D02*
D03*
D66*
X-157480Y-287402D02*
D03*
X-417008D02*
D03*
D67*
X-531496Y-98583D02*
D03*
Y-88583D02*
D03*
Y-122205D02*
D03*
Y-112205D02*
D03*
X-11811Y-137638D02*
D03*
Y-147638D02*
D03*
Y-162402D02*
D03*
Y-172402D02*
D03*
Y-197008D02*
D03*
Y-187008D02*
D03*
D68*
X-23622Y-218504D02*
D03*
Y-238189D02*
D03*
X-57087Y-271654D02*
D03*
X-76772D02*
D03*
D69*
X-274410Y-224410D02*
D03*
X-285433D02*
D03*
X-296457D02*
D03*
D70*
X-17717Y-17717D02*
D03*
Y-277559D02*
D03*
X-525591D02*
D03*
Y-17717D02*
D03*
D71*
X-321498Y-190454D02*
D03*
X-448413Y-238360D02*
D03*
X-360827Y-266831D02*
D03*
X-502461Y-153051D02*
D03*
X-479724Y-129724D02*
D03*
X-367717Y-238976D02*
D03*
X-355811D02*
D03*
X-175765Y-142738D02*
D03*
X-159220D02*
D03*
X-172875Y-231399D02*
D03*
X-491732Y-190157D02*
D03*
X-488867Y-224035D02*
D03*
X-301575Y-241732D02*
D03*
X-320249Y-241839D02*
D03*
X-263093Y-241279D02*
D03*
X-206496Y-241732D02*
D03*
X-244488Y-241240D02*
D03*
X-225787Y-241240D02*
D03*
D72*
X-454921Y-231988D02*
D03*
X-467729Y-195242D02*
D03*
X-474251Y-198226D02*
D03*
X-470965Y-196852D02*
D03*
X-477470Y-199735D02*
D03*
X-449537Y-176311D02*
D03*
X-462577Y-187959D02*
D03*
X-462503Y-191788D02*
D03*
X-450675Y-179569D02*
D03*
D73*
X-4921Y-40945D02*
D03*
X-9449Y-50000D02*
D03*
X-4921Y-59055D02*
D03*
X-9449Y-68110D02*
D03*
X-4921Y-77165D02*
D03*
Y-203937D02*
D03*
X-9449Y-212992D02*
D03*
X-4921Y-222047D02*
D03*
X-9449Y-231102D02*
D03*
X-4921Y-240157D02*
D03*
X-9449Y-249213D02*
D03*
X-4921Y-258268D02*
D03*
X-18504Y-50000D02*
D03*
Y-68110D02*
D03*
X-13976Y-77165D02*
D03*
Y-203937D02*
D03*
Y-222047D02*
D03*
X-27559Y-50000D02*
D03*
X-23031Y-77165D02*
D03*
X-36614Y-68110D02*
D03*
X-32087Y-222047D02*
D03*
X-45669Y-13779D02*
D03*
Y-31890D02*
D03*
X-41142Y-40945D02*
D03*
X-45669Y-50000D02*
D03*
Y-68110D02*
D03*
X-41142Y-258268D02*
D03*
X-45669Y-267323D02*
D03*
Y-285433D02*
D03*
X-54724Y-50000D02*
D03*
Y-68110D02*
D03*
X-50197Y-95275D02*
D03*
Y-113386D02*
D03*
Y-131496D02*
D03*
X-54724Y-140551D02*
D03*
X-50197Y-258268D02*
D03*
Y-276378D02*
D03*
X-54724Y-285433D02*
D03*
X-59252Y-40945D02*
D03*
X-63779Y-50000D02*
D03*
X-59252Y-59055D02*
D03*
X-63779Y-68110D02*
D03*
Y-86220D02*
D03*
Y-140551D02*
D03*
X-59252Y-258268D02*
D03*
X-63779Y-267323D02*
D03*
Y-285433D02*
D03*
X-68307Y-40945D02*
D03*
X-72834Y-50000D02*
D03*
X-68307Y-59055D02*
D03*
Y-77165D02*
D03*
X-72834Y-176772D02*
D03*
X-68307Y-185827D02*
D03*
X-72834Y-231102D02*
D03*
Y-249213D02*
D03*
X-68307Y-258268D02*
D03*
X-72834Y-285433D02*
D03*
X-77362Y-40945D02*
D03*
X-81890Y-285433D02*
D03*
X-90945Y-13779D02*
D03*
X-86417Y-40945D02*
D03*
Y-258268D02*
D03*
X-90945Y-285433D02*
D03*
X-95472Y-22835D02*
D03*
X-100000Y-104331D02*
D03*
Y-285433D02*
D03*
X-109055Y-50000D02*
D03*
X-104527Y-59055D02*
D03*
X-109055Y-68110D02*
D03*
X-104527Y-77165D02*
D03*
X-109055Y-104331D02*
D03*
Y-212992D02*
D03*
Y-285433D02*
D03*
X-118110Y-50000D02*
D03*
X-113583Y-59055D02*
D03*
X-118110Y-68110D02*
D03*
X-113583Y-77165D02*
D03*
X-118110Y-86220D02*
D03*
X-113583Y-95275D02*
D03*
X-118110Y-104331D02*
D03*
X-113583Y-203937D02*
D03*
X-118110Y-212992D02*
D03*
Y-249213D02*
D03*
Y-267323D02*
D03*
Y-285433D02*
D03*
X-127165Y-50000D02*
D03*
X-122638Y-59055D02*
D03*
X-127165Y-68110D02*
D03*
X-122638Y-77165D02*
D03*
X-127165Y-104331D02*
D03*
Y-249213D02*
D03*
X-122638Y-258268D02*
D03*
X-127165Y-267323D02*
D03*
X-122638Y-276378D02*
D03*
X-127165Y-285433D02*
D03*
X-136220Y-50000D02*
D03*
X-131693Y-59055D02*
D03*
X-136220Y-68110D02*
D03*
X-131693Y-77165D02*
D03*
X-136220Y-104331D02*
D03*
Y-122441D02*
D03*
Y-140551D02*
D03*
Y-158661D02*
D03*
Y-267323D02*
D03*
X-131693Y-276378D02*
D03*
X-136220Y-285433D02*
D03*
X-140748Y-131496D02*
D03*
X-145275Y-140551D02*
D03*
X-140748Y-149606D02*
D03*
X-145275Y-158661D02*
D03*
X-140748Y-258268D02*
D03*
X-145275Y-285433D02*
D03*
X-154331Y-13779D02*
D03*
X-149803Y-22835D02*
D03*
X-154331Y-31890D02*
D03*
X-149803Y-59055D02*
D03*
Y-77165D02*
D03*
Y-95275D02*
D03*
Y-113386D02*
D03*
Y-149606D02*
D03*
X-154331Y-158661D02*
D03*
X-149803Y-185827D02*
D03*
Y-203937D02*
D03*
Y-258268D02*
D03*
X-163386Y-13779D02*
D03*
X-158858Y-22835D02*
D03*
Y-40945D02*
D03*
Y-149606D02*
D03*
X-172441Y-13779D02*
D03*
X-167913Y-40945D02*
D03*
Y-131496D02*
D03*
X-172441Y-212992D02*
D03*
Y-249213D02*
D03*
X-176968Y-131496D02*
D03*
X-181496Y-140551D02*
D03*
X-176968Y-149606D02*
D03*
X-181496Y-158661D02*
D03*
Y-231102D02*
D03*
Y-249213D02*
D03*
X-186023Y-131496D02*
D03*
Y-149606D02*
D03*
X-190551Y-158661D02*
D03*
Y-194882D02*
D03*
Y-231102D02*
D03*
X-186023Y-276378D02*
D03*
X-190551Y-285433D02*
D03*
X-195079Y-149606D02*
D03*
X-199606Y-158661D02*
D03*
X-195079Y-203937D02*
D03*
Y-240157D02*
D03*
X-199606Y-249213D02*
D03*
X-204134Y-149606D02*
D03*
X-208661Y-158661D02*
D03*
X-204134Y-203937D02*
D03*
X-217716Y-104331D02*
D03*
X-213189Y-149606D02*
D03*
X-217716Y-158661D02*
D03*
X-213189Y-167717D02*
D03*
Y-203937D02*
D03*
Y-240157D02*
D03*
X-217716Y-249213D02*
D03*
X-226771Y-13779D02*
D03*
Y-31890D02*
D03*
X-235827Y-13779D02*
D03*
X-231299Y-22835D02*
D03*
X-235827Y-31890D02*
D03*
Y-50000D02*
D03*
Y-122441D02*
D03*
X-231299Y-203937D02*
D03*
Y-240157D02*
D03*
X-235827Y-249213D02*
D03*
X-244882Y-13779D02*
D03*
X-240354Y-22835D02*
D03*
X-244882Y-31890D02*
D03*
X-240354Y-40945D02*
D03*
X-244882Y-50000D02*
D03*
X-240354Y-59055D02*
D03*
X-244882Y-68110D02*
D03*
Y-104331D02*
D03*
Y-122441D02*
D03*
X-240354Y-240157D02*
D03*
X-249409Y-22835D02*
D03*
Y-40945D02*
D03*
X-253937Y-50000D02*
D03*
X-249409Y-59055D02*
D03*
X-253937Y-104331D02*
D03*
X-249409Y-113386D02*
D03*
Y-131496D02*
D03*
X-253937Y-140551D02*
D03*
X-249409Y-240157D02*
D03*
X-253937Y-249213D02*
D03*
X-262992Y-50000D02*
D03*
X-258464Y-59055D02*
D03*
X-262992Y-86220D02*
D03*
X-258464Y-95275D02*
D03*
X-262992Y-140551D02*
D03*
X-258464Y-149606D02*
D03*
X-262992Y-158661D02*
D03*
X-258464Y-203937D02*
D03*
Y-240157D02*
D03*
X-272047Y-50000D02*
D03*
X-267520Y-59055D02*
D03*
X-272047Y-86220D02*
D03*
X-267520Y-95275D02*
D03*
X-272047Y-140551D02*
D03*
X-267520Y-149606D02*
D03*
X-272047Y-158661D02*
D03*
X-267520Y-222047D02*
D03*
Y-240157D02*
D03*
X-272047Y-249213D02*
D03*
X-281102Y-50000D02*
D03*
X-276575Y-59055D02*
D03*
X-281102Y-68110D02*
D03*
X-276575Y-95275D02*
D03*
Y-149606D02*
D03*
X-281102Y-158661D02*
D03*
X-276575Y-167717D02*
D03*
Y-240157D02*
D03*
X-290157Y-50000D02*
D03*
X-285630Y-59055D02*
D03*
Y-77165D02*
D03*
Y-95275D02*
D03*
X-290157Y-122441D02*
D03*
Y-140551D02*
D03*
X-285630Y-149606D02*
D03*
Y-167717D02*
D03*
X-290157Y-249213D02*
D03*
X-299213Y-13779D02*
D03*
X-294685Y-113386D02*
D03*
X-299213Y-122441D02*
D03*
X-294685Y-131496D02*
D03*
X-299213Y-140551D02*
D03*
X-294685Y-149606D02*
D03*
Y-240157D02*
D03*
X-303740Y-113386D02*
D03*
Y-131496D02*
D03*
Y-149606D02*
D03*
X-308268Y-158661D02*
D03*
Y-212992D02*
D03*
Y-249213D02*
D03*
X-312795Y-59055D02*
D03*
Y-77165D02*
D03*
Y-149606D02*
D03*
Y-240157D02*
D03*
X-326378Y-13779D02*
D03*
X-321850Y-59055D02*
D03*
X-326378Y-68110D02*
D03*
X-321850Y-77165D02*
D03*
Y-149606D02*
D03*
X-330905Y-22835D02*
D03*
Y-59055D02*
D03*
Y-77165D02*
D03*
Y-149606D02*
D03*
X-335433Y-212992D02*
D03*
X-339961Y-22835D02*
D03*
Y-59055D02*
D03*
Y-77165D02*
D03*
Y-203937D02*
D03*
X-349016Y-22835D02*
D03*
X-353543Y-31890D02*
D03*
X-349016Y-167717D02*
D03*
Y-203937D02*
D03*
X-358071Y-276378D02*
D03*
X-362598Y-285433D02*
D03*
X-371654Y-194882D02*
D03*
X-367126Y-203937D02*
D03*
X-371654Y-231102D02*
D03*
X-380709Y-13779D02*
D03*
X-376181Y-185827D02*
D03*
X-380709Y-194882D02*
D03*
X-376181Y-222047D02*
D03*
X-380709Y-231102D02*
D03*
X-389764Y-13779D02*
D03*
X-385236Y-22835D02*
D03*
X-389764Y-68110D02*
D03*
X-385236Y-77165D02*
D03*
X-389764Y-86220D02*
D03*
X-385236Y-95275D02*
D03*
X-389764Y-104331D02*
D03*
Y-231102D02*
D03*
X-398819Y-13779D02*
D03*
X-394291Y-22835D02*
D03*
X-398819Y-31890D02*
D03*
Y-68110D02*
D03*
Y-86220D02*
D03*
X-394291Y-95275D02*
D03*
X-398819Y-104331D02*
D03*
Y-122441D02*
D03*
X-394291Y-167717D02*
D03*
X-398819Y-194882D02*
D03*
X-394291Y-203937D02*
D03*
Y-222047D02*
D03*
X-398819Y-231102D02*
D03*
X-407874Y-13779D02*
D03*
X-403346Y-22835D02*
D03*
X-407874Y-68110D02*
D03*
Y-86220D02*
D03*
X-403346Y-95275D02*
D03*
Y-113386D02*
D03*
X-407874Y-194882D02*
D03*
Y-231102D02*
D03*
Y-285433D02*
D03*
X-416929Y-13779D02*
D03*
X-412401Y-40945D02*
D03*
X-416929Y-50000D02*
D03*
X-412401Y-77165D02*
D03*
X-416929Y-86220D02*
D03*
X-412401Y-167717D02*
D03*
Y-185827D02*
D03*
Y-203937D02*
D03*
Y-222047D02*
D03*
X-425984Y-13779D02*
D03*
Y-31890D02*
D03*
X-421457Y-40945D02*
D03*
X-425984Y-50000D02*
D03*
Y-140551D02*
D03*
X-421457Y-149606D02*
D03*
Y-185827D02*
D03*
X-435039Y-140551D02*
D03*
X-430512Y-149606D02*
D03*
Y-185827D02*
D03*
X-444094Y-50000D02*
D03*
X-439567Y-95275D02*
D03*
X-444094Y-104331D02*
D03*
X-439567Y-113386D02*
D03*
X-444094Y-122441D02*
D03*
X-439567Y-131496D02*
D03*
X-444094Y-285433D02*
D03*
X-453150Y-13779D02*
D03*
X-448622Y-77165D02*
D03*
Y-113386D02*
D03*
X-453150Y-158661D02*
D03*
X-462205Y-13779D02*
D03*
X-457677Y-22835D02*
D03*
Y-77165D02*
D03*
X-462205Y-86220D02*
D03*
X-466732Y-22835D02*
D03*
Y-40945D02*
D03*
X-471260Y-140551D02*
D03*
Y-249213D02*
D03*
X-480315Y-68110D02*
D03*
X-475787Y-113386D02*
D03*
X-480315Y-122441D02*
D03*
X-489370Y-13779D02*
D03*
X-484842Y-22835D02*
D03*
X-489370Y-31890D02*
D03*
X-484842Y-77165D02*
D03*
X-489370Y-86220D02*
D03*
Y-104331D02*
D03*
Y-122441D02*
D03*
X-484842Y-222047D02*
D03*
X-489370Y-231102D02*
D03*
X-498425Y-13779D02*
D03*
X-493898Y-22835D02*
D03*
X-498425Y-31890D02*
D03*
X-493898Y-40945D02*
D03*
X-498425Y-158661D02*
D03*
Y-231102D02*
D03*
X-502953Y-40945D02*
D03*
Y-77165D02*
D03*
Y-185827D02*
D03*
Y-222047D02*
D03*
Y-258268D02*
D03*
X-530118Y-40945D02*
D03*
X-471528Y-171902D02*
D03*
X-462325Y-171164D02*
D03*
X-472423Y-166978D02*
D03*
X-86115Y-211245D02*
D03*
X-93989Y-215182D02*
D03*
X-97926Y-211245D02*
D03*
X-93989Y-219119D02*
D03*
X-90052Y-215182D02*
D03*
X-86115Y-219119D02*
D03*
X-93989Y-211245D02*
D03*
X-90052D02*
D03*
X-97926Y-219119D02*
D03*
X-97926Y-215182D02*
D03*
X-86115D02*
D03*
X-90052Y-219119D02*
D03*
X-94055Y-195664D02*
D03*
X-97992Y-199601D02*
D03*
X-90118Y-195664D02*
D03*
X-97992Y-191727D02*
D03*
X-90118D02*
D03*
X-86181Y-195664D02*
D03*
Y-199601D02*
D03*
Y-191727D02*
D03*
X-94055D02*
D03*
Y-199601D02*
D03*
X-97992Y-195664D02*
D03*
X-90118Y-199601D02*
D03*
X-316929Y-96457D02*
D03*
X-320866D02*
D03*
X-352362Y-92520D02*
D03*
X-356299D02*
D03*
X-348425D02*
D03*
X-344488D02*
D03*
X-328740D02*
D03*
X-332677D02*
D03*
X-336614D02*
D03*
X-316929D02*
D03*
X-320866D02*
D03*
Y-88583D02*
D03*
X-316929D02*
D03*
X-336614D02*
D03*
X-332677D02*
D03*
X-328740D02*
D03*
X-344488D02*
D03*
X-348425D02*
D03*
X-356299D02*
D03*
X-352362D02*
D03*
Y-96457D02*
D03*
X-356299D02*
D03*
X-332677D02*
D03*
X-336614D02*
D03*
X-344488D02*
D03*
X-348425D02*
D03*
X-328740D02*
D03*
X-312992D02*
D03*
X-309055D02*
D03*
Y-88583D02*
D03*
X-312992D02*
D03*
Y-92520D02*
D03*
X-309055D02*
D03*
X-312992Y-104331D02*
D03*
X-309055D02*
D03*
Y-112205D02*
D03*
X-312992D02*
D03*
Y-108268D02*
D03*
X-309055D02*
D03*
Y-124016D02*
D03*
X-312992D02*
D03*
Y-127953D02*
D03*
X-309055D02*
D03*
Y-120079D02*
D03*
X-312992D02*
D03*
Y-116142D02*
D03*
X-309055D02*
D03*
Y-135827D02*
D03*
X-312992D02*
D03*
Y-131890D02*
D03*
X-309055D02*
D03*
Y-100394D02*
D03*
Y-139764D02*
D03*
X-312992Y-100394D02*
D03*
Y-139764D02*
D03*
X-328740D02*
D03*
X-340551D02*
D03*
X-348425D02*
D03*
X-344488D02*
D03*
X-336614D02*
D03*
X-332677D02*
D03*
X-348425Y-100394D02*
D03*
X-356299Y-139764D02*
D03*
Y-100394D02*
D03*
X-344488D02*
D03*
X-352362Y-139764D02*
D03*
Y-100394D02*
D03*
Y-131890D02*
D03*
X-356299D02*
D03*
X-348425D02*
D03*
X-344488D02*
D03*
X-328740D02*
D03*
X-332677D02*
D03*
X-340551D02*
D03*
X-336614D02*
D03*
X-316929D02*
D03*
X-320866D02*
D03*
Y-135827D02*
D03*
X-316929D02*
D03*
X-336614D02*
D03*
X-340551D02*
D03*
X-332677D02*
D03*
X-328740D02*
D03*
X-344488D02*
D03*
X-348425D02*
D03*
X-356299D02*
D03*
X-352362D02*
D03*
X-320866Y-139764D02*
D03*
X-316929D02*
D03*
X-352362Y-116142D02*
D03*
X-356299D02*
D03*
X-348425D02*
D03*
X-344488D02*
D03*
X-328740D02*
D03*
X-332677D02*
D03*
X-340551D02*
D03*
X-336614D02*
D03*
X-316929D02*
D03*
X-324803D02*
D03*
X-320866D02*
D03*
Y-120079D02*
D03*
X-324803D02*
D03*
X-316929D02*
D03*
X-336614D02*
D03*
X-340551D02*
D03*
X-332677D02*
D03*
X-328740D02*
D03*
X-344488D02*
D03*
X-348425D02*
D03*
X-356299D02*
D03*
X-352362D02*
D03*
Y-127953D02*
D03*
X-356299D02*
D03*
X-348425D02*
D03*
X-344488D02*
D03*
X-328740D02*
D03*
X-332677D02*
D03*
X-340551D02*
D03*
X-336614D02*
D03*
X-316929D02*
D03*
X-324803D02*
D03*
X-320866D02*
D03*
Y-124016D02*
D03*
X-324803D02*
D03*
X-316929D02*
D03*
X-336614D02*
D03*
X-340551D02*
D03*
X-332677D02*
D03*
X-328740D02*
D03*
X-344488D02*
D03*
X-348425D02*
D03*
X-356299D02*
D03*
X-352362D02*
D03*
Y-108268D02*
D03*
X-356299D02*
D03*
X-348425D02*
D03*
X-344488D02*
D03*
X-328740D02*
D03*
X-332677D02*
D03*
X-340551D02*
D03*
X-336614D02*
D03*
X-316929D02*
D03*
X-324803D02*
D03*
X-320866D02*
D03*
Y-112205D02*
D03*
X-324803D02*
D03*
X-316929D02*
D03*
X-336614D02*
D03*
X-340551D02*
D03*
X-332677D02*
D03*
X-328740D02*
D03*
X-344488D02*
D03*
X-348425D02*
D03*
X-356299D02*
D03*
X-352362D02*
D03*
Y-104331D02*
D03*
X-356299D02*
D03*
X-348425D02*
D03*
X-344488D02*
D03*
X-328740D02*
D03*
X-332677D02*
D03*
X-336614D02*
D03*
X-316929D02*
D03*
X-324803D02*
D03*
X-320866D02*
D03*
Y-100394D02*
D03*
X-316929D02*
D03*
X-181744Y-108027D02*
D03*
X-189618Y-104090D02*
D03*
X-193555D02*
D03*
X-197492D02*
D03*
X-185681D02*
D03*
X-201429D02*
D03*
X-185681Y-108027D02*
D03*
X-201429D02*
D03*
X-189618D02*
D03*
X-197492D02*
D03*
X-193555D02*
D03*
X-177807D02*
D03*
X-181744Y-104090D02*
D03*
X-177807D02*
D03*
X-173870Y-115901D02*
D03*
X-209303D02*
D03*
X-205366D02*
D03*
X-201429D02*
D03*
X-185681D02*
D03*
X-193555D02*
D03*
X-177807D02*
D03*
X-181744D02*
D03*
X-197492D02*
D03*
X-189618D02*
D03*
X-154185D02*
D03*
X-162059D02*
D03*
X-169933D02*
D03*
X-165996D02*
D03*
X-158122D02*
D03*
X-154185Y-108027D02*
D03*
X-162059D02*
D03*
X-165996D02*
D03*
X-158122D02*
D03*
X-154185Y-100153D02*
D03*
X-158122D02*
D03*
X-165996D02*
D03*
X-162059D02*
D03*
X-154185Y-104090D02*
D03*
X-165996D02*
D03*
X-162059D02*
D03*
X-158122D02*
D03*
X-154185Y-119838D02*
D03*
X-189618D02*
D03*
X-173870D02*
D03*
X-181744D02*
D03*
X-177807D02*
D03*
X-158122D02*
D03*
X-162059D02*
D03*
X-165996D02*
D03*
X-169933D02*
D03*
X-185681D02*
D03*
X-197492D02*
D03*
X-205366D02*
D03*
X-201429D02*
D03*
X-193555D02*
D03*
X-209303D02*
D03*
X-213240Y-111964D02*
D03*
X-189618D02*
D03*
X-181744D02*
D03*
X-177807D02*
D03*
X-173870D02*
D03*
X-169933D02*
D03*
X-165996D02*
D03*
X-185681D02*
D03*
X-154185D02*
D03*
X-162059D02*
D03*
X-158122D02*
D03*
X-209303D02*
D03*
X-205366D02*
D03*
X-201429D02*
D03*
X-197492D02*
D03*
X-193555D02*
D03*
X-213240Y-104090D02*
D03*
X-205366D02*
D03*
X-209303D02*
D03*
Y-108027D02*
D03*
X-213240D02*
D03*
X-205366D02*
D03*
X-213240Y-100153D02*
D03*
X-201429D02*
D03*
X-193555D02*
D03*
X-197492D02*
D03*
X-189618D02*
D03*
X-205366D02*
D03*
X-209303D02*
D03*
X-173870Y-108027D02*
D03*
X-169933D02*
D03*
X-173870Y-100153D02*
D03*
X-169933D02*
D03*
Y-104090D02*
D03*
X-173870D02*
D03*
X-177807Y-100153D02*
D03*
X-181744D02*
D03*
X-185681D02*
D03*
X-162059Y-64720D02*
D03*
X-165996Y-56846D02*
D03*
X-162059D02*
D03*
X-165996Y-64720D02*
D03*
Y-60783D02*
D03*
X-162059D02*
D03*
Y-68657D02*
D03*
X-154185D02*
D03*
X-158122D02*
D03*
X-154185Y-64720D02*
D03*
X-158122D02*
D03*
X-154185Y-60783D02*
D03*
X-158122D02*
D03*
Y-56846D02*
D03*
X-154185D02*
D03*
X-213240Y-68657D02*
D03*
Y-60783D02*
D03*
Y-64720D02*
D03*
Y-56846D02*
D03*
X-177807Y-64720D02*
D03*
X-185681D02*
D03*
X-181744D02*
D03*
X-189618D02*
D03*
X-209303Y-68657D02*
D03*
X-205366Y-64720D02*
D03*
X-209303Y-60783D02*
D03*
X-205366D02*
D03*
Y-56846D02*
D03*
X-209303D02*
D03*
Y-64720D02*
D03*
X-205366Y-68657D02*
D03*
X-201429Y-56846D02*
D03*
Y-68657D02*
D03*
Y-64720D02*
D03*
X-197492D02*
D03*
X-193555D02*
D03*
X-197492Y-60783D02*
D03*
X-193555D02*
D03*
X-189618D02*
D03*
X-201429D02*
D03*
X-185681D02*
D03*
X-193555Y-68657D02*
D03*
X-189618D02*
D03*
X-181744D02*
D03*
X-185681D02*
D03*
X-197492D02*
D03*
X-181744Y-60783D02*
D03*
X-173870Y-64720D02*
D03*
Y-56846D02*
D03*
X-177807D02*
D03*
Y-60783D02*
D03*
X-173870D02*
D03*
X-169933Y-64720D02*
D03*
Y-60783D02*
D03*
Y-68657D02*
D03*
X-165996D02*
D03*
X-173870D02*
D03*
X-169933Y-56846D02*
D03*
X-177807Y-68657D02*
D03*
X-193555Y-56846D02*
D03*
X-197492D02*
D03*
X-185681D02*
D03*
X-189618D02*
D03*
X-181744D02*
D03*
X-213240Y-88342D02*
D03*
X-209303D02*
D03*
X-205366D02*
D03*
X-201429D02*
D03*
X-197492D02*
D03*
X-193555D02*
D03*
X-154185Y-96216D02*
D03*
X-165996D02*
D03*
X-169933D02*
D03*
X-162059D02*
D03*
X-158122D02*
D03*
X-169933Y-92279D02*
D03*
X-165996D02*
D03*
X-154185D02*
D03*
X-158122D02*
D03*
X-162059D02*
D03*
X-177807Y-96216D02*
D03*
X-173870D02*
D03*
Y-72594D02*
D03*
X-197492D02*
D03*
X-193555D02*
D03*
X-201429D02*
D03*
X-189618D02*
D03*
X-177807D02*
D03*
X-181744D02*
D03*
X-185681D02*
D03*
X-169933D02*
D03*
X-165996D02*
D03*
X-162059D02*
D03*
X-154185D02*
D03*
X-158122D02*
D03*
X-213240Y-96216D02*
D03*
X-193555D02*
D03*
X-185681D02*
D03*
X-189618D02*
D03*
X-181744D02*
D03*
X-209303D02*
D03*
X-205366D02*
D03*
X-201429D02*
D03*
X-197492D02*
D03*
X-154185Y-88342D02*
D03*
Y-84405D02*
D03*
X-158122D02*
D03*
Y-88342D02*
D03*
Y-80468D02*
D03*
Y-76531D02*
D03*
X-154185D02*
D03*
Y-80468D02*
D03*
X-181744Y-92279D02*
D03*
X-177807D02*
D03*
X-173870D02*
D03*
X-185681D02*
D03*
X-213240D02*
D03*
X-201429D02*
D03*
X-205366D02*
D03*
X-209303D02*
D03*
X-193555D02*
D03*
X-197492D02*
D03*
X-189618D02*
D03*
X-193555Y-84405D02*
D03*
X-197492D02*
D03*
X-201429D02*
D03*
X-181744D02*
D03*
X-185681D02*
D03*
X-177807D02*
D03*
X-205366D02*
D03*
X-209303D02*
D03*
X-189618D02*
D03*
X-201429Y-80468D02*
D03*
X-205366D02*
D03*
X-197492Y-76531D02*
D03*
X-189618D02*
D03*
X-193555D02*
D03*
X-185681D02*
D03*
X-181744D02*
D03*
X-177807D02*
D03*
X-201429D02*
D03*
X-173870Y-80468D02*
D03*
Y-84405D02*
D03*
X-165996D02*
D03*
X-169933D02*
D03*
X-162059D02*
D03*
X-173870Y-76531D02*
D03*
X-162059Y-80468D02*
D03*
X-169933D02*
D03*
X-165996D02*
D03*
Y-76531D02*
D03*
X-162059D02*
D03*
X-169933D02*
D03*
X-197492Y-80468D02*
D03*
X-177807D02*
D03*
X-193555D02*
D03*
X-181744D02*
D03*
X-189618D02*
D03*
X-185681D02*
D03*
X-189618Y-88342D02*
D03*
X-173870D02*
D03*
X-185681D02*
D03*
X-181744D02*
D03*
X-162059D02*
D03*
X-169933D02*
D03*
X-165996D02*
D03*
X-177807D02*
D03*
X-127726Y-119269D02*
D03*
X-131663D02*
D03*
X-123789D02*
D03*
X-119852D02*
D03*
X-104104D02*
D03*
X-108041D02*
D03*
X-115915D02*
D03*
X-111978D02*
D03*
X-92293D02*
D03*
X-100167D02*
D03*
X-96230D02*
D03*
Y-123206D02*
D03*
X-100167D02*
D03*
X-92293D02*
D03*
X-111978D02*
D03*
X-115915D02*
D03*
X-108041D02*
D03*
X-104104D02*
D03*
X-119852D02*
D03*
X-123789D02*
D03*
X-131663D02*
D03*
X-127726D02*
D03*
Y-115332D02*
D03*
X-131663D02*
D03*
X-123789D02*
D03*
X-119852D02*
D03*
X-104104D02*
D03*
X-108041D02*
D03*
X-115915D02*
D03*
X-111978D02*
D03*
X-92293D02*
D03*
X-100167D02*
D03*
X-96230D02*
D03*
X-92293Y-135017D02*
D03*
X-100167D02*
D03*
X-96230D02*
D03*
X-127726Y-131080D02*
D03*
X-131663D02*
D03*
X-96230Y-127143D02*
D03*
X-100167D02*
D03*
X-92293D02*
D03*
X-111978D02*
D03*
X-115915D02*
D03*
X-108041D02*
D03*
X-104104D02*
D03*
X-119852D02*
D03*
X-123789D02*
D03*
X-131663D02*
D03*
X-127726D02*
D03*
Y-135017D02*
D03*
X-131663D02*
D03*
X-108041D02*
D03*
X-111978D02*
D03*
X-119852D02*
D03*
X-123789D02*
D03*
X-115915D02*
D03*
X-104104D02*
D03*
X-80482D02*
D03*
X-76545D02*
D03*
X-88356D02*
D03*
X-84419D02*
D03*
Y-127143D02*
D03*
X-88356D02*
D03*
X-80482D02*
D03*
X-76545Y-131080D02*
D03*
X-80482Y-115332D02*
D03*
X-88356D02*
D03*
X-84419D02*
D03*
Y-123206D02*
D03*
X-88356D02*
D03*
X-80482D02*
D03*
Y-119269D02*
D03*
X-88356D02*
D03*
X-84419D02*
D03*
X-76545Y-142891D02*
D03*
X-80482D02*
D03*
X-88356D02*
D03*
X-84419D02*
D03*
Y-150765D02*
D03*
X-88356D02*
D03*
X-80482D02*
D03*
X-76545D02*
D03*
Y-146828D02*
D03*
X-80482D02*
D03*
X-88356D02*
D03*
X-84419D02*
D03*
Y-162576D02*
D03*
X-88356D02*
D03*
X-80482D02*
D03*
Y-166513D02*
D03*
X-88356D02*
D03*
X-84419D02*
D03*
Y-158639D02*
D03*
X-88356D02*
D03*
X-80482D02*
D03*
X-76545D02*
D03*
Y-154702D02*
D03*
X-80482D02*
D03*
X-88356D02*
D03*
X-84419D02*
D03*
Y-174387D02*
D03*
X-88356D02*
D03*
X-80482D02*
D03*
Y-170450D02*
D03*
X-88356D02*
D03*
X-84419D02*
D03*
Y-138954D02*
D03*
Y-178324D02*
D03*
X-76545Y-138954D02*
D03*
X-88356D02*
D03*
Y-178324D02*
D03*
X-80482Y-138954D02*
D03*
Y-178324D02*
D03*
X-104104D02*
D03*
X-115915D02*
D03*
X-123789D02*
D03*
X-119852D02*
D03*
X-111978D02*
D03*
X-108041D02*
D03*
X-104104Y-138954D02*
D03*
X-123789D02*
D03*
X-131663Y-178324D02*
D03*
Y-138954D02*
D03*
X-119852D02*
D03*
X-108041D02*
D03*
X-115915D02*
D03*
X-127726Y-178324D02*
D03*
Y-138954D02*
D03*
X-111978D02*
D03*
X-127726Y-170450D02*
D03*
X-131663D02*
D03*
X-123789D02*
D03*
X-119852D02*
D03*
X-104104D02*
D03*
X-108041D02*
D03*
X-115915D02*
D03*
X-111978D02*
D03*
X-92293D02*
D03*
X-100167D02*
D03*
X-96230D02*
D03*
Y-174387D02*
D03*
X-100167D02*
D03*
X-92293D02*
D03*
X-111978D02*
D03*
X-115915D02*
D03*
X-108041D02*
D03*
X-104104D02*
D03*
X-119852D02*
D03*
X-123789D02*
D03*
X-131663D02*
D03*
X-127726D02*
D03*
X-96230Y-178324D02*
D03*
X-100167D02*
D03*
X-92293D02*
D03*
X-127726Y-154702D02*
D03*
X-131663D02*
D03*
X-123789D02*
D03*
X-119852D02*
D03*
X-104104D02*
D03*
X-108041D02*
D03*
X-115915D02*
D03*
X-111978D02*
D03*
X-92293D02*
D03*
X-100167D02*
D03*
X-96230D02*
D03*
Y-158639D02*
D03*
X-100167D02*
D03*
X-92293D02*
D03*
X-111978D02*
D03*
X-115915D02*
D03*
X-108041D02*
D03*
X-104104D02*
D03*
X-119852D02*
D03*
X-123789D02*
D03*
X-131663D02*
D03*
X-127726D02*
D03*
Y-166513D02*
D03*
X-131663D02*
D03*
X-123789D02*
D03*
X-119852D02*
D03*
X-104104D02*
D03*
X-108041D02*
D03*
X-115915D02*
D03*
X-111978D02*
D03*
X-92293D02*
D03*
X-100167D02*
D03*
X-96230D02*
D03*
Y-162576D02*
D03*
X-100167D02*
D03*
X-92293D02*
D03*
X-111978D02*
D03*
X-115915D02*
D03*
X-108041D02*
D03*
X-104104D02*
D03*
X-119852D02*
D03*
X-123789D02*
D03*
X-127726D02*
D03*
Y-146828D02*
D03*
X-131663D02*
D03*
X-123789D02*
D03*
X-119852D02*
D03*
X-104104D02*
D03*
X-108041D02*
D03*
X-115915D02*
D03*
X-111978D02*
D03*
X-92293D02*
D03*
X-100167D02*
D03*
X-96230D02*
D03*
Y-150765D02*
D03*
X-100167D02*
D03*
X-92293D02*
D03*
X-111978D02*
D03*
X-115915D02*
D03*
X-108041D02*
D03*
X-104104D02*
D03*
X-119852D02*
D03*
X-123789D02*
D03*
X-131663D02*
D03*
X-127726D02*
D03*
Y-142891D02*
D03*
X-131663D02*
D03*
X-123789D02*
D03*
X-119852D02*
D03*
X-104104D02*
D03*
X-108041D02*
D03*
X-115915D02*
D03*
X-111978D02*
D03*
X-92293D02*
D03*
X-100167D02*
D03*
X-96230D02*
D03*
Y-138954D02*
D03*
X-100167D02*
D03*
X-92293D02*
D03*
X-337667Y-232203D02*
D03*
X-440945Y-157874D02*
D03*
X-450939Y-148082D02*
D03*
X-456502Y-185640D02*
D03*
X-445733Y-181939D02*
D03*
X-335433Y-208661D02*
D03*
Y-220472D02*
D03*
Y-196850D02*
D03*
X-244394Y-218460D02*
D03*
X-206458Y-224768D02*
D03*
X-225590Y-221654D02*
D03*
X-465748Y-174409D02*
D03*
X-456299Y-168898D02*
D03*
X-453543Y-166142D02*
D03*
X-477165Y-102756D02*
D03*
Y-85827D02*
D03*
X-481102Y-48622D02*
D03*
X-378150Y-96850D02*
D03*
X-359646Y-158957D02*
D03*
X-355709D02*
D03*
X-351772D02*
D03*
X-355709Y-155020D02*
D03*
X-359646D02*
D03*
X-347835D02*
D03*
X-363583Y-158957D02*
D03*
X-351772Y-155020D02*
D03*
X-355709Y-151083D02*
D03*
X-347835Y-158957D02*
D03*
X-363583Y-151083D02*
D03*
X-347835D02*
D03*
X-359646D02*
D03*
X-351772D02*
D03*
X-363583Y-155020D02*
D03*
X-78248Y-97146D02*
D03*
Y-89272D02*
D03*
X-86122Y-85335D02*
D03*
X-74311D02*
D03*
X-82185Y-89272D02*
D03*
X-74311Y-81398D02*
D03*
X-82185D02*
D03*
X-82185Y-93209D02*
D03*
X-74311Y-89272D02*
D03*
X-86122Y-97146D02*
D03*
X-78248Y-85335D02*
D03*
X-86122Y-93209D02*
D03*
Y-89272D02*
D03*
X-82185Y-85335D02*
D03*
X-74311Y-93209D02*
D03*
Y-97146D02*
D03*
X-78248Y-93209D02*
D03*
X-82185Y-97146D02*
D03*
X-86122Y-81398D02*
D03*
X-78248D02*
D03*
X-40256Y-124902D02*
D03*
X-36319D02*
D03*
X-32382D02*
D03*
X-40256Y-120965D02*
D03*
X-36319D02*
D03*
X-32382D02*
D03*
X-40256Y-117027D02*
D03*
X-36319D02*
D03*
X-40256Y-113091D02*
D03*
X-36319D02*
D03*
X-40256Y-109153D02*
D03*
X-36319D02*
D03*
X-32382D02*
D03*
X-28445Y-105217D02*
D03*
X-20571Y-105217D02*
D03*
X-24508Y-105217D02*
D03*
X-28445Y-101279D02*
D03*
X-20571Y-101279D02*
D03*
X-24508Y-101279D02*
D03*
X-32382Y-97342D02*
D03*
X-28445D02*
D03*
X-40256Y-105217D02*
D03*
X-36319D02*
D03*
X-32382D02*
D03*
X-40256Y-101279D02*
D03*
X-36319Y-101279D02*
D03*
X-32382D02*
D03*
X-40256Y-97342D02*
D03*
X-36319D02*
D03*
X-40256Y-93405D02*
D03*
X-36319D02*
D03*
X-32382Y-89468D02*
D03*
X-40256D02*
D03*
X-36319D02*
D03*
X-20571Y-97342D02*
D03*
X-24508D02*
D03*
X-32382Y-93405D02*
D03*
X-28445D02*
D03*
X-24508D02*
D03*
X-20571D02*
D03*
X-28445Y-89468D02*
D03*
X-24508D02*
D03*
X-20571D02*
D03*
X-32382Y-117027D02*
D03*
X-28445Y-124902D02*
D03*
X-24508D02*
D03*
X-20571D02*
D03*
X-28445Y-120965D02*
D03*
X-24508D02*
D03*
X-20571Y-120965D02*
D03*
X-28445Y-117027D02*
D03*
X-24508D02*
D03*
X-20571D02*
D03*
X-32382Y-113091D02*
D03*
X-28445D02*
D03*
X-24508D02*
D03*
X-20571D02*
D03*
X-28445Y-109153D02*
D03*
X-24508D02*
D03*
X-20571D02*
D03*
X-12697Y-120965D02*
D03*
X-16634D02*
D03*
X-8760D02*
D03*
Y-124902D02*
D03*
X-12697Y-124902D02*
D03*
X-16634D02*
D03*
Y-117027D02*
D03*
X-12697D02*
D03*
X-8760D02*
D03*
Y-109153D02*
D03*
X-16634D02*
D03*
X-12697D02*
D03*
X-8760Y-113091D02*
D03*
X-16634D02*
D03*
X-12697D02*
D03*
X-8760Y-93405D02*
D03*
X-16634D02*
D03*
Y-89468D02*
D03*
X-8760D02*
D03*
X-12697Y-93405D02*
D03*
Y-89468D02*
D03*
Y-101279D02*
D03*
X-8760Y-101279D02*
D03*
X-12697Y-105217D02*
D03*
X-16634D02*
D03*
X-8760D02*
D03*
X-16634Y-101279D02*
D03*
X-12697Y-97342D02*
D03*
X-8760D02*
D03*
X-16634D02*
D03*
X-201772Y-141929D02*
D03*
Y-134055D02*
D03*
X-213583Y-141929D02*
D03*
X-205709Y-130118D02*
D03*
X-213583Y-137992D02*
D03*
X-217520Y-141929D02*
D03*
X-209646Y-134055D02*
D03*
X-217520Y-130118D02*
D03*
X-213583D02*
D03*
X-201772Y-137992D02*
D03*
X-209646Y-130118D02*
D03*
X-201772D02*
D03*
X-205709Y-134055D02*
D03*
X-217520Y-137992D02*
D03*
X-217520Y-134055D02*
D03*
X-205709Y-137992D02*
D03*
X-209646D02*
D03*
X-209646Y-141929D02*
D03*
X-205709D02*
D03*
X-213583Y-134055D02*
D03*
X-261122Y-105807D02*
D03*
X-257185D02*
D03*
X-265256Y-105709D02*
D03*
X-261122Y-113681D02*
D03*
Y-117618D02*
D03*
X-257185Y-117618D02*
D03*
Y-113681D02*
D03*
Y-137303D02*
D03*
Y-133366D02*
D03*
X-261122D02*
D03*
Y-137303D02*
D03*
X-281004Y-105709D02*
D03*
X-277067D02*
D03*
X-273130D02*
D03*
Y-109646D02*
D03*
X-269193D02*
D03*
Y-113583D02*
D03*
X-273130D02*
D03*
X-281004Y-117520D02*
D03*
X-277067Y-109646D02*
D03*
Y-113583D02*
D03*
X-281004D02*
D03*
Y-109646D02*
D03*
X-265256Y-113583D02*
D03*
Y-109646D02*
D03*
X-257185Y-125492D02*
D03*
Y-121555D02*
D03*
Y-129429D02*
D03*
X-269193Y-129331D02*
D03*
X-261122Y-125492D02*
D03*
X-265256Y-125394D02*
D03*
Y-129331D02*
D03*
X-261122Y-129429D02*
D03*
X-265256Y-137205D02*
D03*
X-273130Y-133268D02*
D03*
X-269193D02*
D03*
X-281004Y-137205D02*
D03*
X-273130D02*
D03*
X-277067D02*
D03*
Y-133268D02*
D03*
X-269193Y-137205D02*
D03*
X-265256Y-133268D02*
D03*
X-281004D02*
D03*
Y-129331D02*
D03*
X-273130Y-125394D02*
D03*
Y-129331D02*
D03*
X-269193Y-125394D02*
D03*
X-281004D02*
D03*
X-277067D02*
D03*
Y-129331D02*
D03*
X-257185Y-101870D02*
D03*
X-261122Y-101870D02*
D03*
Y-109744D02*
D03*
X-257185D02*
D03*
X-273130Y-121457D02*
D03*
Y-117520D02*
D03*
X-269193D02*
D03*
Y-121457D02*
D03*
X-277067D02*
D03*
Y-117520D02*
D03*
X-281004Y-121457D02*
D03*
X-265256D02*
D03*
X-265256Y-117520D02*
D03*
X-261122Y-121555D02*
D03*
X-265256Y-101772D02*
D03*
X-269193D02*
D03*
Y-105709D02*
D03*
X-273130Y-101772D02*
D03*
X-277067D02*
D03*
X-281004Y-101772D02*
D03*
X-429817Y-134153D02*
D03*
Y-126279D02*
D03*
Y-122343D02*
D03*
Y-118405D02*
D03*
Y-114469D02*
D03*
Y-110531D02*
D03*
Y-106595D02*
D03*
X-418012Y-114469D02*
D03*
X-410138Y-134153D02*
D03*
Y-130217D02*
D03*
Y-106595D02*
D03*
X-414075D02*
D03*
X-418012D02*
D03*
X-410138Y-114469D02*
D03*
X-418012Y-110531D02*
D03*
X-410138Y-110531D02*
D03*
X-414075D02*
D03*
X-410138Y-118405D02*
D03*
X-414075Y-114469D02*
D03*
Y-122343D02*
D03*
Y-126279D02*
D03*
X-410138D02*
D03*
X-418012Y-122343D02*
D03*
X-410138D02*
D03*
X-418012Y-126279D02*
D03*
X-410138Y-99114D02*
D03*
X-414075D02*
D03*
X-418012D02*
D03*
Y-130217D02*
D03*
X-414075Y-134153D02*
D03*
X-418012D02*
D03*
X-414075Y-130217D02*
D03*
X-418012Y-118405D02*
D03*
X-414075D02*
D03*
X-410138Y-103051D02*
D03*
X-414075Y-103051D02*
D03*
X-418012D02*
D03*
X-421949Y-103051D02*
D03*
X-429817Y-130217D02*
D03*
X-425886Y-103051D02*
D03*
Y-99114D02*
D03*
X-421949D02*
D03*
Y-118405D02*
D03*
X-425886D02*
D03*
Y-114469D02*
D03*
X-421949D02*
D03*
Y-106595D02*
D03*
X-425886D02*
D03*
Y-110531D02*
D03*
X-421949D02*
D03*
Y-126279D02*
D03*
X-425886D02*
D03*
Y-122343D02*
D03*
X-421949D02*
D03*
Y-130217D02*
D03*
X-429817Y-103051D02*
D03*
X-425886Y-130217D02*
D03*
Y-134153D02*
D03*
X-429817Y-99114D02*
D03*
X-421949Y-134153D02*
D03*
D74*
X-123809Y-131544D02*
D03*
X-119872D02*
D03*
X-104124D02*
D03*
X-108061D02*
D03*
X-115935D02*
D03*
X-111998D02*
D03*
X-92313D02*
D03*
X-100187D02*
D03*
X-96250D02*
D03*
X-80502D02*
D03*
X-88376D02*
D03*
X-84439D02*
D03*
D75*
X-457087Y-248031D02*
D03*
X-291913Y-218369D02*
D03*
X-177165Y-251969D02*
D03*
X-188976Y-255512D02*
D03*
X-286601Y-204245D02*
D03*
X-294603Y-204015D02*
D03*
X-302756Y-216535D02*
D03*
X-267323Y-194882D02*
D03*
X-228740Y-100492D02*
D03*
X-168504Y-242520D02*
D03*
X-409941Y-150984D02*
D03*
X-254035Y-166043D02*
D03*
D76*
X-189370Y-266929D02*
D03*
X-40818Y-48386D02*
D03*
X-16535Y-56299D02*
D03*
M02*
